STARTFONT 2.1
FONT -Adobe-Times-Medium-R-Normal--34-240-100-100-P-170-ISO10646-1
SIZE 24 100 100
FONTBOUNDINGBOX 38 48 -5 -11
COMMENT $XFree86$
COMMENT ISO10646-1 extension by Markus Kuhn <mkuhn@acm.org>, 2001-03-20
COMMENT 
COMMENT +
COMMENT  Copyright 1984-1989, 1994 Adobe Systems Incorporated.
COMMENT  Copyright 1988, 1994 Digital Equipment Corporation.
COMMENT
COMMENT  Adobe is a trademark of Adobe Systems Incorporated which may be
COMMENT  registered in certain jurisdictions.
COMMENT  Permission to use these trademarks is hereby granted only in
COMMENT  association with the images described in this file.
COMMENT
COMMENT  Permission to use, copy, modify, distribute and sell this software
COMMENT  and its documentation for any purpose and without fee is hereby
COMMENT  granted, provided that the above copyright notices appear in all
COMMENT  copies and that both those copyright notices and this permission
COMMENT  notice appear in supporting documentation, and that the names of
COMMENT  Adobe Systems and Digital Equipment Corporation not be used in
COMMENT  advertising or publicity pertaining to distribution of the software
COMMENT  without specific, written prior permission.  Adobe Systems and
COMMENT  Digital Equipment Corporation make no representations about the
COMMENT  suitability of this software for any purpose.  It is provided "as
COMMENT  is" without express or implied warranty.
COMMENT -
STARTPROPERTIES 26
FOUNDRY "Adobe"
FAMILY_NAME "Times"
WEIGHT_NAME "Medium"
SLANT "R"
SETWIDTH_NAME "Normal"
ADD_STYLE_NAME ""
PIXEL_SIZE 34
POINT_SIZE 240
RESOLUTION_X 100
RESOLUTION_Y 100
SPACING "P"
AVERAGE_WIDTH 170
CHARSET_REGISTRY "ISO10646"
CHARSET_ENCODING "1"
CAP_HEIGHT 23
X_HEIGHT 15
FONT_ASCENT 27
FONT_DESCENT 7
FACE_NAME "Times Roman"
COPYRIGHT "Copyright (c) 1984, 1987 Adobe Systems Incorporated. All Rights Reserved. Copyright (c) 1988, 1991 Digital Equipment Corporation. All Rights Reserved."

STARTCHAR char0
ENCODING 0
SWIDTH 722 0
DWIDTH 24 0
BBX 21 23 1 0
BITMAP
AAAAA8
000000
800008
000000
800008
000000
800008
000000
800008
000000
800008
000000
800008
000000
800008
000000
800008
000000
800008
000000
800008
000000
AAAAA8
ENDCHAR
STARTCHAR space
ENCODING 32
SWIDTH 250 0
DWIDTH 8 0
BBX 1 1 0 0
BITMAP
00
ENDCHAR
STARTCHAR exclam
ENCODING 33
SWIDTH 333 0
DWIDTH 11 0
BBX 4 23 3 0
BITMAP
60
F0
F0
F0
F0
F0
60
60
60
60
60
60
60
60
60
60
60
00
00
60
F0
F0
60
ENDCHAR
STARTCHAR quotedbl
ENCODING 34
SWIDTH 408 0
DWIDTH 14 0
BBX 9 7 2 16
BITMAP
E380
E380
E380
E380
4100
4100
4100
ENDCHAR
STARTCHAR numbersign
ENCODING 35
SWIDTH 500 0
DWIDTH 17 0
BBX 16 23 0 0
BITMAP
0618
0618
0618
0618
0618
0618
0618
0618
7FFF
7FFF
0C30
0C30
0C30
0C30
FFFE
FFFE
1860
1860
1860
1860
1860
1860
1860
ENDCHAR
STARTCHAR dollar
ENCODING 36
SWIDTH 500 0
DWIDTH 16 0
BBX 13 28 2 -3
BITMAP
0200
0200
0FC0
3A70
3238
6218
6208
6208
7200
7A00
3E00
3F00
1F80
07C0
03E0
02F0
0270
0238
0238
8218
8218
C238
E230
7260
1FC0
0200
0200
0200
ENDCHAR
STARTCHAR percent
ENCODING 37
SWIDTH 833 0
DWIDTH 27 0
BBX 23 23 2 0
BITMAP
0F0040
1D83C0
38FC80
704180
704300
E04200
E04600
E0C400
C08C00
C18800
C11878
6610EC
3C31C6
006382
004382
00C702
008702
018706
010604
03060C
020608
060330
0401E0
ENDCHAR
STARTCHAR ampersand
ENCODING 38
SWIDTH 778 0
DWIDTH 26 0
BBX 23 23 2 0
BITMAP
00F800
018C00
030E00
030600
070600
070600
070C00
078C00
039800
03F1FC
03C070
07C060
1DE040
38F0C0
707080
607980
E03F00
E01E00
E00F00
F01F82
7833FC
7FE1F8
1F80F0
ENDCHAR
STARTCHAR quotesingle
ENCODING 39
SWIDTH 180 0
DWIDTH 6 0
BBX 3 8 1 15
BITMAP
E0
E0
E0
E0
40
40
40
40
ENDCHAR
STARTCHAR parenleft
ENCODING 40
SWIDTH 333 0
DWIDTH 11 0
BBX 8 28 2 -5
BITMAP
03
06
0C
18
38
30
70
70
60
E0
E0
E0
E0
E0
E0
E0
E0
E0
E0
60
70
70
30
38
18
0C
06
03
ENDCHAR
STARTCHAR parenright
ENCODING 41
SWIDTH 333 0
DWIDTH 11 0
BBX 8 28 1 -5
BITMAP
C0
60
30
18
1C
0C
0E
0E
06
07
07
07
07
07
07
07
07
07
07
06
0E
0E
0C
1C
18
30
60
C0
ENDCHAR
STARTCHAR asterisk
ENCODING 42
SWIDTH 500 0
DWIDTH 17 0
BBX 12 13 2 10
BITMAP
0600
0F00
0600
C630
F6F0
76E0
0F00
76E0
F6F0
C630
0600
0F00
0600
ENDCHAR
STARTCHAR plus
ENCODING 43
SWIDTH 564 0
DWIDTH 19 0
BBX 16 16 1 1
BITMAP
0180
0180
0180
0180
0180
0180
0180
FFFF
FFFF
0180
0180
0180
0180
0180
0180
0180
ENDCHAR
STARTCHAR comma
ENCODING 44
SWIDTH 250 0
DWIDTH 8 0
BBX 4 7 2 -3
BITMAP
60
F0
F0
70
10
20
40
ENDCHAR
STARTCHAR hyphen
ENCODING 45
SWIDTH 333 0
DWIDTH 11 0
BBX 8 2 1 7
BITMAP
FF
FF
ENDCHAR
STARTCHAR period
ENCODING 46
SWIDTH 250 0
DWIDTH 8 0
BBX 4 4 2 0
BITMAP
60
F0
F0
60
ENDCHAR
STARTCHAR slash
ENCODING 47
SWIDTH 278 0
DWIDTH 9 0
BBX 10 26 0 -3
BITMAP
00C0
00C0
0180
0180
0380
0300
0300
0300
0600
0600
0600
0E00
0C00
0C00
1C00
1800
1800
1800
3000
3000
3000
7000
6000
6000
C000
C000
ENDCHAR
STARTCHAR zero
ENCODING 48
SWIDTH 500 0
DWIDTH 16 0
BBX 14 23 1 0
BITMAP
0780
1CE0
3870
3030
7038
7038
6018
E01C
E01C
E01C
E01C
E01C
E01C
E01C
E01C
E01C
E018
7038
7038
3030
3870
1CE0
0780
ENDCHAR
STARTCHAR one
ENCODING 49
SWIDTH 500 0
DWIDTH 16 0
BBX 9 23 4 0
BITMAP
0C00
1C00
7C00
DC00
1C00
1C00
1C00
1C00
1C00
1C00
1C00
1C00
1C00
1C00
1C00
1C00
1C00
1C00
1C00
1C00
1C00
3E00
FF80
ENDCHAR
STARTCHAR two
ENCODING 50
SWIDTH 500 0
DWIDTH 16 0
BBX 15 23 0 0
BITMAP
07E0
0FF0
1CF8
303C
203C
601C
401C
001C
001C
0018
0038
0030
0060
0060
00C0
0180
0300
0600
0C02
1806
3FFC
7FF8
FFF8
ENDCHAR
STARTCHAR three
ENCODING 51
SWIDTH 500 0
DWIDTH 16 0
BBX 12 23 2 0
BITMAP
0F80
3FC0
61E0
C0E0
80E0
00E0
00C0
00C0
0180
0300
07C0
1FE0
01F0
0070
0070
0030
0030
0030
0070
0060
E0C0
F380
7F00
ENDCHAR
STARTCHAR four
ENCODING 52
SWIDTH 500 0
DWIDTH 16 0
BBX 14 23 1 0
BITMAP
0060
00E0
00E0
01E0
0160
0360
0660
0460
0C60
1860
1060
3060
6060
4060
FFFC
FFFC
FFFC
0060
0060
0060
0060
0060
0060
ENDCHAR
STARTCHAR five
ENCODING 53
SWIDTH 500 0
DWIDTH 16 0
BBX 13 23 1 0
BITMAP
0FF8
1FF0
1FE0
1000
3000
2000
7E00
7F80
7FC0
07E0
01E0
00F0
0070
0070
0030
0030
0030
0030
0060
0060
E0C0
F380
7E00
ENDCHAR
STARTCHAR six
ENCODING 54
SWIDTH 500 0
DWIDTH 16 0
BBX 14 23 1 0
BITMAP
0078
01C0
0380
0F00
1E00
1C00
3800
7800
7000
73C0
F7F0
F878
E038
E03C
E01C
E01C
E01C
E01C
701C
7018
3838
1C60
07C0
ENDCHAR
STARTCHAR seven
ENCODING 55
SWIDTH 500 0
DWIDTH 16 0
BBX 14 23 1 0
BITMAP
3FFC
7FFC
6018
C018
8038
0030
0030
0030
0060
0060
0060
00E0
00C0
00C0
01C0
0180
0180
0180
0300
0300
0300
0700
0600
ENDCHAR
STARTCHAR eight
ENCODING 56
SWIDTH 500 0
DWIDTH 16 0
BBX 13 23 2 0
BITMAP
1F80
38E0
7070
E030
E030
E030
E070
F060
7CC0
3F00
1F80
0FC0
1BE0
71F0
60F0
E078
C078
C038
C038
E038
6070
70E0
1FC0
ENDCHAR
STARTCHAR nine
ENCODING 57
SWIDTH 500 0
DWIDTH 16 0
BBX 14 23 1 0
BITMAP
0780
18E0
3070
7038
6038
E01C
E01C
E01C
E01C
E01C
F01C
701C
783C
3EFC
0FB8
0038
0070
0070
00E0
01C0
0380
0F00
7800
ENDCHAR
STARTCHAR colon
ENCODING 58
SWIDTH 278 0
DWIDTH 9 0
BBX 4 15 2 0
BITMAP
60
F0
F0
60
00
00
00
00
00
00
00
60
F0
F0
60
ENDCHAR
STARTCHAR semicolon
ENCODING 59
SWIDTH 278 0
DWIDTH 9 0
BBX 4 18 2 -3
BITMAP
60
F0
F0
60
00
00
00
00
00
00
00
60
F0
F0
70
10
20
40
ENDCHAR
STARTCHAR less
ENCODING 60
SWIDTH 564 0
DWIDTH 19 0
BBX 16 18 1 0
BITMAP
0001
0007
001F
007C
01F0
07C0
1F00
7C00
F000
F000
7C00
1F00
07C0
01F0
007C
001F
0007
0001
ENDCHAR
STARTCHAR equal
ENCODING 61
SWIDTH 564 0
DWIDTH 19 0
BBX 16 9 1 4
BITMAP
FFFF
FFFF
0000
0000
0000
0000
0000
FFFF
FFFF
ENDCHAR
STARTCHAR greater
ENCODING 62
SWIDTH 564 0
DWIDTH 19 0
BBX 16 18 2 0
BITMAP
8000
E000
F800
3E00
0F80
03E0
00F8
003E
000F
000F
003E
00F8
03E0
0F80
3E00
F800
E000
8000
ENDCHAR
STARTCHAR question
ENCODING 63
SWIDTH 444 0
DWIDTH 14 0
BBX 11 23 2 0
BITMAP
1F00
7380
C1C0
C1C0
E0E0
E0E0
60E0
01C0
01C0
0180
0380
0300
0600
0400
0C00
0800
0800
0000
0000
0C00
1E00
1E00
0C00
ENDCHAR
STARTCHAR at
ENCODING 64
SWIDTH 921 0
DWIDTH 31 0
BBX 27 28 2 -5
BITMAP
001FF000
00F83C00
01E00600
07800300
0E000180
1C0000C0
1C0000C0
38078C60
701F5C60
701C7C20
70383820
E0703820
E0703020
E0707020
E0E07060
E0E07040
E0E0E0C0
E0E0E080
70E1E180
70777300
703C3E00
38000000
18000000
1C000000
0E000000
07800600
01F03C00
007FF000
ENDCHAR
STARTCHAR A
ENCODING 65
SWIDTH 722 0
DWIDTH 24 0
BBX 22 23 1 0
BITMAP
003000
003000
007000
007800
007800
00FC00
00DC00
009C00
018E00
010E00
030F00
030700
020700
060780
060380
0FFFC0
0C03C0
1801C0
1801E0
3001E0
3000F0
7000F0
FC03FC
ENDCHAR
STARTCHAR B
ENCODING 66
SWIDTH 667 0
DWIDTH 22 0
BBX 20 23 1 0
BITMAP
FFFE00
3E0F80
1C03C0
1C01C0
1C01E0
1C00E0
1C00E0
1C01E0
1C01C0
1C03C0
1C0F80
1FFE00
1C0780
1C01E0
1C00E0
1C00F0
1C0070
1C0070
1C00F0
1C00E0
1C01E0
3E07C0
FFFF00
ENDCHAR
STARTCHAR C
ENCODING 67
SWIDTH 667 0
DWIDTH 22 0
BBX 20 23 1 0
BITMAP
01FF10
0783F0
0E00F0
1C0070
380030
380030
700010
700010
F00000
F00000
F00000
F00000
F00000
F00000
F00000
700000
700000
380000
380010
1C0030
0E0060
0783C0
01FF00
ENDCHAR
STARTCHAR D
ENCODING 68
SWIDTH 722 0
DWIDTH 24 0
BBX 22 23 1 0
BITMAP
FFFE00
3E0780
1C01C0
1C00E0
1C0070
1C0070
1C0038
1C0038
1C003C
1C003C
1C003C
1C003C
1C003C
1C003C
1C003C
1C0038
1C0038
1C0070
1C0070
1C00E0
1C01C0
3E0780
FFFE00
ENDCHAR
STARTCHAR E
ENCODING 69
SWIDTH 611 0
DWIDTH 20 0
BBX 19 23 1 0
BITMAP
FFFFC0
3E03C0
1C00C0
1C0040
1C0040
1C0000
1C0000
1C0000
1C0100
1C0100
1C0300
1FFF00
1C0300
1C0100
1C0100
1C0000
1C0000
1C0020
1C0020
1C0060
1C00C0
3E03C0
FFFFC0
ENDCHAR
STARTCHAR F
ENCODING 70
SWIDTH 556 0
DWIDTH 18 0
BBX 17 23 1 0
BITMAP
FFFF80
3E0780
1C0180
1C0080
1C0080
1C0000
1C0000
1C0000
1C0200
1C0200
1C0600
1FFE00
1C0600
1C0200
1C0200
1C0000
1C0000
1C0000
1C0000
1C0000
1C0000
3E0000
FF8000
ENDCHAR
STARTCHAR G
ENCODING 71
SWIDTH 722 0
DWIDTH 24 0
BBX 22 23 1 0
BITMAP
01FF30
0787F0
0E00F0
1C0070
380030
380030
700010
700000
F00000
F00000
F00000
F003FC
F000F8
F00070
F00070
700070
700070
380070
380070
1C0070
0E0070
0781E0
01FF80
ENDCHAR
STARTCHAR H
ENCODING 72
SWIDTH 722 0
DWIDTH 24 0
BBX 22 23 1 0
BITMAP
FF87FC
3E01F0
1C00E0
1C00E0
1C00E0
1C00E0
1C00E0
1C00E0
1C00E0
1C00E0
1C00E0
1FFFE0
1C00E0
1C00E0
1C00E0
1C00E0
1C00E0
1C00E0
1C00E0
1C00E0
1C00E0
3E01F0
FF87FC
ENDCHAR
STARTCHAR I
ENCODING 73
SWIDTH 333 0
DWIDTH 11 0
BBX 9 23 1 0
BITMAP
FF80
3E00
1C00
1C00
1C00
1C00
1C00
1C00
1C00
1C00
1C00
1C00
1C00
1C00
1C00
1C00
1C00
1C00
1C00
1C00
1C00
3E00
FF80
ENDCHAR
STARTCHAR J
ENCODING 74
SWIDTH 389 0
DWIDTH 13 0
BBX 12 23 1 0
BITMAP
1FF0
07C0
0380
0380
0380
0380
0380
0380
0380
0380
0380
0380
0380
0380
0380
0380
0380
0380
0380
C380
E300
E700
7C00
ENDCHAR
STARTCHAR K
ENCODING 75
SWIDTH 722 0
DWIDTH 24 0
BBX 23 23 1 0
BITMAP
FFC7F8
3E01E0
1C0180
1C0300
1C0600
1C0C00
1C1800
1C3000
1C6000
1CC000
1FC000
1FE000
1FF000
1E7800
1C3C00
1C1E00
1C0F00
1C0780
1C03C0
1C01E0
1C00F0
3E00F8
FFC7FE
ENDCHAR
STARTCHAR L
ENCODING 76
SWIDTH 611 0
DWIDTH 20 0
BBX 19 23 1 0
BITMAP
FF8000
3E0000
1C0000
1C0000
1C0000
1C0000
1C0000
1C0000
1C0000
1C0000
1C0000
1C0000
1C0000
1C0000
1C0000
1C0000
1C0000
1C0020
1C0020
1C0060
1C00C0
3E03C0
FFFFC0
ENDCHAR
STARTCHAR M
ENCODING 77
SWIDTH 889 0
DWIDTH 30 0
BBX 28 23 1 0
BITMAP
FC0007F0
3E0007C0
1E000F80
1F000F80
1F000B80
17001B80
17801B80
13803380
13C03380
13C02380
11E06380
11E06380
10E0C380
10F0C380
10708380
10798380
10790380
103D0380
103F0380
101E0380
101E0380
380C07C0
FE0C1FF0
ENDCHAR
STARTCHAR N
ENCODING 78
SWIDTH 722 0
DWIDTH 24 0
BBX 22 23 1 0
BITMAP
F801FC
3C0070
1E0020
1F0020
1F0020
178020
13C020
13C020
11E020
10F020
10F820
107820
103C20
101E20
101F20
100F20
1007A0
1003E0
1001E0
1001E0
1000E0
380060
FE0020
ENDCHAR
STARTCHAR O
ENCODING 79
SWIDTH 722 0
DWIDTH 24 0
BBX 22 23 1 0
BITMAP
01FE00
078780
0E01C0
1C00E0
380070
380070
700038
700038
F0003C
F0003C
F0003C
F0003C
F0003C
F0003C
F0003C
700038
700038
380070
380070
1C00E0
0E01C0
078780
01FE00
ENDCHAR
STARTCHAR P
ENCODING 80
SWIDTH 556 0
DWIDTH 18 0
BBX 17 23 1 0
BITMAP
FFF800
3C3E00
1C0F00
1C0700
1C0780
1C0380
1C0380
1C0380
1C0780
1C0700
1C0F00
1C3E00
1FF000
1C0000
1C0000
1C0000
1C0000
1C0000
1C0000
1C0000
1C0000
3E0000
FF8000
ENDCHAR
STARTCHAR Q
ENCODING 81
SWIDTH 722 0
DWIDTH 24 0
BBX 22 29 1 -6
BITMAP
01FE00
078780
0E01C0
1C00E0
380070
380070
700038
700038
F0003C
F0003C
F0003C
F0003C
F0003C
F0003C
F0003C
700038
700038
380070
380070
1C00E0
0E01C0
078780
01FE00
007C00
003E00
001F00
000F80
0003E0
00007C
ENDCHAR
STARTCHAR R
ENCODING 82
SWIDTH 667 0
DWIDTH 22 0
BBX 21 23 1 0
BITMAP
FFF800
3C3E00
1C0F00
1C0780
1C0780
1C0380
1C0380
1C0380
1C0780
1C0700
1C1E00
1FF800
1CF000
1C7800
1C3C00
1C3C00
1C1E00
1C0F00
1C0F80
1C0780
1C03C0
3E01E0
FF81F8
ENDCHAR
STARTCHAR S
ENCODING 83
SWIDTH 556 0
DWIDTH 18 0
BBX 15 23 1 0
BITMAP
07E4
1C3C
381C
700C
7004
7006
7800
7C00
3E00
1F80
0FE0
07F0
01F8
007C
003E
001E
800E
800E
C00E
E00C
701C
7C78
67F0
ENDCHAR
STARTCHAR T
ENCODING 84
SWIDTH 611 0
DWIDTH 20 0
BBX 19 23 1 0
BITMAP
FFFFE0
F0E1E0
C0E060
C0E060
80E020
80E020
00E000
00E000
00E000
00E000
00E000
00E000
00E000
00E000
00E000
00E000
00E000
00E000
00E000
00E000
00E000
01F000
07FC00
ENDCHAR
STARTCHAR U
ENCODING 85
SWIDTH 722 0
DWIDTH 24 0
BBX 22 23 1 0
BITMAP
FF81FC
3E0070
1C0020
1C0020
1C0020
1C0020
1C0020
1C0020
1C0020
1C0020
1C0020
1C0020
1C0020
1C0020
1C0020
1C0020
1C0020
1C0020
1E0060
0E0040
0F00C0
07C380
01FE00
ENDCHAR
STARTCHAR V
ENCODING 86
SWIDTH 722 0
DWIDTH 23 0
BBX 22 23 1 0
BITMAP
FF01FC
7C0070
3C0060
1E0040
1E00C0
0E00C0
0F0080
0F0180
070180
078100
038300
03C300
03C200
01C600
01E600
00E400
00EC00
007C00
007800
007800
003800
003000
001000
ENDCHAR
STARTCHAR W
ENCODING 87
SWIDTH 944 0
DWIDTH 32 0
BBX 31 23 1 0
BITMAP
FF3FE0FE
7C0F8078
3C070030
1C078030
1E078060
1E038060
0E03C060
0F03C0C0
0703E0C0
0787E0C0
0786E180
0384F180
03CCF180
03CC7300
01D87B00
01D83B00
01F83E00
00F03E00
00F01C00
00E01C00
00601C00
00600800
00400800
ENDCHAR
STARTCHAR X
ENCODING 88
SWIDTH 722 0
DWIDTH 24 0
BBX 22 23 1 0
BITMAP
FFC3FC
3F00F0
1F00E0
0F00C0
078180
078300
03C600
01E600
01EC00
00F800
007800
007800
007C00
00DE00
019E00
018F00
030F80
060780
0E03C0
0C03E0
1801E0
3801F0
FE07FC
ENDCHAR
STARTCHAR Y
ENCODING 89
SWIDTH 722 0
DWIDTH 24 0
BBX 22 23 1 0
BITMAP
FFC0FC
3F0038
1E0030
0F0060
0F80C0
078080
03C180
03C300
01E300
00F600
00FC00
007C00
003800
003800
003800
003800
003800
003800
003800
003800
003800
007C00
01FF00
ENDCHAR
STARTCHAR Z
ENCODING 90
SWIDTH 611 0
DWIDTH 20 0
BBX 19 23 1 0
BITMAP
3FFFE0
3803C0
600780
600780
400F00
401E00
001E00
003C00
007800
007800
00F000
01E000
01E000
03C000
03C000
078000
0F0000
0F0020
1E0020
3C0060
3C0060
7801C0
FFFFC0
ENDCHAR
STARTCHAR bracketleft
ENCODING 91
SWIDTH 333 0
DWIDTH 11 0
BBX 7 28 3 -5
BITMAP
FE
F0
E0
E0
E0
E0
E0
E0
E0
E0
E0
E0
E0
E0
E0
E0
E0
E0
E0
E0
E0
E0
E0
E0
E0
E0
F0
FE
ENDCHAR
STARTCHAR backslash
ENCODING 92
SWIDTH 278 0
DWIDTH 9 0
BBX 13 23 -2 0
BITMAP
C000
E000
6000
7000
3000
3800
1800
1C00
0C00
0E00
0600
0700
0300
0380
0180
01C0
00C0
00E0
0060
0070
0030
0038
0018
ENDCHAR
STARTCHAR bracketright
ENCODING 93
SWIDTH 333 0
DWIDTH 11 0
BBX 7 28 1 -5
BITMAP
FE
1E
0E
0E
0E
0E
0E
0E
0E
0E
0E
0E
0E
0E
0E
0E
0E
0E
0E
0E
0E
0E
0E
0E
0E
0E
1E
FE
ENDCHAR
STARTCHAR asciicircum
ENCODING 94
SWIDTH 469 0
DWIDTH 16 0
BBX 13 13 1 10
BITMAP
0700
0700
0F80
0D80
18C0
18C0
3060
3060
7070
6030
E038
C018
C018
ENDCHAR
STARTCHAR underscore
ENCODING 95
SWIDTH 500 0
DWIDTH 17 0
BBX 17 2 0 -5
BITMAP
FFFF80
FFFF80
ENDCHAR
STARTCHAR grave
ENCODING 96
SWIDTH 333 0
DWIDTH 11 0
BBX 7 6 1 17
BITMAP
C0
E0
70
18
0C
06
ENDCHAR
STARTCHAR a
ENCODING 97
SWIDTH 444 0
DWIDTH 15 0
BBX 13 15 1 0
BITMAP
1F80
31C0
70E0
70E0
60E0
03E0
0EE0
18E0
30E0
60E0
E0E0
E1E0
F2E8
7EF8
3C70
ENDCHAR
STARTCHAR b
ENCODING 98
SWIDTH 500 0
DWIDTH 16 0
BBX 15 23 0 0
BITMAP
1800
F800
3800
3800
3800
3800
3800
3800
39F0
3BF8
3C7C
381C
381E
380E
380E
380E
380E
380E
380C
381C
3818
3C70
0FE0
ENDCHAR
STARTCHAR c
ENCODING 99
SWIDTH 444 0
DWIDTH 15 0
BBX 12 15 1 0
BITMAP
0F80
38C0
70E0
60E0
E060
C000
C000
C000
C000
E000
E010
7030
7C60
3FC0
1F00
ENDCHAR
STARTCHAR d
ENCODING 100
SWIDTH 500 0
DWIDTH 16 0
BBX 15 23 1 0
BITMAP
0018
00F8
0038
0038
0038
0038
0038
0038
0FB8
18F8
3078
7038
6038
E038
E038
E038
E038
E038
F038
7078
78F8
3FBE
0F30
ENDCHAR
STARTCHAR e
ENCODING 101
SWIDTH 444 0
DWIDTH 15 0
BBX 12 15 1 0
BITMAP
0F80
39C0
60E0
6070
C070
FFF0
C000
C000
C000
E000
E010
7030
7C60
3FC0
0F00
ENDCHAR
STARTCHAR f
ENCODING 102
SWIDTH 333 0
DWIDTH 11 0
BBX 12 23 0 0
BITMAP
03E0
0670
0C70
0C30
1C00
1C00
1C00
1C00
FFC0
1C00
1C00
1C00
1C00
1C00
1C00
1C00
1C00
1C00
1C00
1C00
1C00
3E00
FF80
ENDCHAR
STARTCHAR g
ENCODING 103
SWIDTH 500 0
DWIDTH 16 0
BBX 14 22 1 -7
BITMAP
0FC0
18FC
307C
7030
7030
7030
7030
3870
1CE0
0F80
1800
3000
7800
7FE0
3FF8
1FFC
600C
C00C
C01C
F038
7FE0
1F80
ENDCHAR
STARTCHAR h
ENCODING 104
SWIDTH 500 0
DWIDTH 16 0
BBX 16 23 0 0
BITMAP
1800
F800
3800
3800
3800
3800
3800
3800
39F0
3BF8
3E3C
3C1C
381C
381C
381C
381C
381C
381C
381C
381C
381C
381C
FE7F
ENDCHAR
STARTCHAR i
ENCODING 105
SWIDTH 278 0
DWIDTH 9 0
BBX 7 23 1 0
BITMAP
38
38
38
00
00
00
00
00
38
F8
38
38
38
38
38
38
38
38
38
38
38
38
FE
ENDCHAR
STARTCHAR j
ENCODING 106
SWIDTH 278 0
DWIDTH 9 0
BBX 8 30 -1 -7
BITMAP
07
07
07
00
00
00
00
00
03
1F
07
07
07
07
07
07
07
07
07
07
07
07
07
07
07
07
06
C6
EC
78
ENDCHAR
STARTCHAR k
ENCODING 107
SWIDTH 500 0
DWIDTH 16 0
BBX 16 23 0 0
BITMAP
1800
F800
3800
3800
3800
3800
3800
3800
38FE
3870
3860
38C0
3980
3F00
3E00
3F00
3B80
39C0
38E0
38F0
3878
383C
FE7F
ENDCHAR
STARTCHAR l
ENCODING 108
SWIDTH 278 0
DWIDTH 9 0
BBX 7 23 1 0
BITMAP
18
F8
38
38
38
38
38
38
38
38
38
38
38
38
38
38
38
38
38
38
38
38
FE
ENDCHAR
STARTCHAR m
ENCODING 109
SWIDTH 778 0
DWIDTH 26 0
BBX 25 15 0 0
BITMAP
18F07800
FBF9FC00
3E3F1E00
3C1E0E00
381C0E00
381C0E00
381C0E00
381C0E00
381C0E00
381C0E00
381C0E00
381C0E00
381C0E00
381C0E00
FE7F3F80
ENDCHAR
STARTCHAR n
ENCODING 110
SWIDTH 500 0
DWIDTH 16 0
BBX 16 15 0 0
BITMAP
18F0
FBF8
3C3C
381C
381C
381C
381C
381C
381C
381C
381C
381C
381C
381C
FE7F
ENDCHAR
STARTCHAR o
ENCODING 111
SWIDTH 500 0
DWIDTH 16 0
BBX 14 15 1 0
BITMAP
0780
18E0
3070
7038
6038
E01C
E01C
E01C
E01C
E01C
7018
7038
3830
1C60
0780
ENDCHAR
STARTCHAR p
ENCODING 112
SWIDTH 500 0
DWIDTH 17 0
BBX 15 22 0 -7
BITMAP
19E0
FBF8
3C7C
381C
381E
380E
380E
380E
380E
380E
380C
381C
3C18
3E70
3BC0
3800
3800
3800
3800
3800
3800
FF00
ENDCHAR
STARTCHAR q
ENCODING 113
SWIDTH 500 0
DWIDTH 17 0
BBX 15 22 1 -7
BITMAP
0FC8
1C78
3038
7038
6038
E038
E038
E038
E038
E038
F038
7078
78F8
3FB8
1F38
0038
0038
0038
0038
0038
0038
01FE
ENDCHAR
STARTCHAR r
ENCODING 114
SWIDTH 333 0
DWIDTH 11 0
BBX 10 15 1 0
BITMAP
1980
FBC0
3FC0
3C00
3800
3800
3800
3800
3800
3800
3800
3800
3800
3800
FE00
ENDCHAR
STARTCHAR s
ENCODING 115
SWIDTH 389 0
DWIDTH 13 0
BBX 10 15 1 0
BITMAP
3E80
6380
C180
C080
E080
F000
7C00
3F00
0F80
03C0
81C0
80C0
C0C0
E180
BF00
ENDCHAR
STARTCHAR t
ENCODING 116
SWIDTH 278 0
DWIDTH 9 0
BBX 9 19 0 0
BITMAP
0800
0800
1800
3800
FF00
3800
3800
3800
3800
3800
3800
3800
3800
3800
3800
3800
3880
3F00
1C00
ENDCHAR
STARTCHAR u
ENCODING 117
SWIDTH 500 0
DWIDTH 17 0
BBX 16 15 0 0
BITMAP
F87C
381C
381C
381C
381C
381C
381C
381C
381C
381C
381C
383C
3C5C
1FDF
0F8C
ENDCHAR
STARTCHAR v
ENCODING 118
SWIDTH 500 0
DWIDTH 17 0
BBX 15 15 1 0
BITMAP
FE3E
780C
3808
3C18
1C18
1C10
0E30
0E20
0760
0740
07C0
03C0
0380
0180
0100
ENDCHAR
STARTCHAR w
ENCODING 119
SWIDTH 722 0
DWIDTH 24 0
BBX 21 15 1 0
BITMAP
FDFC78
707030
707030
383020
383860
183840
1C7840
1C5CC0
0CCC80
0E8F80
0F8F00
070700
070700
030600
020200
ENDCHAR
STARTCHAR x
ENCODING 120
SWIDTH 500 0
DWIDTH 17 0
BBX 14 15 1 0
BITMAP
FCF8
3860
3CC0
1C80
1E80
0F00
0700
0780
0F80
0BC0
19E0
10E0
3070
6078
F0FC
ENDCHAR
STARTCHAR y
ENCODING 121
SWIDTH 500 0
DWIDTH 17 0
BBX 15 22 1 -7
BITMAP
FE1E
780C
380C
3C08
1C18
1E18
0E10
0E30
0720
0720
03E0
03C0
01C0
0180
0180
0100
0100
0300
0200
3E00
7C00
3800
ENDCHAR
STARTCHAR z
ENCODING 122
SWIDTH 444 0
DWIDTH 15 0
BBX 13 15 1 0
BITMAP
7FF0
60F0
40E0
41E0
03C0
0380
0780
0700
0E00
1E00
1C08
3808
7808
7018
FFF0
ENDCHAR
STARTCHAR braceleft
ENCODING 123
SWIDTH 480 0
DWIDTH 16 0
BBX 8 28 4 -5
BITMAP
0F
1C
38
38
38
38
38
38
38
38
38
38
38
30
E0
30
38
38
38
38
38
38
38
38
38
18
1C
0F
ENDCHAR
STARTCHAR bar
ENCODING 124
SWIDTH 200 0
DWIDTH 7 0
BBX 2 23 2 0
BITMAP
C0
C0
C0
C0
C0
C0
C0
C0
C0
C0
C0
C0
C0
C0
C0
C0
C0
C0
C0
C0
C0
C0
C0
ENDCHAR
STARTCHAR braceright
ENCODING 125
SWIDTH 480 0
DWIDTH 16 0
BBX 8 28 4 -5
BITMAP
F0
38
1C
1C
1C
1C
1C
1C
1C
1C
1C
1C
1C
0C
07
0C
1C
1C
1C
1C
1C
1C
1C
1C
1C
18
38
F0
ENDCHAR
STARTCHAR asciitilde
ENCODING 126
SWIDTH 541 0
DWIDTH 18 0
BBX 16 4 1 7
BITMAP
3E03
7F87
E1FE
C07C
ENDCHAR
STARTCHAR space
ENCODING 160
SWIDTH 250 0
DWIDTH 8 0
BBX 1 1 0 0
BITMAP
00
ENDCHAR
STARTCHAR exclamdown
ENCODING 161
SWIDTH 333 0
DWIDTH 11 0
BBX 4 22 3 -7
BITMAP
60
F0
F0
60
00
00
60
60
60
60
60
60
60
60
60
60
60
F0
F0
F0
F0
60
ENDCHAR
STARTCHAR cent
ENCODING 162
SWIDTH 500 0
DWIDTH 17 0
BBX 12 23 2 -4
BITMAP
0040
0040
0080
0080
0F80
38E0
7170
6170
E130
C300
C200
C200
E600
E400
7410
7C30
3FE0
1FC0
1F00
1000
3000
2000
2000
ENDCHAR
STARTCHAR sterling
ENCODING 163
SWIDTH 500 0
DWIDTH 17 0
BBX 15 23 1 0
BITMAP
01F0
0398
061C
061C
0E18
0E00
0E00
0E00
0E00
0E00
FFE0
FFE0
0F00
0700
0700
0700
0700
0600
0602
7E06
C7FC
CFF8
78F0
ENDCHAR
STARTCHAR currency
ENCODING 164
SWIDTH 500 0
DWIDTH 17 0
BBX 16 17 0 3
BITMAP
C7E3
FFFF
3E7C
781E
700E
E007
E007
C003
C003
C003
E007
E007
700E
781E
3E7C
FFFF
C7E3
ENDCHAR
STARTCHAR yen
ENCODING 165
SWIDTH 500 0
DWIDTH 17 0
BBX 17 23 0 0
BITMAP
FE1F80
780700
380600
3C0400
1C0C00
1E0800
0E1800
0F1000
073000
07A000
03E000
03C000
3FFE00
01C000
01C000
01C000
3FFE00
01C000
01C000
01C000
01C000
01C000
07F000
ENDCHAR
STARTCHAR brokenbar
ENCODING 166
SWIDTH 200 0
DWIDTH 7 0
BBX 2 23 2 0
BITMAP
C0
C0
C0
C0
C0
C0
C0
C0
C0
00
00
00
00
00
C0
C0
C0
C0
C0
C0
C0
C0
C0
ENDCHAR
STARTCHAR section
ENCODING 167
SWIDTH 500 0
DWIDTH 17 0
BBX 12 28 2 -5
BITMAP
1F80
31C0
61C0
61C0
7180
3800
3C00
1E00
0F00
3F80
63C0
C1E0
C0E0
C070
E030
7030
7830
3C60
1FC0
0F00
0780
03C0
01C0
18E0
3860
3860
38C0
1F80
ENDCHAR
STARTCHAR dieresis
ENCODING 168
SWIDTH 333 0
DWIDTH 11 0
BBX 9 3 1 18
BITMAP
E380
E380
E380
ENDCHAR
STARTCHAR copyright
ENCODING 169
SWIDTH 760 0
DWIDTH 25 0
BBX 22 23 1 0
BITMAP
00FC00
03FF00
0E01C0
180060
300030
600018
607F18
C1C70C
C3830C
C3010C
C7000C
C7000C
C7000C
C7000C
C7800C
438118
61E618
607C30
300030
180060
0E01C0
07FF00
01FC00
ENDCHAR
STARTCHAR ordfeminine
ENCODING 170
SWIDTH 276 0
DWIDTH 9 0
BBX 9 13 0 10
BITMAP
3C00
4E00
C600
C600
1E00
6600
C600
C600
EF80
7B00
0000
0000
FF00
ENDCHAR
STARTCHAR guillemotleft
ENCODING 171
SWIDTH 500 0
DWIDTH 17 0
BBX 13 13 1 1
BITMAP
0208
0618
0C30
1860
38E0
71C0
E380
71C0
38E0
1860
0C30
0618
0208
ENDCHAR
STARTCHAR logicalnot
ENCODING 172
SWIDTH 564 0
DWIDTH 18 0
BBX 16 9 1 4
BITMAP
FFFF
FFFF
0003
0003
0003
0003
0003
0003
0003
ENDCHAR
STARTCHAR hyphen
ENCODING 173
SWIDTH 333 0
DWIDTH 11 0
BBX 8 2 1 7
BITMAP
FF
FF
ENDCHAR
STARTCHAR registered
ENCODING 174
SWIDTH 760 0
DWIDTH 25 0
BBX 22 23 1 0
BITMAP
00FE00
03FF00
0E01C0
180060
300030
23FC18
60C718
C0C30C
C0C30C
C0C30C
C0C60C
C0F80C
C0DC0C
C0CC0C
C0CE0C
40C608
60C718
23E3D0
300030
180060
0E01C0
03FF00
00FC00
ENDCHAR
STARTCHAR macron
ENCODING 175
SWIDTH 333 0
DWIDTH 11 0
BBX 10 2 0 18
BITMAP
FFC0
FFC0
ENDCHAR
STARTCHAR degree
ENCODING 176
SWIDTH 400 0
DWIDTH 13 0
BBX 10 10 1 13
BITMAP
1E00
3F00
6180
C0C0
C0C0
C0C0
C0C0
6180
3F00
1E00
ENDCHAR
STARTCHAR plusminus
ENCODING 177
SWIDTH 564 0
DWIDTH 19 0
BBX 16 20 1 0
BITMAP
0180
0180
0180
0180
0180
0180
0180
FFFF
FFFF
0180
0180
0180
0180
0180
0180
0180
0180
0000
FFFF
FFFF
ENDCHAR
STARTCHAR twosuperior
ENCODING 178
SWIDTH 300 0
DWIDTH 10 0
BBX 9 14 0 9
BITMAP
3C00
4E00
8700
0300
0300
0700
0600
0C00
1800
1000
2000
4080
FF00
FE00
ENDCHAR
STARTCHAR threesuperior
ENCODING 179
SWIDTH 300 0
DWIDTH 10 0
BBX 9 14 0 9
BITMAP
3E00
4700
8300
0300
0300
0600
3C00
0700
0380
0180
0180
C180
E300
7E00
ENDCHAR
STARTCHAR acute
ENCODING 180
SWIDTH 333 0
DWIDTH 11 0
BBX 7 6 3 17
BITMAP
06
0E
1C
30
60
C0
ENDCHAR
STARTCHAR mu
ENCODING 181
SWIDTH 500 0
DWIDTH 17 0
BBX 16 22 0 -7
BITMAP
F87C
381C
381C
381C
381C
381C
381C
381C
381C
381C
381C
383C
3C7C
3FDF
2F98
2000
7000
7000
7000
7000
7000
2000
ENDCHAR
STARTCHAR paragraph
ENCODING 182
SWIDTH 453 0
DWIDTH 15 0
BBX 13 29 1 -6
BITMAP
07F8
1E20
3E20
7E20
7E20
FE20
FE20
FE20
FE20
7E20
7E20
3E20
1E20
0E20
0220
0220
0220
0220
0220
0220
0220
0220
0220
0220
0220
0220
0220
0220
0220
ENDCHAR
STARTCHAR periodcentered
ENCODING 183
SWIDTH 250 0
DWIDTH 8 0
BBX 4 4 2 7
BITMAP
60
F0
F0
60
ENDCHAR
STARTCHAR cedilla
ENCODING 184
SWIDTH 333 0
DWIDTH 11 0
BBX 6 7 2 -7
BITMAP
20
60
78
1C
0C
1C
F8
ENDCHAR
STARTCHAR onesuperior
ENCODING 185
SWIDTH 300 0
DWIDTH 10 0
BBX 6 14 2 9
BITMAP
30
F0
30
30
30
30
30
30
30
30
30
30
30
FC
ENDCHAR
STARTCHAR ordmasculine
ENCODING 186
SWIDTH 310 0
DWIDTH 10 0
BBX 9 13 0 10
BITMAP
3E00
6300
C380
C180
C180
C180
C180
E180
6300
3E00
0000
0000
FF80
ENDCHAR
STARTCHAR guillemotright
ENCODING 187
SWIDTH 500 0
DWIDTH 16 0
BBX 13 13 2 1
BITMAP
8200
C300
6180
30C0
38E0
1C70
0E38
1C70
38E0
30C0
6180
C300
8200
ENDCHAR
STARTCHAR onequarter
ENCODING 188
SWIDTH 750 0
DWIDTH 25 0
BBX 22 23 2 0
BITMAP
300060
F00060
3000C0
3001C0
300180
300300
300300
300600
300E00
300C10
301830
301870
303070
FC60F0
0061B0
00C130
01C230
018630
030C30
031FFC
060030
0C0030
0C0030
ENDCHAR
STARTCHAR onehalf
ENCODING 189
SWIDTH 750 0
DWIDTH 25 0
BBX 23 23 1 0
BITMAP
3000C0
F000C0
300180
300380
300300
300600
300600
300C00
301C00
3018F0
303138
30321C
30600C
FCE00C
00C01C
018018
038030
030060
060040
060080
0C0102
1803FC
1803F8
ENDCHAR
STARTCHAR threequarters
ENCODING 190
SWIDTH 750 0
DWIDTH 25 0
BBX 24 23 0 0
BITMAP
3E0018
470018
830030
030070
030060
0600C0
3C00C0
070180
038380
018304
01860C
C1861C
E30C1C
7E183C
00186C
00304C
00708C
00618C
00C30C
00C7FF
01800C
03000C
03000C
ENDCHAR
STARTCHAR questiondown
ENCODING 191
SWIDTH 444 0
DWIDTH 14 0
BBX 11 22 1 -7
BITMAP
0600
0F00
0F00
0600
0000
0200
0200
0600
0400
0C00
1800
3800
3000
7000
7000
E0C0
E0E0
E0E0
7060
7060
39C0
1F00
ENDCHAR
STARTCHAR Agrave
ENCODING 192
SWIDTH 722 0
DWIDTH 24 0
BBX 22 30 1 0
BITMAP
060000
070000
038000
00C000
006000
003000
000000
003000
003000
007000
007800
007800
00FC00
00DC00
009C00
018E00
010E00
030F00
030700
020700
060780
060380
0FFFC0
0C03C0
1801C0
1801E0
3001E0
3000F0
7000F0
FC03FC
ENDCHAR
STARTCHAR Aacute
ENCODING 193
SWIDTH 722 0
DWIDTH 24 0
BBX 22 30 1 0
BITMAP
000180
000380
000700
000C00
001800
003000
000000
003000
003000
007000
007800
007800
00FC00
00DC00
009C00
018E00
010E00
030F00
030700
020700
060780
060380
0FFFC0
0C03C0
1801C0
1801E0
3001E0
3000F0
7000F0
FC03FC
ENDCHAR
STARTCHAR Acircumflex
ENCODING 194
SWIDTH 722 0
DWIDTH 24 0
BBX 22 30 1 0
BITMAP
003000
007800
00FC00
01CE00
030300
020100
000000
003000
003000
007000
007800
007800
00FC00
00DC00
009C00
018E00
010E00
030F00
030700
020700
060780
060380
0FFFC0
0C03C0
1801C0
1801E0
3001E0
3000F0
7000F0
FC03FC
ENDCHAR
STARTCHAR Atilde
ENCODING 195
SWIDTH 722 0
DWIDTH 24 0
BBX 22 28 1 0
BITMAP
00E080
01F980
033F00
020E00
000000
003000
003000
007000
007800
007800
00FC00
00DC00
009C00
018E00
010E00
030F00
030700
020700
060780
060380
0FFFC0
0C03C0
1801C0
1801E0
3001E0
3000F0
7000F0
FC03FC
ENDCHAR
STARTCHAR Adieresis
ENCODING 196
SWIDTH 722 0
DWIDTH 24 0
BBX 22 28 1 0
BITMAP
01C700
01C700
01C700
000000
000000
003000
003000
007000
007800
007800
00FC00
00DC00
009C00
018E00
010E00
030F00
030700
020700
060780
060380
0FFFC0
0C03C0
1801C0
1801E0
3001E0
3000F0
7000F0
FC03FC
ENDCHAR
STARTCHAR Aring
ENCODING 197
SWIDTH 722 0
DWIDTH 24 0
BBX 22 30 1 0
BITMAP
007000
00F800
018C00
010400
018C00
00F800
007000
000000
003000
003000
007800
007800
00FC00
00DC00
009C00
018E00
010E00
030F00
030700
020700
060780
060380
0FFFC0
0C03C0
1801C0
1801E0
3001E0
3000F0
7000F0
FC03FC
ENDCHAR
STARTCHAR AE
ENCODING 198
SWIDTH 889 0
DWIDTH 30 0
BBX 28 23 1 0
BITMAP
00FFFFE0
001F81E0
001F0060
00370020
00370020
00670000
00670000
00470080
00C70080
00C70180
01870380
0187FF80
03070380
03070180
07FF0080
06070080
0C070000
0C070010
18070010
18070030
30070060
300F81E0
FE3FFFE0
ENDCHAR
STARTCHAR Ccedilla
ENCODING 199
SWIDTH 667 0
DWIDTH 22 0
BBX 20 30 1 -7
BITMAP
01FF10
0783F0
0E00F0
1C0070
380030
380030
700010
700010
F00000
F00000
F00000
F00000
F00000
F00000
F00000
700000
700000
380000
380010
1C0030
0E0060
0783C0
01FF00
004000
00C000
00F000
003800
001800
003800
01F000
ENDCHAR
STARTCHAR Egrave
ENCODING 200
SWIDTH 611 0
DWIDTH 20 0
BBX 19 30 1 0
BITMAP
030000
038000
01C000
006000
003000
001800
000000
FFFFC0
3E03C0
1C00C0
1C0040
1C0040
1C0000
1C0000
1C0000
1C0100
1C0100
1C0300
1FFF00
1C0300
1C0100
1C0100
1C0000
1C0000
1C0020
1C0020
1C0060
1C00C0
3E03C0
FFFFC0
ENDCHAR
STARTCHAR Eacute
ENCODING 201
SWIDTH 611 0
DWIDTH 20 0
BBX 19 30 1 0
BITMAP
000600
000E00
001C00
003000
006000
00C000
000000
FFFFC0
3E03C0
1C00C0
1C0040
1C0040
1C0000
1C0000
1C0000
1C0100
1C0100
1C0300
1FFF00
1C0300
1C0100
1C0100
1C0000
1C0000
1C0020
1C0020
1C0060
1C00C0
3E03C0
FFFFC0
ENDCHAR
STARTCHAR Ecircumflex
ENCODING 202
SWIDTH 611 0
DWIDTH 20 0
BBX 19 30 1 0
BITMAP
003000
007800
00FC00
01CE00
030300
020100
000000
FFFFC0
3E03C0
1C00C0
1C0040
1C0040
1C0000
1C0000
1C0000
1C0100
1C0100
1C0300
1FFF00
1C0300
1C0100
1C0100
1C0000
1C0000
1C0020
1C0020
1C0060
1C00C0
3E03C0
FFFFC0
ENDCHAR
STARTCHAR Edieresis
ENCODING 203
SWIDTH 611 0
DWIDTH 20 0
BBX 19 28 1 0
BITMAP
038E00
038E00
038E00
000000
000000
FFFFC0
3E03C0
1C00C0
1C0040
1C0040
1C0000
1C0000
1C0000
1C0100
1C0100
1C0300
1FFF00
1C0300
1C0100
1C0100
1C0000
1C0000
1C0020
1C0020
1C0060
1C00C0
3E03C0
FFFFC0
ENDCHAR
STARTCHAR Igrave
ENCODING 204
SWIDTH 333 0
DWIDTH 11 0
BBX 9 30 1 0
BITMAP
6000
7000
3800
0C00
0600
0300
0000
FF80
3E00
1C00
1C00
1C00
1C00
1C00
1C00
1C00
1C00
1C00
1C00
1C00
1C00
1C00
1C00
1C00
1C00
1C00
1C00
1C00
3E00
FF80
ENDCHAR
STARTCHAR Iacute
ENCODING 205
SWIDTH 333 0
DWIDTH 11 0
BBX 9 30 1 0
BITMAP
0180
0380
0700
0C00
1800
3000
0000
FF80
3E00
1C00
1C00
1C00
1C00
1C00
1C00
1C00
1C00
1C00
1C00
1C00
1C00
1C00
1C00
1C00
1C00
1C00
1C00
1C00
3E00
FF80
ENDCHAR
STARTCHAR Icircumflex
ENCODING 206
SWIDTH 333 0
DWIDTH 11 0
BBX 10 30 1 0
BITMAP
0C00
1E00
3F00
7380
C0C0
8040
0000
FF80
3E00
1C00
1C00
1C00
1C00
1C00
1C00
1C00
1C00
1C00
1C00
1C00
1C00
1C00
1C00
1C00
1C00
1C00
1C00
1C00
3E00
FF80
ENDCHAR
STARTCHAR Idieresis
ENCODING 207
SWIDTH 333 0
DWIDTH 11 0
BBX 9 28 1 0
BITMAP
E380
E380
E380
0000
0000
FF80
3E00
1C00
1C00
1C00
1C00
1C00
1C00
1C00
1C00
1C00
1C00
1C00
1C00
1C00
1C00
1C00
1C00
1C00
1C00
1C00
3E00
FF80
ENDCHAR
STARTCHAR Eth
ENCODING 208
SWIDTH 722 0
DWIDTH 24 0
BBX 22 23 1 0
BITMAP
FFFE00
3E0780
1C01C0
1C00E0
1C0070
1C0070
1C0038
1C0038
1C003C
1C003C
1C003C
FFC03C
FFC03C
1C003C
1C003C
1C0038
1C0038
1C0070
1C0070
1C00E0
1C01C0
3E0780
FFFE00
ENDCHAR
STARTCHAR Ntilde
ENCODING 209
SWIDTH 722 0
DWIDTH 24 0
BBX 22 29 1 0
BITMAP
00E080
01F980
033F00
020E00
000000
000000
F801FC
3C0070
1E0020
1F0020
1F0020
178020
13C020
13C020
11E020
10F020
10F820
107820
103C20
101E20
101F20
100F20
1007A0
1003E0
1001E0
1001E0
1000E0
380060
FE0020
ENDCHAR
STARTCHAR Ograve
ENCODING 210
SWIDTH 722 0
DWIDTH 24 0
BBX 22 30 1 0
BITMAP
030000
038000
01C000
006000
003000
001800
000000
01FE00
078780
0E01C0
1C00E0
380070
380070
700038
700038
F0003C
F0003C
F0003C
F0003C
F0003C
F0003C
F0003C
700038
700038
380070
380070
1C00E0
0E01C0
078780
01FE00
ENDCHAR
STARTCHAR Oacute
ENCODING 211
SWIDTH 722 0
DWIDTH 24 0
BBX 22 30 1 0
BITMAP
000180
000380
000700
000C00
001800
003000
000000
01FE00
078780
0E01C0
1C00E0
380070
380070
700038
700038
F0003C
F0003C
F0003C
F0003C
F0003C
F0003C
F0003C
700038
700038
380070
380070
1C00E0
0E01C0
078780
01FE00
ENDCHAR
STARTCHAR Ocircumflex
ENCODING 212
SWIDTH 722 0
DWIDTH 24 0
BBX 22 30 1 0
BITMAP
003000
007800
00FC00
01CE00
030300
020100
000000
01FE00
078780
0E01C0
1C00E0
380070
380070
700038
700038
F0003C
F0003C
F0003C
F0003C
F0003C
F0003C
F0003C
700038
700038
380070
380070
1C00E0
0E01C0
078780
01FE00
ENDCHAR
STARTCHAR Otilde
ENCODING 213
SWIDTH 722 0
DWIDTH 24 0
BBX 22 28 1 0
BITMAP
00E080
01F980
033F00
020E00
000000
01FE00
078780
0E01C0
1C00E0
380070
380070
700038
700038
F0003C
F0003C
F0003C
F0003C
F0003C
F0003C
F0003C
700038
700038
380070
380070
1C00E0
0E01C0
078780
01FE00
ENDCHAR
STARTCHAR Odieresis
ENCODING 214
SWIDTH 722 0
DWIDTH 24 0
BBX 22 28 1 0
BITMAP
01C700
01C700
01C700
000000
000000
01FE00
078780
0E01C0
1C00E0
380070
380070
700038
700038
F0003C
F0003C
F0003C
F0003C
F0003C
F0003C
F0003C
700038
700038
380070
380070
1C00E0
0E01C0
078780
01FE00
ENDCHAR
STARTCHAR multiply
ENCODING 215
SWIDTH 564 0
DWIDTH 19 0
BBX 16 16 1 0
BITMAP
4002
E007
700E
381C
1C38
0E70
07E0
03C0
03C0
07E0
0E70
1C38
381C
700E
E007
4002
ENDCHAR
STARTCHAR Oslash
ENCODING 216
SWIDTH 722 0
DWIDTH 24 0
BBX 22 27 1 -2
BITMAP
000010
000030
01FE60
0787C0
0E01C0
1C01E0
380370
380270
700638
700C38
F0083C
F0183C
F0303C
F0603C
F0403C
F0C03C
F0803C
718038
730038
3A0070
3E0070
1C00E0
1E01C0
378780
21FE00
600000
400000
ENDCHAR
STARTCHAR Ugrave
ENCODING 217
SWIDTH 722 0
DWIDTH 24 0
BBX 22 30 1 0
BITMAP
00C000
00E000
007000
001800
000C00
000600
000000
FF81FC
3E0070
1C0020
1C0020
1C0020
1C0020
1C0020
1C0020
1C0020
1C0020
1C0020
1C0020
1C0020
1C0020
1C0020
1C0020
1C0020
1C0060
1E0060
0E0040
0F00C0
07C380
01FE00
ENDCHAR
STARTCHAR Uacute
ENCODING 218
SWIDTH 722 0
DWIDTH 24 0
BBX 22 30 1 0
BITMAP
000180
000380
000700
000C00
001800
003000
000000
FF81FC
3E0070
1C0020
1C0020
1C0020
1C0020
1C0020
1C0020
1C0020
1C0020
1C0020
1C0020
1C0020
1C0020
1C0020
1C0020
1C0020
1C0060
1E0060
0E0040
0F00C0
07C380
01FE00
ENDCHAR
STARTCHAR Ucircumflex
ENCODING 219
SWIDTH 722 0
DWIDTH 24 0
BBX 22 30 1 0
BITMAP
001800
003C00
007E00
00E700
018180
010080
000000
FF81FC
3E0070
1C0020
1C0020
1C0020
1C0020
1C0020
1C0020
1C0020
1C0020
1C0020
1C0020
1C0020
1C0020
1C0020
1C0020
1C0020
1C0060
1E0060
0E0040
0F00C0
07C380
01FE00
ENDCHAR
STARTCHAR Udieresis
ENCODING 220
SWIDTH 722 0
DWIDTH 24 0
BBX 22 28 1 0
BITMAP
01C700
01C700
01C700
000000
000000
FF81FC
3E0070
1C0020
1C0020
1C0020
1C0020
1C0020
1C0020
1C0020
1C0020
1C0020
1C0020
1C0020
1C0020
1C0020
1C0020
1C0020
1C0060
1E0060
0E0040
0F00C0
07C380
01FE00
ENDCHAR
STARTCHAR Yacute
ENCODING 221
SWIDTH 722 0
DWIDTH 24 0
BBX 22 30 1 0
BITMAP
0000C0
0001C0
000380
000600
000C00
001800
000000
FFC0FC
3F0038
1E0030
0F0060
0F80C0
078080
03C180
03C300
01E300
00F600
00FC00
007C00
003800
003800
003800
003800
003800
003800
003800
003800
003800
007C00
01FF00
ENDCHAR
STARTCHAR Thorn
ENCODING 222
SWIDTH 556 0
DWIDTH 19 0
BBX 18 23 1 0
BITMAP
FF8000
3E0000
1C0000
1C0000
1C0000
1FFC00
1C1F00
1C0780
1C0380
1C03C0
1C01C0
1C01C0
1C01C0
1C03C0
1C0380
1C0780
1C1F00
1FFC00
1C0000
1C0000
1C0000
3E0000
FF8000
ENDCHAR
STARTCHAR germandbls
ENCODING 223
SWIDTH 500 0
DWIDTH 17 0
BBX 15 23 1 0
BITMAP
07C0
0C70
1838
1838
3838
3838
3838
3838
3830
3860
39C0
3878
381C
381E
380E
380E
380E
380E
380E
3B0C
3B9C
3B98
F9F0
ENDCHAR
STARTCHAR agrave
ENCODING 224
SWIDTH 444 0
DWIDTH 15 0
BBX 13 23 1 0
BITMAP
1800
1C00
0E00
0300
0180
00C0
0000
0000
1F80
31C0
70E0
70E0
60E0
03E0
0EE0
18E0
30E0
60E0
E0E0
E1E0
F2E8
7EF8
3C70
ENDCHAR
STARTCHAR aacute
ENCODING 225
SWIDTH 444 0
DWIDTH 15 0
BBX 13 23 1 0
BITMAP
00C0
01C0
0380
0600
0C00
1800
0000
0000
1F80
31C0
70E0
70E0
60E0
03E0
0EE0
18E0
30E0
60E0
E0E0
E1E0
F2E8
7EF8
3C70
ENDCHAR
STARTCHAR acircumflex
ENCODING 226
SWIDTH 444 0
DWIDTH 15 0
BBX 13 23 1 0
BITMAP
0600
0F00
1F80
39C0
6060
4020
0000
0000
1F80
31C0
70E0
70E0
60E0
03E0
0EE0
18E0
30E0
60E0
E0E0
E1E0
F2E8
7EF8
3C70
ENDCHAR
STARTCHAR atilde
ENCODING 227
SWIDTH 444 0
DWIDTH 15 0
BBX 13 21 1 0
BITMAP
1C10
3E30
63E0
41C0
0000
0000
1F80
31C0
70E0
70E0
60E0
03E0
0EE0
18E0
30E0
60E0
E0E0
E1E0
F2E8
7EF8
3C70
ENDCHAR
STARTCHAR adieresis
ENCODING 228
SWIDTH 444 0
DWIDTH 15 0
BBX 13 21 1 0
BITMAP
38E0
38E0
38E0
0000
0000
0000
1F80
31C0
70E0
70E0
60E0
03E0
0EE0
18E0
30E0
60E0
E0E0
E1E0
F2E8
7EF8
3C70
ENDCHAR
STARTCHAR aring
ENCODING 229
SWIDTH 444 0
DWIDTH 15 0
BBX 13 23 1 0
BITMAP
0700
0F80
18C0
1040
18C0
0F80
0700
0000
1F80
31C0
70E0
70E0
60E0
03E0
0EE0
18E0
30E0
60E0
E0E0
E1E0
F2E8
7EF8
3C70
ENDCHAR
STARTCHAR ae
ENCODING 230
SWIDTH 667 0
DWIDTH 22 0
BBX 19 15 1 0
BITMAP
1F9F00
31F9C0
70E0C0
70E0E0
60E0E0
03FFE0
0EE000
18E000
30E000
60E000
E0E020
E1F060
F378C0
7E3F80
3C1F00
ENDCHAR
STARTCHAR ccedilla
ENCODING 231
SWIDTH 444 0
DWIDTH 15 0
BBX 12 22 1 -7
BITMAP
0F80
38C0
70E0
60E0
E060
C000
C000
C000
C000
E000
E010
7030
7C60
3FC0
0F00
0400
0C00
0F00
0380
0180
0380
1F00
ENDCHAR
STARTCHAR egrave
ENCODING 232
SWIDTH 444 0
DWIDTH 15 0
BBX 12 23 1 0
BITMAP
3000
3800
1C00
0600
0300
0180
0000
0000
0F80
39C0
60E0
6070
C070
FFF0
C000
C000
C000
E000
E010
7030
7C60
3FC0
0F00
ENDCHAR
STARTCHAR eacute
ENCODING 233
SWIDTH 444 0
DWIDTH 15 0
BBX 12 23 1 0
BITMAP
0180
0380
0700
0C00
1800
3000
0000
0000
0F80
39C0
60E0
6070
C070
FFF0
C000
C000
C000
E000
E010
7030
7C60
3FC0
0F00
ENDCHAR
STARTCHAR ecircumflex
ENCODING 234
SWIDTH 444 0
DWIDTH 15 0
BBX 12 23 1 0
BITMAP
0600
0F00
1F80
39C0
6060
4020
0000
0000
0F80
39C0
60E0
6070
C070
FFF0
C000
C000
C000
E000
E010
7030
7C60
3FC0
0F00
ENDCHAR
STARTCHAR edieresis
ENCODING 235
SWIDTH 444 0
DWIDTH 15 0
BBX 12 21 1 0
BITMAP
38E0
38E0
38E0
0000
0000
0000
0F80
39C0
60E0
6070
C070
FFF0
C000
C000
C000
E000
E010
7030
7C60
3FC0
0F00
ENDCHAR
STARTCHAR igrave
ENCODING 236
SWIDTH 278 0
DWIDTH 9 0
BBX 7 23 1 0
BITMAP
C0
E0
70
18
0C
06
00
00
18
F8
38
38
38
38
38
38
38
38
38
38
38
38
FE
ENDCHAR
STARTCHAR iacute
ENCODING 237
SWIDTH 278 0
DWIDTH 9 0
BBX 7 23 1 0
BITMAP
06
0E
1C
30
60
C0
00
00
18
F8
38
38
38
38
38
38
38
38
38
38
38
38
FE
ENDCHAR
STARTCHAR icircumflex
ENCODING 238
SWIDTH 278 0
DWIDTH 9 0
BBX 10 23 0 0
BITMAP
0C00
1E00
3F00
7380
C0C0
8040
0000
0000
0C00
7C00
1C00
1C00
1C00
1C00
1C00
1C00
1C00
1C00
1C00
1C00
1C00
1C00
7F00
ENDCHAR
STARTCHAR idieresis
ENCODING 239
SWIDTH 278 0
DWIDTH 9 0
BBX 9 21 0 0
BITMAP
E380
E380
E380
0000
0000
0000
0C00
7C00
1C00
1C00
1C00
1C00
1C00
1C00
1C00
1C00
1C00
1C00
1C00
1C00
7F00
ENDCHAR
STARTCHAR eth
ENCODING 240
SWIDTH 500 0
DWIDTH 17 0
BBX 14 23 1 0
BITMAP
1000
3800
1C70
0FF0
0F00
7F80
31C0
00E0
07F0
18F0
3078
7038
603C
E01C
E01C
E01C
E01C
E01C
7018
7038
3830
1C60
0780
ENDCHAR
STARTCHAR ntilde
ENCODING 241
SWIDTH 500 0
DWIDTH 16 0
BBX 16 21 0 0
BITMAP
0E08
1F18
31F0
20E0
0000
0000
18F0
FBF8
3E3C
3C1C
381C
381C
381C
381C
381C
381C
381C
381C
381C
381C
FE7F
ENDCHAR
STARTCHAR ograve
ENCODING 242
SWIDTH 500 0
DWIDTH 16 0
BBX 14 23 1 0
BITMAP
1800
1C00
0E00
0300
0180
00C0
0000
0000
0780
18E0
3070
7038
6038
E01C
E01C
E01C
E01C
E01C
7018
7038
3830
1C60
0780
ENDCHAR
STARTCHAR oacute
ENCODING 243
SWIDTH 500 0
DWIDTH 16 0
BBX 14 23 1 0
BITMAP
00C0
01C0
0380
0600
0C00
1800
0000
0000
0780
18E0
3070
7038
6038
E01C
E01C
E01C
E01C
E01C
7018
7038
3830
1C60
0780
ENDCHAR
STARTCHAR ocircumflex
ENCODING 244
SWIDTH 500 0
DWIDTH 16 0
BBX 14 23 1 0
BITMAP
0300
0780
0FC0
1CE0
3030
2010
0000
0000
0780
18E0
3070
7038
6038
E01C
E01C
E01C
E01C
E01C
7018
7038
3830
1C60
0780
ENDCHAR
STARTCHAR otilde
ENCODING 245
SWIDTH 500 0
DWIDTH 16 0
BBX 14 21 1 0
BITMAP
1C10
3E30
63E0
41C0
0000
0000
0780
18E0
3070
7038
6038
E01C
E01C
E01C
E01C
E01C
7018
7038
3830
1C60
0780
ENDCHAR
STARTCHAR odieresis
ENCODING 246
SWIDTH 500 0
DWIDTH 16 0
BBX 14 21 1 0
BITMAP
38E0
38E0
38E0
0000
0000
0000
0780
18E0
3070
7038
6038
E01C
E01C
E01C
E01C
E01C
7018
7038
3830
1C60
0780
ENDCHAR
STARTCHAR divide
ENCODING 247
SWIDTH 564 0
DWIDTH 19 0
BBX 16 17 1 0
BITMAP
0180
03C0
03C0
0180
0000
0000
0000
FFFF
FFFF
0000
0000
0000
0000
0180
03C0
03C0
0180
ENDCHAR
STARTCHAR oslash
ENCODING 248
SWIDTH 500 0
DWIDTH 17 0
BBX 14 21 1 -3
BITMAP
0018
0010
0030
07A0
18E0
30F0
70B8
61B8
E11C
E11C
E31C
E21C
E61C
7418
7438
3C30
1C60
1F80
3000
2000
6000
ENDCHAR
STARTCHAR ugrave
ENCODING 249
SWIDTH 500 0
DWIDTH 17 0
BBX 16 23 0 0
BITMAP
0C00
0E00
0700
0180
00C0
0060
0000
0000
F87C
381C
381C
381C
381C
381C
381C
381C
381C
381C
381C
383C
3C7C
1FDF
0F98
ENDCHAR
STARTCHAR uacute
ENCODING 250
SWIDTH 500 0
DWIDTH 17 0
BBX 16 23 0 0
BITMAP
0060
00E0
01C0
0300
0600
0C00
0000
0000
F87C
381C
381C
381C
381C
381C
381C
381C
381C
381C
381C
383C
3C7C
1FDF
0F98
ENDCHAR
STARTCHAR ucircumflex
ENCODING 251
SWIDTH 500 0
DWIDTH 17 0
BBX 16 23 0 0
BITMAP
0180
03C0
07E0
0E70
1818
1008
0000
0000
F87C
381C
381C
381C
381C
381C
381C
381C
381C
381C
381C
383C
3C7C
1FDF
0F98
ENDCHAR
STARTCHAR udieresis
ENCODING 252
SWIDTH 500 0
DWIDTH 17 0
BBX 16 21 0 0
BITMAP
1C70
1C70
1C70
0000
0000
0000
F87C
381C
381C
381C
381C
381C
381C
381C
381C
381C
381C
383C
3C7C
1FDF
0F98
ENDCHAR
STARTCHAR yacute
ENCODING 253
SWIDTH 500 0
DWIDTH 17 0
BBX 15 30 0 -7
BITMAP
0018
0038
0070
00C0
0180
0300
0000
0000
FE1E
780C
380C
3C08
1C18
1E18
0E10
0E30
0720
0720
03E0
03C0
01C0
0180
0180
0180
0100
0300
0200
3E00
7C00
3800
ENDCHAR
STARTCHAR thorn
ENCODING 254
SWIDTH 500 0
DWIDTH 17 0
BBX 15 30 0 -7
BITMAP
1800
F800
3800
3800
3800
3800
3800
3800
39F0
3BF8
3E7C
3C1C
381E
380E
380E
380E
380E
380E
380C
381C
3C18
3E30
3BE0
3800
3800
3800
3800
3800
3800
FF00
ENDCHAR
STARTCHAR ydieresis
ENCODING 255
SWIDTH 500 0
DWIDTH 17 0
BBX 15 28 1 -7
BITMAP
1C70
1C70
1C70
0000
0000
0000
FE1E
780C
380C
3C08
1C18
1E18
0E10
0E30
0720
0720
03E0
03C0
01C0
0180
0180
0100
0100
0300
0200
3E00
7C00
3800
ENDCHAR
STARTCHAR Amacron
ENCODING 256
SWIDTH 722 0
DWIDTH 24 0
BBX 22 26 1 0
BITMAP
03FF00
03FF00
000000
003000
003000
007000
007800
007800
00FC00
00DC00
009C00
018E00
010E00
030F00
030700
020700
060780
060380
0FFFC0
0C03C0
1801C0
1801E0
3001E0
3000F0
7000F0
FC03FC
ENDCHAR
STARTCHAR amacron
ENCODING 257
SWIDTH 444 0
DWIDTH 15 0
BBX 13 18 1 0
BITMAP
7FE0
7FE0
0000
1F80
31C0
70E0
70E0
60E0
03E0
0EE0
18E0
30E0
60E0
E0E0
E1E0
F2E8
7EF8
3C70
ENDCHAR
STARTCHAR Abreve
ENCODING 258
SWIDTH 722 0
DWIDTH 24 0
BBX 22 29 1 0
BITMAP
020200
030600
018C00
01FC00
00F800
000000
003000
003000
007000
007800
007800
00FC00
00DC00
009C00
018E00
010E00
030F00
030700
020700
060780
060380
0FFFC0
0C03C0
1801C0
1801E0
3001E0
3000F0
7000F0
FC03FC
ENDCHAR
STARTCHAR abreve
ENCODING 259
SWIDTH 444 0
DWIDTH 15 0
BBX 13 21 1 0
BITMAP
2020
3060
18C0
1FC0
0F80
0000
1F80
31C0
70E0
70E0
60E0
03E0
0EE0
18E0
30E0
60E0
E0E0
E1E0
F2E8
7EF8
3C70
ENDCHAR
STARTCHAR Aogonek
ENCODING 260
SWIDTH 722 0
DWIDTH 24 0
BBX 22 28 1 -5
BITMAP
003000
003000
007000
007800
007800
00FC00
00DC00
009C00
018E00
010E00
030F00
030700
020700
060780
060380
0FFFC0
0C03C0
1801C0
1801E0
3001E0
3000F0
7000F0
FC03FC
001000
003000
002100
003E00
001C00
ENDCHAR
STARTCHAR aogonek
ENCODING 261
SWIDTH 444 0
DWIDTH 15 0
BBX 13 20 1 -5
BITMAP
1F80
31C0
70E0
70E0
60E0
03E0
0EE0
18E0
30E0
60E0
E0E0
E1E0
F2E8
7EF8
3C70
0200
0600
0420
07C0
0380
ENDCHAR
STARTCHAR Cacute
ENCODING 262
SWIDTH 667 0
DWIDTH 22 0
BBX 20 30 1 0
BITMAP
000300
000700
000E00
001800
003000
006000
000000
01FF10
0783F0
0E00F0
1C0070
380030
380030
700010
700010
F00000
F00000
F00000
F00000
F00000
F00000
F00000
700000
700000
380000
380010
1C0030
0E0060
0783C0
01FF00
ENDCHAR
STARTCHAR cacute
ENCODING 263
SWIDTH 444 0
DWIDTH 15 0
BBX 12 22 1 0
BITMAP
0060
00E0
01C0
0300
0600
0C00
0000
0F80
38C0
70E0
60E0
E060
C000
C000
C000
C000
E000
E010
7030
7C60
3FC0
1F00
ENDCHAR
STARTCHAR Ccircumflex
ENCODING 264
SWIDTH 667 0
DWIDTH 22 0
BBX 20 30 1 0
BITMAP
003000
007800
00FC00
01CE00
030300
020100
000000
01FF10
0783F0
0E00F0
1C0070
380030
380030
700010
700010
F00000
F00000
F00000
F00000
F00000
F00000
F00000
700000
700000
380000
380010
1C0030
0E0060
0783C0
01FF00
ENDCHAR
STARTCHAR ccircumflex
ENCODING 265
SWIDTH 444 0
DWIDTH 15 0
BBX 12 22 1 0
BITMAP
0600
0F00
1F80
39C0
6060
4020
0000
0F80
38C0
70E0
60E0
E060
C000
C000
C000
C000
E000
E010
7030
7C60
3FC0
1F00
ENDCHAR
STARTCHAR Cdotaccent
ENCODING 266
SWIDTH 667 0
DWIDTH 22 0
BBX 20 27 1 0
BITMAP
003800
003800
003800
000000
01FF10
0783F0
0E00F0
1C0070
380030
380030
700010
700010
F00000
F00000
F00000
F00000
F00000
F00000
F00000
700000
700000
380000
380010
1C0030
0E0060
0783C0
01FF00
ENDCHAR
STARTCHAR cdotaccent
ENCODING 267
SWIDTH 444 0
DWIDTH 15 0
BBX 12 19 1 0
BITMAP
0700
0700
0700
0000
0F80
38C0
70E0
60E0
E060
C000
C000
C000
C000
E000
E010
7030
7C60
3FC0
1F00
ENDCHAR
STARTCHAR Ccaron
ENCODING 268
SWIDTH 667 0
DWIDTH 22 0
BBX 20 30 1 0
BITMAP
020100
030300
01CE00
00FC00
007800
003000
000000
01FF10
0783F0
0E00F0
1C0070
380030
380030
700010
700010
F00000
F00000
F00000
F00000
F00000
F00000
F00000
700000
700000
380000
380010
1C0030
0E0060
0783C0
01FF00
ENDCHAR
STARTCHAR ccaron
ENCODING 269
SWIDTH 444 0
DWIDTH 15 0
BBX 12 22 1 0
BITMAP
4020
6060
39C0
1F80
0F00
0600
0000
0F80
38C0
70E0
60E0
E060
C000
C000
C000
C000
E000
E010
7030
7C60
3FC0
1F00
ENDCHAR
STARTCHAR Dcaron
ENCODING 270
SWIDTH 722 0
DWIDTH 24 0
BBX 22 30 1 0
BITMAP
040200
060600
039C00
01F800
00F000
006000
000000
FFFE00
3E0780
1C01C0
1C00E0
1C0070
1C0070
1C0038
1C0038
1C003C
1C003C
1C003C
1C003C
1C003C
1C003C
1C003C
1C0038
1C0038
1C0070
1C0070
1C00E0
1C01C0
3E0780
FFFE00
ENDCHAR
STARTCHAR dcaron
ENCODING 271
SWIDTH 808 0
DWIDTH 26 0
BBX 21 23 1 0
BITMAP
001830
00F878
003878
003838
003808
003810
003820
003800
0FB800
18F800
307800
703800
603800
E03800
E03800
E03800
E03800
E03800
F03800
707800
78F800
3FBE00
0F3000
ENDCHAR
STARTCHAR Dcroat
ENCODING 272
SWIDTH 722 0
DWIDTH 24 0
BBX 22 23 1 0
BITMAP
FFFE00
3E0780
1C01C0
1C00E0
1C0070
1C0070
1C0038
1C0038
1C003C
1C003C
1C003C
FFC03C
FFC03C
1C003C
1C003C
1C0038
1C0038
1C0070
1C0070
1C00E0
1C01C0
3E0780
FFFE00
ENDCHAR
STARTCHAR dcroat
ENCODING 273
SWIDTH 500 0
DWIDTH 16 0
BBX 16 23 1 0
BITMAP
0018
00F8
0038
0038
0038
0038
01FF
01FF
0FB8
18F8
3078
7038
6038
E038
E038
E038
E038
E038
F038
7078
78F8
3FBE
0F30
ENDCHAR
STARTCHAR Emacron
ENCODING 274
SWIDTH 611 0
DWIDTH 20 0
BBX 19 26 1 0
BITMAP
0FFC00
0FFC00
000000
FFFFC0
3E03C0
1C00C0
1C0040
1C0040
1C0000
1C0000
1C0000
1C0100
1C0100
1C0300
1FFF00
1C0300
1C0100
1C0100
1C0000
1C0000
1C0020
1C0020
1C0060
1C00C0
3E03C0
FFFFC0
ENDCHAR
STARTCHAR emacron
ENCODING 275
SWIDTH 444 0
DWIDTH 15 0
BBX 12 18 1 0
BITMAP
7FE0
7FE0
0000
0F80
39C0
60E0
6070
C070
FFF0
C000
C000
C000
E000
E010
7030
7C60
3FC0
0F00
ENDCHAR
STARTCHAR Ebreve
ENCODING 276
SWIDTH 611 0
DWIDTH 20 0
BBX 19 29 1 0
BITMAP
080800
0C1800
063000
07F000
03E000
000000
FFFFC0
3E03C0
1C00C0
1C0040
1C0040
1C0000
1C0000
1C0000
1C0100
1C0100
1C0300
1FFF00
1C0300
1C0100
1C0100
1C0000
1C0000
1C0020
1C0020
1C0060
1C00C0
3E03C0
FFFFC0
ENDCHAR
STARTCHAR ebreve
ENCODING 277
SWIDTH 444 0
DWIDTH 15 0
BBX 12 21 1 0
BITMAP
2020
3060
18C0
1FC0
0F80
0000
0F80
39C0
60E0
6070
C070
FFF0
C000
C000
C000
E000
E010
7030
7C60
3FC0
0F00
ENDCHAR
STARTCHAR Edotaccent
ENCODING 278
SWIDTH 611 0
DWIDTH 20 0
BBX 19 27 1 0
BITMAP
01C000
01C000
01C000
000000
FFFFC0
3E03C0
1C00C0
1C0040
1C0040
1C0000
1C0000
1C0000
1C0100
1C0100
1C0300
1FFF00
1C0300
1C0100
1C0100
1C0000
1C0000
1C0020
1C0020
1C0060
1C00C0
3E03C0
FFFFC0
ENDCHAR
STARTCHAR edotaccent
ENCODING 279
SWIDTH 444 0
DWIDTH 15 0
BBX 12 19 1 0
BITMAP
0700
0700
0700
0000
0F80
39C0
60E0
6070
C070
FFF0
C000
C000
C000
E000
E010
7030
7C60
3FC0
0F00
ENDCHAR
STARTCHAR Eogonek
ENCODING 280
SWIDTH 611 0
DWIDTH 20 0
BBX 19 28 1 -5
BITMAP
FFFFC0
3E03C0
1C00C0
1C0040
1C0040
1C0000
1C0000
1C0000
1C0100
1C0100
1C0300
1FFF00
1C0300
1C0100
1C0100
1C0000
1C0000
1C0020
1C0020
1C0060
1C00C0
3E03C0
FFFFC0
008000
018000
010800
01F000
00E000
ENDCHAR
STARTCHAR eogonek
ENCODING 281
SWIDTH 444 0
DWIDTH 15 0
BBX 12 20 1 -5
BITMAP
0F80
39C0
60E0
6070
C070
FFF0
C000
C000
C000
E000
E010
7030
7C60
3FC0
0F00
0400
0C00
0840
0F80
0700
ENDCHAR
STARTCHAR Ecaron
ENCODING 282
SWIDTH 611 0
DWIDTH 20 0
BBX 19 30 1 0
BITMAP
080400
0C0C00
073800
03F000
01E000
00C000
000000
FFFFC0
3E03C0
1C00C0
1C0040
1C0040
1C0000
1C0000
1C0000
1C0100
1C0100
1C0300
1FFF00
1C0300
1C0100
1C0100
1C0000
1C0000
1C0020
1C0020
1C0060
1C00C0
3E03C0
FFFFC0
ENDCHAR
STARTCHAR ecaron
ENCODING 283
SWIDTH 444 0
DWIDTH 15 0
BBX 12 22 1 0
BITMAP
4020
6060
39C0
1F80
0F00
0600
0000
0F80
39C0
60E0
6070
C070
FFF0
C000
C000
C000
E000
E010
7030
7C60
3FC0
0F00
ENDCHAR
STARTCHAR Gcircumflex
ENCODING 284
SWIDTH 722 0
DWIDTH 24 0
BBX 22 30 1 0
BITMAP
001800
003C00
007E00
00E700
018180
010080
000000
01FF30
0787F0
0E00F0
1C0070
380030
380030
700010
700000
F00000
F00000
F00000
F003FC
F000F8
F00070
F00070
700070
700070
380070
380070
1C0070
0E0070
0781E0
01FF80
ENDCHAR
STARTCHAR gcircumflex
ENCODING 285
SWIDTH 500 0
DWIDTH 16 0
BBX 14 29 1 -7
BITMAP
0300
0780
0FC0
1CE0
3030
2010
0000
0FC0
18FC
307C
7030
7030
7030
7030
3870
1CE0
0F80
1800
3000
7800
7FE0
3FF8
1FFC
600C
C00C
C01C
F038
7FE0
1F80
ENDCHAR
STARTCHAR Gbreve
ENCODING 286
SWIDTH 722 0
DWIDTH 24 0
BBX 22 29 1 0
BITMAP
010100
018300
00C600
00FE00
007C00
000000
01FF30
0787F0
0E00F0
1C0070
380030
380030
700010
700000
F00000
F00000
F00000
F003FC
F000F8
F00070
F00070
700070
700070
380070
380070
1C0070
0E0070
0781E0
01FF80
ENDCHAR
STARTCHAR gbreve
ENCODING 287
SWIDTH 500 0
DWIDTH 16 0
BBX 14 28 1 -7
BITMAP
1010
1830
0C60
0FE0
07C0
0000
0FC0
18FC
307C
7030
7030
7030
7030
3870
1CE0
0F80
1800
3000
7800
7FE0
3FF8
1FFC
600C
C00C
C01C
F038
7FE0
1F80
ENDCHAR
STARTCHAR Gdotaccent
ENCODING 288
SWIDTH 722 0
DWIDTH 24 0
BBX 22 27 1 0
BITMAP
003800
003800
003800
000000
01FF30
0787F0
0E00F0
1C0070
380030
380030
700010
700000
F00000
F00000
F00000
F003FC
F000F8
F00070
F00070
700070
700070
380070
380070
1C0070
0E0070
0781E0
01FF80
ENDCHAR
STARTCHAR gdotaccent
ENCODING 289
SWIDTH 500 0
DWIDTH 16 0
BBX 14 26 1 -7
BITMAP
0380
0380
0380
0000
0FC0
18FC
307C
7030
7030
7030
7030
3870
1CE0
0F80
1800
3000
7800
7FE0
3FF8
1FFC
600C
C00C
C01C
F038
7FE0
1F80
ENDCHAR
STARTCHAR Gcommaaccent
ENCODING 290
SWIDTH 722 0
DWIDTH 24 0
BBX 22 31 1 -8
BITMAP
01FF30
0787F0
0E00F0
1C0070
380030
380030
700010
700000
F00000
F00000
F00000
F003FC
F000F8
F00070
F00070
700070
700070
380070
380070
1C0070
0E0070
0781E0
01FF80
000000
003000
007800
007800
003800
000800
001000
002000
ENDCHAR
STARTCHAR gcommaaccent
ENCODING 291
SWIDTH 500 0
DWIDTH 16 0
BBX 14 30 1 -7
BITMAP
0100
0200
0400
0700
0780
0780
0300
0000
0FC0
18FC
307C
7030
7030
7030
7030
3870
1CE0
0F80
1800
3000
7800
7FE0
3FF8
1FFC
600C
C00C
C01C
F038
7FE0
1F80
ENDCHAR
STARTCHAR Hcircumflex
ENCODING 292
SWIDTH 722 0
DWIDTH 24 0
BBX 22 30 1 0
BITMAP
003000
007800
00FC00
01CE00
030300
020100
000000
FF87FC
3E01F0
1C00E0
1C00E0
1C00E0
1C00E0
1C00E0
1C00E0
1C00E0
1C00E0
1C00E0
1FFFE0
1C00E0
1C00E0
1C00E0
1C00E0
1C00E0
1C00E0
1C00E0
1C00E0
1C00E0
3E01F0
FF87FC
ENDCHAR
STARTCHAR hcircumflex
ENCODING 293
SWIDTH 500 0
DWIDTH 16 0
BBX 16 30 0 0
BITMAP
0C00
1E00
3F00
7380
C0C0
8040
0000
1800
F800
3800
3800
3800
3800
3800
3800
39F0
3BF8
3E3C
3C1C
381C
381C
381C
381C
381C
381C
381C
381C
381C
381C
FE7F
ENDCHAR
STARTCHAR Hbar
ENCODING 294
SWIDTH 722 0
DWIDTH 24 0
BBX 22 23 1 0
BITMAP
FF87FC
3E01F0
1C00E0
1C00E0
1C00E0
1C00E0
1C00E0
FFFFFC
FFFFFC
1C00E0
1C00E0
1FFFE0
1C00E0
1C00E0
1C00E0
1C00E0
1C00E0
1C00E0
1C00E0
1C00E0
1C00E0
3E01F0
FF87FC
ENDCHAR
STARTCHAR hbar
ENCODING 295
SWIDTH 500 0
DWIDTH 16 0
BBX 16 23 0 0
BITMAP
1800
F800
3800
3800
3800
3800
FF80
FF80
39F0
3BF8
3E3C
3C1C
381C
381C
381C
381C
381C
381C
381C
381C
381C
381C
FE7F
ENDCHAR
STARTCHAR Itilde
ENCODING 296
SWIDTH 333 0
DWIDTH 11 0
BBX 11 28 0 0
BITMAP
3820
7C60
C7C0
8380
0000
7FC0
1F00
0E00
0E00
0E00
0E00
0E00
0E00
0E00
0E00
0E00
0E00
0E00
0E00
0E00
0E00
0E00
0E00
0E00
0E00
0E00
1F00
7FC0
ENDCHAR
STARTCHAR itilde
ENCODING 297
SWIDTH 278 0
DWIDTH 9 0
BBX 11 20 -1 0
BITMAP
3820
7C60
C7C0
8380
0000
0600
3E00
0E00
0E00
0E00
0E00
0E00
0E00
0E00
0E00
0E00
0E00
0E00
0E00
3F80
ENDCHAR
STARTCHAR Imacron
ENCODING 298
SWIDTH 333 0
DWIDTH 11 0
BBX 10 26 1 0
BITMAP
FFC0
FFC0
0000
FF80
3E00
1C00
1C00
1C00
1C00
1C00
1C00
1C00
1C00
1C00
1C00
1C00
1C00
1C00
1C00
1C00
1C00
1C00
1C00
1C00
3E00
FF80
ENDCHAR
STARTCHAR imacron
ENCODING 299
SWIDTH 278 0
DWIDTH 9 0
BBX 10 18 -1 0
BITMAP
FFC0
FFC0
0000
0600
3E00
0E00
0E00
0E00
0E00
0E00
0E00
0E00
0E00
0E00
0E00
0E00
0E00
3F80
ENDCHAR
STARTCHAR Ibreve
ENCODING 300
SWIDTH 333 0
DWIDTH 11 0
BBX 9 29 1 0
BITMAP
8080
C180
6300
7F00
3E00
0000
FF80
3E00
1C00
1C00
1C00
1C00
1C00
1C00
1C00
1C00
1C00
1C00
1C00
1C00
1C00
1C00
1C00
1C00
1C00
1C00
1C00
3E00
FF80
ENDCHAR
STARTCHAR ibreve
ENCODING 301
SWIDTH 278 0
DWIDTH 9 0
BBX 9 21 0 0
BITMAP
8080
C180
6300
7F00
3E00
0000
0C00
7C00
1C00
1C00
1C00
1C00
1C00
1C00
1C00
1C00
1C00
1C00
1C00
1C00
7F00
ENDCHAR
STARTCHAR Iogonek
ENCODING 302
SWIDTH 333 0
DWIDTH 11 0
BBX 9 28 1 -5
BITMAP
FF80
3E00
1C00
1C00
1C00
1C00
1C00
1C00
1C00
1C00
1C00
1C00
1C00
1C00
1C00
1C00
1C00
1C00
1C00
1C00
1C00
3E00
FF80
0800
1800
1080
1F00
0E00
ENDCHAR
STARTCHAR iogonek
ENCODING 303
SWIDTH 278 0
DWIDTH 9 0
BBX 8 28 1 -5
BITMAP
38
38
38
00
00
00
00
00
38
F8
38
38
38
38
38
38
38
38
38
38
38
38
FE
10
30
21
3E
1C
ENDCHAR
STARTCHAR Idotaccent
ENCODING 304
SWIDTH 333 0
DWIDTH 11 0
BBX 9 27 1 0
BITMAP
1C00
1C00
1C00
0000
FF80
3E00
1C00
1C00
1C00
1C00
1C00
1C00
1C00
1C00
1C00
1C00
1C00
1C00
1C00
1C00
1C00
1C00
1C00
1C00
1C00
3E00
FF80
ENDCHAR
STARTCHAR dotlessi
ENCODING 305
SWIDTH 278 0
DWIDTH 9 0
BBX 7 15 1 0
BITMAP
18
F8
38
38
38
38
38
38
38
38
38
38
38
38
FE
ENDCHAR
STARTCHAR IJ
ENCODING 306
SWIDTH 705 0
DWIDTH 23 0
BBX 22 23 1 0
BITMAP
FF87FC
3E01F0
1C00E0
1C00E0
1C00E0
1C00E0
1C00E0
1C00E0
1C00E0
1C00E0
1C00E0
1C00E0
1C00E0
1C00E0
1C00E0
1C00E0
1C00E0
1C00E0
1C00E0
1C30E0
1C38C0
3E39C0
FF9F00
ENDCHAR
STARTCHAR ij
ENCODING 307
SWIDTH 542 0
DWIDTH 18 0
BBX 15 30 1 -7
BITMAP
380E
380E
380E
0000
0000
0000
0000
0000
3806
F83E
380E
380E
380E
380E
380E
380E
380E
380E
380E
380E
380E
380E
FE0E
000E
000E
000E
000C
018C
01D8
00F0
ENDCHAR
STARTCHAR Jcircumflex
ENCODING 308
SWIDTH 389 0
DWIDTH 13 0
BBX 12 30 1 0
BITMAP
0300
0780
0FC0
1CE0
3030
2010
0000
1FF0
07C0
0380
0380
0380
0380
0380
0380
0380
0380
0380
0380
0380
0380
0380
0380
0380
0380
0380
C380
E300
E700
7C00
ENDCHAR
STARTCHAR jcircumflex
ENCODING 309
SWIDTH 278 0
DWIDTH 9 0
BBX 11 29 -1 -7
BITMAP
0600
0F00
1F80
39C0
6060
4020
0000
0300
1F00
0700
0700
0700
0700
0700
0700
0700
0700
0700
0700
0700
0700
0700
0700
0700
0700
0600
C600
EC00
7800
ENDCHAR
STARTCHAR Kcommaaccent
ENCODING 310
SWIDTH 722 0
DWIDTH 24 0
BBX 23 31 1 -8
BITMAP
FFC7F8
3E01E0
1C0180
1C0300
1C0600
1C0C00
1C1800
1C3000
1C6000
1CC000
1FC000
1FE000
1FF000
1E7800
1C3C00
1C1E00
1C0F00
1C0780
1C03C0
1C01E0
1C00F0
3E00F8
FFC7FE
000000
003000
007800
007800
003800
000800
001000
002000
ENDCHAR
STARTCHAR kcommaaccent
ENCODING 311
SWIDTH 500 0
DWIDTH 16 0
BBX 16 31 0 -8
BITMAP
1800
F800
3800
3800
3800
3800
3800
3800
38FE
3870
3860
38C0
3980
3F00
3E00
3F00
3B80
39C0
38E0
38F0
3878
383C
FE7F
0000
0180
03C0
03C0
01C0
0040
0080
0100
ENDCHAR
STARTCHAR kgreenlandic
ENCODING 312
SWIDTH 500 0
DWIDTH 16 0
BBX 16 15 0 0
BITMAP
38FE
3870
3860
38C0
3980
3F00
3E00
3F00
3B80
39C0
38E0
38F0
3878
383C
FE7F
ENDCHAR
STARTCHAR Lacute
ENCODING 313
SWIDTH 611 0
DWIDTH 20 0
BBX 19 30 1 0
BITMAP
006000
00E000
01C000
030000
060000
0C0000
000000
FF8000
3E0000
1C0000
1C0000
1C0000
1C0000
1C0000
1C0000
1C0000
1C0000
1C0000
1C0000
1C0000
1C0000
1C0000
1C0000
1C0000
1C0020
1C0020
1C0060
1C00C0
3E03C0
FFFFC0
ENDCHAR
STARTCHAR lacute
ENCODING 314
SWIDTH 278 0
DWIDTH 9 0
BBX 8 30 1 0
BITMAP
03
07
0E
18
30
60
00
18
F8
38
38
38
38
38
38
38
38
38
38
38
38
38
38
38
38
38
38
38
38
FE
ENDCHAR
STARTCHAR Lcommaaccent
ENCODING 315
SWIDTH 611 0
DWIDTH 20 0
BBX 19 31 1 -8
BITMAP
FF8000
3E0000
1C0000
1C0000
1C0000
1C0000
1C0000
1C0000
1C0000
1C0000
1C0000
1C0000
1C0000
1C0000
1C0000
1C0000
1C0000
1C0020
1C0020
1C0060
1C00C0
3E03C0
FFFFC0
000000
00C000
01E000
01E000
00E000
002000
004000
008000
ENDCHAR
STARTCHAR lcommaaccent
ENCODING 316
SWIDTH 278 0
DWIDTH 9 0
BBX 7 31 1 -8
BITMAP
18
F8
38
38
38
38
38
38
38
38
38
38
38
38
38
38
38
38
38
38
38
38
FE
00
18
3C
3C
1C
04
08
10
ENDCHAR
STARTCHAR Lcaron
ENCODING 317
SWIDTH 913 0
DWIDTH 30 0
BBX 25 23 1 0
BITMAP
FF800300
3E000780
1C000780
1C000380
1C000080
1C000100
1C000200
1C000000
1C000000
1C000000
1C000000
1C000000
1C000000
1C000000
1C000000
1C000000
1C000000
1C002000
1C002000
1C006000
1C00C000
3E03C000
FFFFC000
ENDCHAR
STARTCHAR lcaron
ENCODING 318
SWIDTH 597 0
DWIDTH 20 0
BBX 15 23 1 0
BITMAP
180C
F81E
381E
380E
3802
3804
3808
3800
3800
3800
3800
3800
3800
3800
3800
3800
3800
3800
3800
3800
3800
3800
FE00
ENDCHAR
STARTCHAR Ldot
ENCODING 319
SWIDTH 830 0
DWIDTH 27 0
BBX 24 23 1 0
BITMAP
FF8000
3E0000
1C0000
1C0000
1C0000
1C0000
1C0000
1C0000
1C0000
1C0000
1C0000
1C0000
1C0006
1C000F
1C000F
1C0006
1C0000
1C0020
1C0020
1C0060
1C00C0
3E03C0
FFFFC0
ENDCHAR
STARTCHAR ldot
ENCODING 320
SWIDTH 514 0
DWIDTH 17 0
BBX 14 23 1 0
BITMAP
1800
F800
3800
3800
3800
3800
3800
3800
3800
3800
3800
3800
3818
383C
383C
3818
3800
3800
3800
3800
3800
3800
FE00
ENDCHAR
STARTCHAR Lslash
ENCODING 321
SWIDTH 611 0
DWIDTH 20 0
BBX 19 23 1 0
BITMAP
FF8000
3E0000
1C0000
1C0000
1C0000
1C0000
1C0000
1CC000
1D8000
1F0000
1E0000
1C0000
3C0000
7C0000
DC0000
9C0000
1C0000
1C0020
1C0020
1C0060
1C00C0
3E03C0
FFFFC0
ENDCHAR
STARTCHAR lslash
ENCODING 322
SWIDTH 278 0
DWIDTH 9 0
BBX 7 23 1 0
BITMAP
18
F8
38
38
38
38
38
3A
3E
3C
38
78
F8
B8
38
38
38
38
38
38
38
38
FE
ENDCHAR
STARTCHAR Nacute
ENCODING 323
SWIDTH 722 0
DWIDTH 24 0
BBX 22 30 1 0
BITMAP
000600
000E00
001C00
003000
006000
00C000
000000
F801FC
3C0070
1E0020
1F0020
1F0020
178020
13C020
13C020
11E020
10F020
10F820
107820
103C20
101E20
101F20
100F20
1007A0
1003E0
1001E0
1001E0
1000E0
380060
FE0020
ENDCHAR
STARTCHAR nacute
ENCODING 324
SWIDTH 500 0
DWIDTH 16 0
BBX 16 22 0 0
BITMAP
0030
0070
00E0
0180
0300
0600
0000
18F0
FBF8
3C3C
381C
381C
381C
381C
381C
381C
381C
381C
381C
381C
381C
FE7F
ENDCHAR
STARTCHAR Ncommaaccent
ENCODING 325
SWIDTH 722 0
DWIDTH 24 0
BBX 22 31 1 -8
BITMAP
F801FC
3C0070
1E0020
1F0020
1F0020
178020
13C020
13C020
11E020
10F020
10F820
107820
103C20
101E20
101F20
100F20
1007A0
1003E0
1001E0
1001E0
1000E0
380060
FE0020
000000
003000
007800
007800
003800
000800
001000
002000
ENDCHAR
STARTCHAR ncommaaccent
ENCODING 326
SWIDTH 500 0
DWIDTH 16 0
BBX 16 23 0 -8
BITMAP
18F0
FBF8
3C3C
381C
381C
381C
381C
381C
381C
381C
381C
381C
381C
381C
FE7F
0000
0180
03C0
03C0
01C0
0040
0080
0100
ENDCHAR
STARTCHAR Ncaron
ENCODING 327
SWIDTH 722 0
DWIDTH 24 0
BBX 22 30 1 0
BITMAP
040200
060600
039C00
01F800
00F000
006000
000000
F801FC
3C0070
1E0020
1F0020
1F0020
178020
13C020
13C020
11E020
10F020
10F820
107820
103C20
101E20
101F20
100F20
1007A0
1003E0
1001E0
1001E0
1000E0
380060
FE0020
ENDCHAR
STARTCHAR ncaron
ENCODING 328
SWIDTH 500 0
DWIDTH 16 0
BBX 16 22 0 0
BITMAP
1008
1818
0E70
07E0
03C0
0180
0000
18F0
FBF8
3C3C
381C
381C
381C
381C
381C
381C
381C
381C
381C
381C
381C
FE7F
ENDCHAR
STARTCHAR napostrophe
ENCODING 329
SWIDTH 816 0
DWIDTH 26 0
BBX 23 23 3 0
BITMAP
600000
F00000
F00000
700000
100000
200000
400000
000000
0031E0
01F7F0
007878
007038
007038
007038
007038
007038
007038
007038
007038
007038
007038
007038
01FCFE
ENDCHAR
STARTCHAR Eng
ENCODING 330
SWIDTH 722 0
DWIDTH 24 0
BBX 22 30 1 -7
BITMAP
F801FC
3C0070
1E0020
1F0020
1F0020
178020
13C020
13C020
11E020
10F020
10F820
107820
103C20
101E20
101F20
100F20
1007A0
1003E0
1001E0
1001E0
1000E0
3800E0
FE00E0
0000E0
0000E0
0000E0
0000C0
0018C0
001D80
000F00
ENDCHAR
STARTCHAR eng
ENCODING 331
SWIDTH 500 0
DWIDTH 16 0
BBX 14 22 0 -7
BITMAP
18F0
FBF8
3C3C
381C
381C
381C
381C
381C
381C
381C
381C
381C
381C
381C
FE1C
001C
001C
001C
0018
0318
03B0
01E0
ENDCHAR
STARTCHAR Omacron
ENCODING 332
SWIDTH 722 0
DWIDTH 24 0
BBX 22 26 1 0
BITMAP
03FF00
03FF00
000000
01FE00
078780
0E01C0
1C00E0
380070
380070
700038
700038
F0003C
F0003C
F0003C
F0003C
F0003C
F0003C
F0003C
700038
700038
380070
380070
1C00E0
0E01C0
078780
01FE00
ENDCHAR
STARTCHAR omacron
ENCODING 333
SWIDTH 500 0
DWIDTH 16 0
BBX 14 18 1 0
BITMAP
3FF0
3FF0
0000
0780
18E0
3070
7038
6038
E01C
E01C
E01C
E01C
E01C
7018
7038
3830
1C60
0780
ENDCHAR
STARTCHAR Obreve
ENCODING 334
SWIDTH 722 0
DWIDTH 24 0
BBX 22 29 1 0
BITMAP
010100
018300
00C600
00FE00
007C00
000000
01FE00
078780
0E01C0
1C00E0
380070
380070
700038
700038
F0003C
F0003C
F0003C
F0003C
F0003C
F0003C
F0003C
700038
700038
380070
380070
1C00E0
0E01C0
078780
01FE00
ENDCHAR
STARTCHAR obreve
ENCODING 335
SWIDTH 500 0
DWIDTH 16 0
BBX 14 21 1 0
BITMAP
1010
1830
0C60
0FE0
07C0
0000
0780
18E0
3070
7038
6038
E01C
E01C
E01C
E01C
E01C
7018
7038
3830
1C60
0780
ENDCHAR
STARTCHAR Ohungarumlaut
ENCODING 336
SWIDTH 722 0
DWIDTH 24 0
BBX 22 30 1 0
BITMAP
0018C0
0039C0
007380
00C600
018C00
031800
000000
01FE00
078780
0E01C0
1C00E0
380070
380070
700038
700038
F0003C
F0003C
F0003C
F0003C
F0003C
F0003C
F0003C
700038
700038
380070
380070
1C00E0
0E01C0
078780
01FE00
ENDCHAR
STARTCHAR ohungarumlaut
ENCODING 337
SWIDTH 500 0
DWIDTH 16 0
BBX 14 22 1 0
BITMAP
018C
039C
0738
0C60
18C0
3180
0000
0780
18E0
3070
7038
6038
E01C
E01C
E01C
E01C
E01C
7018
7038
3830
1C60
0780
ENDCHAR
STARTCHAR OE
ENCODING 338
SWIDTH 889 0
DWIDTH 30 0
BBX 28 23 1 0
BITMAP
01FFFFE0
078FE1E0
0E078060
1C038020
38038020
38038000
70038000
70038080
F0038080
F0038180
F0038380
F003FF80
F0038380
F0038180
F0038080
70038080
70038000
38038010
38038010
1C038030
0E078060
078FC1E0
01FFFFE0
ENDCHAR
STARTCHAR oe
ENCODING 339
SWIDTH 722 0
DWIDTH 24 0
BBX 21 15 1 0
BITMAP
0787C0
18ECE0
307870
707838
603838
E03FF8
E03800
E03800
E03800
E03800
703C08
703C18
386E30
1CEFE0
078380
ENDCHAR
STARTCHAR Racute
ENCODING 340
SWIDTH 667 0
DWIDTH 22 0
BBX 21 30 1 0
BITMAP
000C00
001C00
003800
006000
00C000
018000
000000
FFF800
3C3E00
1C0F00
1C0780
1C0780
1C0380
1C0380
1C0380
1C0780
1C0700
1C1E00
1FF800
1CF000
1C7800
1C3C00
1C3C00
1C1E00
1C0F00
1C0F80
1C0780
1C03C0
3E01E0
FF81F8
ENDCHAR
STARTCHAR racute
ENCODING 341
SWIDTH 333 0
DWIDTH 11 0
BBX 10 22 1 0
BITMAP
00C0
01C0
0380
0600
0C00
1800
0000
1980
FBC0
3FC0
3C00
3800
3800
3800
3800
3800
3800
3800
3800
3800
3800
FE00
ENDCHAR
STARTCHAR Rcommaaccent
ENCODING 342
SWIDTH 667 0
DWIDTH 22 0
BBX 21 31 1 -8
BITMAP
FFF800
3C3E00
1C0F00
1C0780
1C0780
1C0380
1C0380
1C0380
1C0780
1C0700
1C1E00
1FF800
1CF000
1C7800
1C3C00
1C3C00
1C1E00
1C0F00
1C0F80
1C0780
1C03C0
3E01E0
FF81F8
000000
006000
00F000
00F000
007000
001000
002000
004000
ENDCHAR
STARTCHAR rcommaaccent
ENCODING 343
SWIDTH 333 0
DWIDTH 11 0
BBX 10 23 1 -8
BITMAP
1980
FBC0
3FC0
3C00
3800
3800
3800
3800
3800
3800
3800
3800
3800
3800
FE00
0000
1800
3C00
3C00
1C00
0400
0800
1000
ENDCHAR
STARTCHAR Rcaron
ENCODING 344
SWIDTH 667 0
DWIDTH 22 0
BBX 21 30 1 0
BITMAP
080400
0C0C00
073800
03F000
01E000
00C000
000000
FFF800
3C3E00
1C0F00
1C0780
1C0780
1C0380
1C0380
1C0380
1C0780
1C0700
1C1E00
1FF800
1CF000
1C7800
1C3C00
1C3C00
1C1E00
1C0F00
1C0F80
1C0780
1C03C0
3E01E0
FF81F8
ENDCHAR
STARTCHAR rcaron
ENCODING 345
SWIDTH 333 0
DWIDTH 11 0
BBX 10 22 1 0
BITMAP
8040
C0C0
7380
3F00
1E00
0C00
0000
1980
FBC0
3FC0
3C00
3800
3800
3800
3800
3800
3800
3800
3800
3800
3800
FE00
ENDCHAR
STARTCHAR Sacute
ENCODING 346
SWIDTH 556 0
DWIDTH 18 0
BBX 15 30 1 0
BITMAP
0030
0070
00E0
0180
0300
0600
0000
07E4
1C3C
381C
700C
7004
7006
7800
7C00
3E00
1F80
0FE0
07F0
01F8
007C
003E
001E
800E
800E
C00E
E00C
701C
7C78
67F0
ENDCHAR
STARTCHAR sacute
ENCODING 347
SWIDTH 389 0
DWIDTH 13 0
BBX 10 22 1 0
BITMAP
00C0
01C0
0380
0600
0C00
1800
0000
3E80
6380
C180
C080
E080
F000
7C00
3F00
0F80
03C0
81C0
80C0
C0C0
E180
BF00
ENDCHAR
STARTCHAR Scircumflex
ENCODING 348
SWIDTH 556 0
DWIDTH 18 0
BBX 15 30 1 0
BITMAP
0180
03C0
07E0
0E70
1818
1008
0000
07E4
1C3C
381C
700C
7004
7006
7800
7C00
3E00
1F80
0FE0
07F0
01F8
007C
003E
001E
800E
800E
C00E
E00C
701C
7C78
67F0
ENDCHAR
STARTCHAR scircumflex
ENCODING 349
SWIDTH 389 0
DWIDTH 13 0
BBX 10 22 1 0
BITMAP
0C00
1E00
3F00
7380
C0C0
8040
0000
3E80
6380
C180
C080
E080
F000
7C00
3F00
0F80
03C0
81C0
80C0
C0C0
E180
BF00
ENDCHAR
STARTCHAR Scedilla
ENCODING 350
SWIDTH 556 0
DWIDTH 18 0
BBX 15 30 1 -7
BITMAP
07E4
1C3C
381C
700C
7004
7006
7800
7C00
3E00
1F80
0FE0
07F0
01F8
007C
003E
001E
800E
800E
C00E
E00C
701C
7C78
67F0
0100
0300
03C0
00E0
0060
00E0
07C0
ENDCHAR
STARTCHAR scedilla
ENCODING 351
SWIDTH 389 0
DWIDTH 13 0
BBX 10 22 1 -7
BITMAP
3E80
6380
C180
C080
E080
F000
7C00
3F00
0F80
03C0
81C0
80C0
C0C0
E180
BF00
0800
1800
1E00
0700
0300
0700
3E00
ENDCHAR
STARTCHAR Scaron
ENCODING 352
SWIDTH 556 0
DWIDTH 18 0
BBX 15 27 1 0
BITMAP
2010
3030
1CE0
0FC0
0780
0300
0000
0000
07E4
1C3C
381C
700C
7004
7002
7802
3C00
3F00
0FE0
03F8
00FC
801E
800E
C00E
600C
701C
7C78
4FF0
ENDCHAR
STARTCHAR scaron
ENCODING 353
SWIDTH 389 0
DWIDTH 13 0
BBX 10 23 1 0
BITMAP
8040
C0C0
7380
3F00
1E00
0C00
0000
0000
3E80
6380
C180
C080
E080
F000
7C00
3F00
0F80
03C0
81C0
80C0
C0C0
E180
BF00
ENDCHAR
STARTCHAR Tcommaaccent
ENCODING 354
SWIDTH 611 0
DWIDTH 20 0
BBX 19 30 1 -7
BITMAP
FFFFE0
F0E1E0
C0E060
C0E060
80E020
80E020
00E000
00E000
00E000
00E000
00E000
00E000
00E000
00E000
00E000
00E000
00E000
00E000
00E000
00E000
00E000
01F000
07FC00
004000
00C000
00F000
003800
001800
003800
01F000
ENDCHAR
STARTCHAR tcommaaccent
ENCODING 355
SWIDTH 278 0
DWIDTH 9 0
BBX 9 26 0 -7
BITMAP
0800
0800
1800
3800
FF00
3800
3800
3800
3800
3800
3800
3800
3800
3800
3800
3800
3880
3F00
1C00
0800
1800
1E00
0700
0300
0700
3E00
ENDCHAR
STARTCHAR Tcaron
ENCODING 356
SWIDTH 611 0
DWIDTH 20 0
BBX 19 30 1 0
BITMAP
040200
060600
039C00
01F800
00F000
006000
000000
FFFFE0
F0E1E0
C0E060
C0E060
80E020
80E020
00E000
00E000
00E000
00E000
00E000
00E000
00E000
00E000
00E000
00E000
00E000
00E000
00E000
00E000
00E000
01F000
07FC00
ENDCHAR
STARTCHAR tcaron
ENCODING 357
SWIDTH 597 0
DWIDTH 20 0
BBX 16 23 0 0
BITMAP
0006
000F
000F
0007
0801
0802
1804
3800
FF00
3800
3800
3800
3800
3800
3800
3800
3800
3800
3800
3800
3880
3F00
1C00
ENDCHAR
STARTCHAR Tbar
ENCODING 358
SWIDTH 611 0
DWIDTH 20 0
BBX 19 23 1 0
BITMAP
FFFFE0
F0E1E0
C0E060
C0E060
80E020
80E020
00E000
00E000
00E000
00E000
07FC00
07FC00
00E000
00E000
00E000
00E000
00E000
00E000
00E000
00E000
00E000
01F000
07FC00
ENDCHAR
STARTCHAR tbar
ENCODING 359
SWIDTH 278 0
DWIDTH 9 0
BBX 9 19 0 0
BITMAP
0800
0800
1800
3800
FF00
3800
3800
3800
3800
3800
3800
FF80
FF80
3800
3800
3800
3880
3F00
1C00
ENDCHAR
STARTCHAR Utilde
ENCODING 360
SWIDTH 722 0
DWIDTH 24 0
BBX 22 28 1 0
BITMAP
038200
07C600
0C7C00
083800
000000
FF81FC
3E0070
1C0020
1C0020
1C0020
1C0020
1C0020
1C0020
1C0020
1C0020
1C0020
1C0020
1C0020
1C0020
1C0020
1C0020
1C0020
1C0020
1E0060
0E0040
0F00C0
07C380
01FE00
ENDCHAR
STARTCHAR utilde
ENCODING 361
SWIDTH 500 0
DWIDTH 17 0
BBX 16 20 0 0
BITMAP
0E08
1F18
31F0
20E0
0000
F87C
381C
381C
381C
381C
381C
381C
381C
381C
381C
381C
383C
3C5C
1FDF
0F8C
ENDCHAR
STARTCHAR Umacron
ENCODING 362
SWIDTH 722 0
DWIDTH 24 0
BBX 22 26 1 0
BITMAP
07FE00
07FE00
000000
FF81FC
3E0070
1C0020
1C0020
1C0020
1C0020
1C0020
1C0020
1C0020
1C0020
1C0020
1C0020
1C0020
1C0020
1C0020
1C0020
1C0020
1C0020
1E0060
0E0040
0F00C0
07C380
01FE00
ENDCHAR
STARTCHAR umacron
ENCODING 363
SWIDTH 500 0
DWIDTH 17 0
BBX 16 18 0 0
BITMAP
1FF8
1FF8
0000
F87C
381C
381C
381C
381C
381C
381C
381C
381C
381C
381C
383C
3C5C
1FDF
0F8C
ENDCHAR
STARTCHAR Ubreve
ENCODING 364
SWIDTH 722 0
DWIDTH 24 0
BBX 22 29 1 0
BITMAP
040400
060C00
031800
03F800
01F000
000000
FF81FC
3E0070
1C0020
1C0020
1C0020
1C0020
1C0020
1C0020
1C0020
1C0020
1C0020
1C0020
1C0020
1C0020
1C0020
1C0020
1C0020
1C0020
1E0060
0E0040
0F00C0
07C380
01FE00
ENDCHAR
STARTCHAR ubreve
ENCODING 365
SWIDTH 500 0
DWIDTH 17 0
BBX 16 21 0 0
BITMAP
1010
1830
0C60
0FE0
07C0
0000
F87C
381C
381C
381C
381C
381C
381C
381C
381C
381C
381C
383C
3C5C
1FDF
0F8C
ENDCHAR
STARTCHAR Uring
ENCODING 366
SWIDTH 722 0
DWIDTH 24 0
BBX 22 31 1 0
BITMAP
00E000
01F000
031800
020800
031800
01F000
00E000
000000
FF81FC
3E0070
1C0020
1C0020
1C0020
1C0020
1C0020
1C0020
1C0020
1C0020
1C0020
1C0020
1C0020
1C0020
1C0020
1C0020
1C0020
1C0020
1E0060
0E0040
0F00C0
07C380
01FE00
ENDCHAR
STARTCHAR uring
ENCODING 367
SWIDTH 500 0
DWIDTH 17 0
BBX 16 23 0 0
BITMAP
0380
07C0
0C60
0820
0C60
07C0
0380
0000
F87C
381C
381C
381C
381C
381C
381C
381C
381C
381C
381C
383C
3C5C
1FDF
0F8C
ENDCHAR
STARTCHAR Uhungarumlaut
ENCODING 368
SWIDTH 722 0
DWIDTH 24 0
BBX 22 30 1 0
BITMAP
003180
007380
00E700
018C00
031800
063000
000000
FF81FC
3E0070
1C0020
1C0020
1C0020
1C0020
1C0020
1C0020
1C0020
1C0020
1C0020
1C0020
1C0020
1C0020
1C0020
1C0020
1C0020
1C0020
1E0060
0E0040
0F00C0
07C380
01FE00
ENDCHAR
STARTCHAR uhungarumlaut
ENCODING 369
SWIDTH 500 0
DWIDTH 17 0
BBX 16 22 0 0
BITMAP
00C6
01CE
039C
0630
0C60
18C0
0000
F87C
381C
381C
381C
381C
381C
381C
381C
381C
381C
381C
383C
3C5C
1FDF
0F8C
ENDCHAR
STARTCHAR Uogonek
ENCODING 370
SWIDTH 722 0
DWIDTH 24 0
BBX 22 28 1 -5
BITMAP
FF81FC
3E0070
1C0020
1C0020
1C0020
1C0020
1C0020
1C0020
1C0020
1C0020
1C0020
1C0020
1C0020
1C0020
1C0020
1C0020
1C0020
1C0020
1E0060
0E0040
0F00C0
07C380
01FE00
004000
00C000
008400
00F800
007000
ENDCHAR
STARTCHAR uogonek
ENCODING 371
SWIDTH 500 0
DWIDTH 17 0
BBX 16 20 0 -5
BITMAP
F87C
381C
381C
381C
381C
381C
381C
381C
381C
381C
381C
383C
3C5C
1FDF
0F8C
0080
0180
0108
01F0
00E0
ENDCHAR
STARTCHAR Wcircumflex
ENCODING 372
SWIDTH 944 0
DWIDTH 32 0
BBX 31 30 1 0
BITMAP
00060000
000F0000
001F8000
0039C000
00606000
00402000
00000000
FF3FE0FE
7C0F8078
3C070030
1C078030
1E078060
1E038060
0E03C060
0F03C0C0
0703E0C0
0787E0C0
0786E180
0384F180
03CCF180
03CC7300
01D87B00
01D83B00
01F83E00
00F03E00
00F01C00
00E01C00
00601C00
00600800
00400800
ENDCHAR
STARTCHAR wcircumflex
ENCODING 373
SWIDTH 722 0
DWIDTH 24 0
BBX 21 22 1 0
BITMAP
006000
00F000
01F800
039C00
060600
040200
000000
FDFC78
707030
707030
383020
383860
183840
1C7840
1C5CC0
0CCC80
0E8F80
0F8F00
070700
070700
030600
020200
ENDCHAR
STARTCHAR Ycircumflex
ENCODING 374
SWIDTH 722 0
DWIDTH 24 0
BBX 22 30 1 0
BITMAP
006000
00F000
01F800
039C00
060600
040200
000000
FFC0FC
3F0038
1E0030
0F0060
0F80C0
078080
03C180
03C300
01E300
00F600
00FC00
007C00
003800
003800
003800
003800
003800
003800
003800
003800
003800
007C00
01FF00
ENDCHAR
STARTCHAR ycircumflex
ENCODING 375
SWIDTH 500 0
DWIDTH 17 0
BBX 15 29 1 -7
BITMAP
0300
0780
0FC0
1CE0
3030
2010
0000
FE1E
780C
380C
3C08
1C18
1E18
0E10
0E30
0720
0720
03E0
03C0
01C0
0180
0180
0100
0100
0300
0200
3E00
7C00
3800
ENDCHAR
STARTCHAR Ydieresis
ENCODING 376
SWIDTH 722 0
DWIDTH 24 0
BBX 22 25 1 0
BITMAP
038E00
038E00
038E00
000000
000000
000000
FFC0FC
3F0038
1E0060
0700C0
038180
01C300
00E600
007C00
003800
003800
003800
003800
003800
003800
003800
003800
003800
007C00
01FF00
ENDCHAR
STARTCHAR Zacute
ENCODING 377
SWIDTH 611 0
DWIDTH 20 0
BBX 19 30 1 0
BITMAP
000600
000E00
001C00
003000
006000
00C000
000000
3FFFE0
3803C0
600780
600780
400F00
401E00
001E00
003C00
007800
007800
00F000
01E000
01E000
03C000
03C000
078000
0F0000
0F0020
1E0020
3C0060
3C0060
7801C0
FFFFC0
ENDCHAR
STARTCHAR zacute
ENCODING 378
SWIDTH 444 0
DWIDTH 15 0
BBX 13 22 1 0
BITMAP
0030
0070
00E0
0180
0300
0600
0000
7FF0
60F0
40E0
41E0
03C0
0380
0780
0700
0E00
1E00
1C08
3808
7808
7018
FFF0
ENDCHAR
STARTCHAR Zdotaccent
ENCODING 379
SWIDTH 611 0
DWIDTH 20 0
BBX 19 27 1 0
BITMAP
007000
007000
007000
000000
3FFFE0
3803C0
600780
600780
400F00
401E00
001E00
003C00
007800
007800
00F000
01E000
01E000
03C000
03C000
078000
0F0000
0F0020
1E0020
3C0060
3C0060
7801C0
FFFFC0
ENDCHAR
STARTCHAR zdotaccent
ENCODING 380
SWIDTH 444 0
DWIDTH 15 0
BBX 13 19 1 0
BITMAP
0700
0700
0700
0000
7FF0
60F0
40E0
41E0
03C0
0380
0780
0700
0E00
1E00
1C08
3808
7808
7018
FFF0
ENDCHAR
STARTCHAR Zcaron
ENCODING 381
SWIDTH 611 0
DWIDTH 20 0
BBX 19 27 1 0
BITMAP
080400
0C0C00
073800
03F000
01E000
00C000
000000
000000
3FFFE0
3803C0
600780
600700
400E00
401E00
003C00
007800
00F000
00E000
01C000
03C000
078000
0F0020
1E0020
1C0060
3C0060
7801C0
FFFFC0
ENDCHAR
STARTCHAR zcaron
ENCODING 382
SWIDTH 444 0
DWIDTH 15 0
BBX 13 23 1 0
BITMAP
4020
6060
39C0
1F80
0F00
0600
0000
0000
7FF0
60F0
40E0
41E0
03C0
0380
0780
0700
0E00
1E00
1C08
3808
7808
7018
FFF0
ENDCHAR
STARTCHAR uni0186
ENCODING 390
SWIDTH 667 0
DWIDTH 22 0
BBX 20 23 1 0
BITMAP
0FF800
3C1E00
600700
C00380
8001C0
0001C0
0000E0
0000E0
0000F0
0000F0
0000F0
0000F0
0000F0
0000F0
0000F0
8000E0
8000E0
C001C0
C001C0
E00380
F00700
FC1E00
8FF800
ENDCHAR
STARTCHAR uni0189
ENCODING 393
SWIDTH 722 0
DWIDTH 24 0
BBX 22 23 1 0
BITMAP
FFFE00
3E0780
1C01C0
1C00E0
1C0070
1C0070
1C0038
1C0038
1C003C
1C003C
1C003C
FFC03C
FFC03C
1C003C
1C003C
1C0038
1C0038
1C0070
1C0070
1C00E0
1C01C0
3E0780
FFFE00
ENDCHAR
STARTCHAR uni018E
ENCODING 398
SWIDTH 611 0
DWIDTH 20 0
BBX 19 23 1 0
BITMAP
7FFFE0
780F80
600700
C00700
800700
800700
000700
000700
100700
100700
180700
1FFF00
180700
100700
100700
000700
000700
000700
400700
400700
600700
780F80
7FFFE0
ENDCHAR
STARTCHAR florin
ENCODING 402
SWIDTH 500 0
DWIDTH 17 0
BBX 16 29 0 -6
BITMAP
001E
0037
0067
0066
00E0
00E0
00C0
01C0
01C0
0FFC
01C0
01C0
01C0
0180
0180
0180
0380
0380
0380
0380
0380
0300
0300
0300
6200
E600
E400
6C00
3800
ENDCHAR
STARTCHAR uni0197
ENCODING 407
SWIDTH 333 0
DWIDTH 11 0
BBX 9 23 1 0
BITMAP
FF80
3E00
1C00
1C00
1C00
1C00
1C00
1C00
1C00
1C00
FF80
FF80
1C00
1C00
1C00
1C00
1C00
1C00
1C00
1C00
1C00
3E00
FF80
ENDCHAR
STARTCHAR uni019A
ENCODING 410
SWIDTH 278 0
DWIDTH 9 0
BBX 9 23 0 0
BITMAP
0C00
7C00
1C00
1C00
1C00
1C00
1C00
1C00
1C00
1C00
FF80
FF80
1C00
1C00
1C00
1C00
1C00
1C00
1C00
1C00
1C00
1C00
7F00
ENDCHAR
STARTCHAR uni019D
ENCODING 413
SWIDTH 722 0
DWIDTH 24 0
BBX 24 30 -1 -7
BITMAP
3E007F
0F001C
078008
07C008
07C008
05E008
04F008
04F008
047808
043C08
043E08
041E08
040F08
040788
0407C8
0403C8
0401E8
0700F8
070078
070078
070038
070018
070008
070000
070000
070000
060000
C60000
EC0000
780000
ENDCHAR
STARTCHAR uni019F
ENCODING 415
SWIDTH 722 0
DWIDTH 24 0
BBX 22 23 1 0
BITMAP
01FE00
078780
0E01C0
1C00E0
380070
380070
700038
700038
F0003C
F0003C
FFFFFC
FFFFFC
F0003C
F0003C
F0003C
700038
700038
380070
380070
1C00E0
0E01C0
078780
01FE00
ENDCHAR
STARTCHAR Ohorn
ENCODING 416
SWIDTH 722 0
DWIDTH 24 0
BBX 24 23 1 0
BITMAP
01FE06
07878F
0E01CF
1C00E7
380071
380072
70003C
700038
F0003C
F0003C
F0003C
F0003C
F0003C
F0003C
F0003C
700038
700038
380070
380070
1C00E0
0E01C0
078780
01FE00
ENDCHAR
STARTCHAR ohorn
ENCODING 417
SWIDTH 500 0
DWIDTH 16 0
BBX 17 15 1 0
BITMAP
078300
18E780
307780
703B80
603880
E01D00
E01E00
E01C00
E01C00
E01C00
701800
703800
383000
1C6000
078000
ENDCHAR
STARTCHAR uni01A7
ENCODING 423
SWIDTH 556 0
DWIDTH 18 0
BBX 15 23 1 0
BITMAP
4FC0
7870
7038
601C
401C
C01C
003C
007C
00F8
03F0
0FE0
1FC0
3F00
7C00
F800
F000
E002
E002
E006
600E
701C
3C7C
1FCC
ENDCHAR
STARTCHAR uni01A8
ENCODING 424
SWIDTH 389 0
DWIDTH 13 0
BBX 10 15 1 0
BITMAP
5F00
7180
60C0
40C0
41C0
03C0
0F80
3F00
7C00
F000
E040
C040
C0C0
61C0
3F40
ENDCHAR
STARTCHAR uni01A9
ENCODING 425
SWIDTH 592 0
DWIDTH 19 0
BBX 18 23 1 0
BITMAP
FFFF00
FFFF00
780300
3C0100
3E0180
1E0000
0F0000
078000
07C000
03C000
01E000
00C000
01C000
018000
030000
060000
0C0040
1C00C0
180080
300180
7FFF80
FFFF80
FFFF80
ENDCHAR
STARTCHAR uni01AE
ENCODING 430
SWIDTH 611 0
DWIDTH 20 0
BBX 19 30 1 -7
BITMAP
FFFFE0
F0E1E0
C0E060
C0E060
80E020
80E020
00E000
00E000
00E000
00E000
00E000
00E000
00E000
00E000
00E000
00E000
00E000
00E000
00E000
00E000
00E000
00E000
00E000
00E000
00E000
00E000
006000
006300
003700
001E00
ENDCHAR
STARTCHAR Uhorn
ENCODING 431
SWIDTH 722 0
DWIDTH 24 0
BBX 24 23 1 0
BITMAP
FF81FE
3E007F
1C002F
1C0027
1C0021
1C0022
1C0024
1C0020
1C0020
1C0020
1C0020
1C0020
1C0020
1C0020
1C0020
1C0020
1C0020
1C0020
1E0060
0E0040
0F00C0
07C380
01FE00
ENDCHAR
STARTCHAR uhorn
ENCODING 432
SWIDTH 500 0
DWIDTH 17 0
BBX 19 15 0 0
BITMAP
F87CC0
381DE0
381DE0
381CE0
381C20
381C40
381C80
381C00
381C00
381C00
381C00
383C00
3C5C00
1FDF00
0F8C00
ENDCHAR
STARTCHAR uni01B1
ENCODING 433
SWIDTH 768 0
DWIDTH 25 0
BBX 23 23 1 0
BITMAP
FFC7FE
FFC7FE
FFC7FE
C08206
818302
0701C0
0E00E0
1C0070
3C0078
380038
78003C
78003C
78003C
78003C
78003C
78003C
380038
3C0078
1C0070
1E00F0
0E00E0
038380
00FE00
ENDCHAR
STARTCHAR uni01B5
ENCODING 437
SWIDTH 611 0
DWIDTH 20 0
BBX 19 23 1 0
BITMAP
3FFFE0
3803C0
600780
600780
400F00
401E00
001E00
003C00
007800
007800
07FC00
07FC00
01E000
03C000
03C000
078000
0F0000
0F0020
1E0020
3C0060
3C0060
7801C0
FFFFC0
ENDCHAR
STARTCHAR uni01B6
ENCODING 438
SWIDTH 444 0
DWIDTH 15 0
BBX 13 15 1 0
BITMAP
7FF0
60F0
40E0
41E0
03C0
0380
3FE0
3FE0
0E00
1E00
1C08
3808
7808
7018
FFF0
ENDCHAR
STARTCHAR uni01BB
ENCODING 443
SWIDTH 500 0
DWIDTH 16 0
BBX 15 23 0 0
BITMAP
07E0
0FF0
1CF8
303C
203C
601C
401C
001C
001C
0018
FFFE
FFFE
0060
0060
00C0
0180
0300
0600
0C02
1806
3FFC
7FF8
FFF8
ENDCHAR
STARTCHAR uni01BC
ENCODING 444
SWIDTH 500 0
DWIDTH 16 0
BBX 13 23 1 0
BITMAP
0FF8
1FF0
1FE0
1000
3000
2000
7E00
7F80
7FC0
07E0
01E0
00F0
0070
0070
0030
0030
0030
0030
0060
0060
E0C0
F380
7E00
ENDCHAR
STARTCHAR uni01C0
ENCODING 448
SWIDTH 200 0
DWIDTH 7 0
BBX 2 23 2 0
BITMAP
C0
C0
C0
C0
C0
C0
C0
C0
C0
C0
C0
C0
C0
C0
C0
C0
C0
C0
C0
C0
C0
C0
C0
ENDCHAR
STARTCHAR uni01C2
ENCODING 450
SWIDTH 564 0
DWIDTH 19 0
BBX 16 23 1 -3
BITMAP
0180
0180
0180
0180
0180
0180
0180
FFFF
FFFF
0180
0180
0180
0180
0180
FFFF
FFFF
0180
0180
0180
0180
0180
0180
0180
ENDCHAR
STARTCHAR uni01C3
ENCODING 451
SWIDTH 333 0
DWIDTH 11 0
BBX 4 23 3 0
BITMAP
60
F0
F0
F0
F0
F0
60
60
60
60
60
60
60
60
60
60
60
00
00
60
F0
F0
60
ENDCHAR
STARTCHAR uni01CD
ENCODING 461
SWIDTH 722 0
DWIDTH 24 0
BBX 22 30 1 0
BITMAP
020100
030300
01CE00
00FC00
007800
003000
000000
003000
003000
007000
007800
007800
00FC00
00DC00
009C00
018E00
010E00
030F00
030700
020700
060780
060380
0FFFC0
0C03C0
1801C0
1801E0
3001E0
3000F0
7000F0
FC03FC
ENDCHAR
STARTCHAR uni01CE
ENCODING 462
SWIDTH 444 0
DWIDTH 15 0
BBX 13 22 1 0
BITMAP
4020
6060
39C0
1F80
0F00
0600
0000
1F80
31C0
70E0
70E0
60E0
03E0
0EE0
18E0
30E0
60E0
E0E0
E1E0
F2E8
7EF8
3C70
ENDCHAR
STARTCHAR uni01CF
ENCODING 463
SWIDTH 333 0
DWIDTH 11 0
BBX 10 30 1 0
BITMAP
8040
C0C0
7380
3F00
1E00
0C00
0000
FF80
3E00
1C00
1C00
1C00
1C00
1C00
1C00
1C00
1C00
1C00
1C00
1C00
1C00
1C00
1C00
1C00
1C00
1C00
1C00
1C00
3E00
FF80
ENDCHAR
STARTCHAR uni01D0
ENCODING 464
SWIDTH 278 0
DWIDTH 9 0
BBX 10 22 -1 0
BITMAP
8040
C0C0
7380
3F00
1E00
0C00
0000
0600
3E00
0E00
0E00
0E00
0E00
0E00
0E00
0E00
0E00
0E00
0E00
0E00
0E00
3F80
ENDCHAR
STARTCHAR uni01D1
ENCODING 465
SWIDTH 722 0
DWIDTH 24 0
BBX 22 30 1 0
BITMAP
020100
030300
01CE00
00FC00
007800
003000
000000
01FE00
078780
0E01C0
1C00E0
380070
380070
700038
700038
F0003C
F0003C
F0003C
F0003C
F0003C
F0003C
F0003C
700038
700038
380070
380070
1C00E0
0E01C0
078780
01FE00
ENDCHAR
STARTCHAR uni01D2
ENCODING 466
SWIDTH 500 0
DWIDTH 16 0
BBX 14 22 1 0
BITMAP
2010
3030
1CE0
0FC0
0780
0300
0000
0780
18E0
3070
7038
6038
E01C
E01C
E01C
E01C
E01C
7018
7038
3830
1C60
0780
ENDCHAR
STARTCHAR uni01D3
ENCODING 467
SWIDTH 722 0
DWIDTH 24 0
BBX 22 30 1 0
BITMAP
040200
060600
039C00
01F800
00F000
006000
000000
FF81FC
3E0070
1C0020
1C0020
1C0020
1C0020
1C0020
1C0020
1C0020
1C0020
1C0020
1C0020
1C0020
1C0020
1C0020
1C0020
1C0020
1C0020
1E0060
0E0040
0F00C0
07C380
01FE00
ENDCHAR
STARTCHAR uni01D4
ENCODING 468
SWIDTH 500 0
DWIDTH 17 0
BBX 16 22 0 0
BITMAP
1008
1818
0E70
07E0
03C0
0180
0000
F87C
381C
381C
381C
381C
381C
381C
381C
381C
381C
381C
383C
3C5C
1FDF
0F8C
ENDCHAR
STARTCHAR uni01D5
ENCODING 469
SWIDTH 722 0
DWIDTH 24 0
BBX 22 31 1 0
BITMAP
03FF00
03FF00
000000
01C700
01C700
01C700
000000
000000
FF81FC
3E0070
1C0020
1C0020
1C0020
1C0020
1C0020
1C0020
1C0020
1C0020
1C0020
1C0020
1C0020
1C0020
1C0020
1C0020
1C0020
1C0060
1E0060
0E0040
0F00C0
07C380
01FE00
ENDCHAR
STARTCHAR uni01D6
ENCODING 470
SWIDTH 500 0
DWIDTH 17 0
BBX 16 24 0 0
BITMAP
1FF8
1FF8
0000
1C70
1C70
1C70
0000
0000
0000
F87C
381C
381C
381C
381C
381C
381C
381C
381C
381C
381C
383C
3C7C
1FDF
0F98
ENDCHAR
STARTCHAR uni01D7
ENCODING 471
SWIDTH 722 0
DWIDTH 24 0
BBX 22 35 1 0
BITMAP
000300
000700
000E00
001800
003000
006000
000000
01C700
01C700
01C700
000000
000000
FF81FC
3E0070
1C0020
1C0020
1C0020
1C0020
1C0020
1C0020
1C0020
1C0020
1C0020
1C0020
1C0020
1C0020
1C0020
1C0020
1C0020
1C0060
1E0060
0E0040
0F00C0
07C380
01FE00
ENDCHAR
STARTCHAR uni01D8
ENCODING 472
SWIDTH 500 0
DWIDTH 17 0
BBX 16 28 0 0
BITMAP
0018
0038
0070
00C0
0180
0300
0000
1C70
1C70
1C70
0000
0000
0000
F87C
381C
381C
381C
381C
381C
381C
381C
381C
381C
381C
383C
3C7C
1FDF
0F98
ENDCHAR
STARTCHAR uni01D9
ENCODING 473
SWIDTH 722 0
DWIDTH 24 0
BBX 22 35 1 0
BITMAP
020100
030300
01CE00
00FC00
007800
003000
000000
01C700
01C700
01C700
000000
000000
FF81FC
3E0070
1C0020
1C0020
1C0020
1C0020
1C0020
1C0020
1C0020
1C0020
1C0020
1C0020
1C0020
1C0020
1C0020
1C0020
1C0020
1C0060
1E0060
0E0040
0F00C0
07C380
01FE00
ENDCHAR
STARTCHAR uni01DA
ENCODING 474
SWIDTH 500 0
DWIDTH 17 0
BBX 16 28 0 0
BITMAP
1008
1818
0E70
07E0
03C0
0180
0000
1C70
1C70
1C70
0000
0000
0000
F87C
381C
381C
381C
381C
381C
381C
381C
381C
381C
381C
383C
3C7C
1FDF
0F98
ENDCHAR
STARTCHAR uni01DB
ENCODING 475
SWIDTH 722 0
DWIDTH 24 0
BBX 22 35 1 0
BITMAP
030000
038000
01C000
006000
003000
001800
000000
01C700
01C700
01C700
000000
000000
FF81FC
3E0070
1C0020
1C0020
1C0020
1C0020
1C0020
1C0020
1C0020
1C0020
1C0020
1C0020
1C0020
1C0020
1C0020
1C0020
1C0020
1C0060
1E0060
0E0040
0F00C0
07C380
01FE00
ENDCHAR
STARTCHAR uni01DC
ENCODING 476
SWIDTH 500 0
DWIDTH 17 0
BBX 16 28 0 0
BITMAP
1800
1C00
0E00
0300
0180
00C0
0000
1C70
1C70
1C70
0000
0000
0000
F87C
381C
381C
381C
381C
381C
381C
381C
381C
381C
381C
383C
3C7C
1FDF
0F98
ENDCHAR
STARTCHAR uni01DD
ENCODING 477
SWIDTH 444 0
DWIDTH 15 0
BBX 12 15 1 0
BITMAP
0F00
3FC0
63E0
C0E0
8070
0070
0030
0030
0030
FFF0
E030
E060
7060
39C0
1F00
ENDCHAR
STARTCHAR uni01DE
ENCODING 478
SWIDTH 722 0
DWIDTH 24 0
BBX 22 31 1 0
BITMAP
03FF00
03FF00
000000
01C700
01C700
01C700
000000
000000
003000
003000
007000
007800
007800
00FC00
00DC00
009C00
018E00
010E00
030F00
030700
020700
060780
060380
0FFFC0
0C03C0
1801C0
1801E0
3001E0
3000F0
7000F0
FC03FC
ENDCHAR
STARTCHAR uni01DF
ENCODING 479
SWIDTH 444 0
DWIDTH 15 0
BBX 13 24 1 0
BITMAP
3FF0
3FF0
0000
38E0
38E0
38E0
0000
0000
0000
1F80
31C0
70E0
70E0
60E0
03E0
0EE0
18E0
30E0
60E0
E0E0
E1E0
F2E8
7EF8
3C70
ENDCHAR
STARTCHAR uni01E0
ENCODING 480
SWIDTH 722 0
DWIDTH 24 0
BBX 22 30 1 0
BITMAP
03FF00
03FF00
000000
007000
007000
007000
000000
003000
003000
007000
007800
007800
00FC00
00DC00
009C00
018E00
010E00
030F00
030700
020700
060780
060380
0FFFC0
0C03C0
1801C0
1801E0
3001E0
3000F0
7000F0
FC03FC
ENDCHAR
STARTCHAR uni01E1
ENCODING 481
SWIDTH 444 0
DWIDTH 15 0
BBX 13 22 1 0
BITMAP
7FE0
7FE0
0000
0700
0700
0700
0000
1F80
31C0
70E0
70E0
60E0
03E0
0EE0
18E0
30E0
60E0
E0E0
E1E0
F2E8
7EF8
3C70
ENDCHAR
STARTCHAR uni01E2
ENCODING 482
SWIDTH 889 0
DWIDTH 30 0
BBX 28 26 1 0
BITMAP
001FF800
001FF800
00000000
00FFFFE0
001F81E0
001F0060
00370020
00370020
00670000
00670000
00470080
00C70080
00C70180
01870380
0187FF80
03070380
03070180
07FF0080
06070080
0C070000
0C070010
18070010
18070030
30070060
300F81E0
FE3FFFE0
ENDCHAR
STARTCHAR uni01E3
ENCODING 483
SWIDTH 667 0
DWIDTH 22 0
BBX 19 18 1 0
BITMAP
07FE00
07FE00
000000
1F9F00
31F9C0
70E0C0
70E0E0
60E0E0
03FFE0
0EE000
18E000
30E000
60E000
E0E020
E1F060
F378C0
7E3F80
3C1F00
ENDCHAR
STARTCHAR uni01E4
ENCODING 484
SWIDTH 722 0
DWIDTH 24 0
BBX 24 23 1 0
BITMAP
01FF30
0787F0
0E00F0
1C0070
380030
380030
700010
700000
F00000
F00000
F00000
F003FC
F000F8
F00070
F00070
700070
700070
380070
3801FF
1C01FF
0E0070
0781E0
01FF80
ENDCHAR
STARTCHAR uni01E5
ENCODING 485
SWIDTH 500 0
DWIDTH 16 0
BBX 14 22 1 -7
BITMAP
0FC0
18FC
307C
7030
7030
7030
7030
3870
1CE0
0F80
1800
3000
7800
7FE0
3FF8
1FFC
FFFC
FFFC
C01C
F038
7FE0
1F80
ENDCHAR
STARTCHAR Gcaron
ENCODING 486
SWIDTH 722 0
DWIDTH 24 0
BBX 22 30 1 0
BITMAP
010080
018180
00E700
007E00
003C00
001800
000000
01FF30
0787F0
0E00F0
1C0070
380030
380030
700010
700000
F00000
F00000
F00000
F003FC
F000F8
F00070
F00070
700070
700070
380070
380070
1C0070
0E0070
0781E0
01FF80
ENDCHAR
STARTCHAR gcaron
ENCODING 487
SWIDTH 500 0
DWIDTH 16 0
BBX 14 29 1 -7
BITMAP
2010
3030
1CE0
0FC0
0780
0300
0000
0FC0
18FC
307C
7030
7030
7030
7030
3870
1CE0
0F80
1800
3000
7800
7FE0
3FF8
1FFC
600C
C00C
C01C
F038
7FE0
1F80
ENDCHAR
STARTCHAR uni01E8
ENCODING 488
SWIDTH 722 0
DWIDTH 24 0
BBX 23 30 1 0
BITMAP
040200
060600
039C00
01F800
00F000
006000
000000
FFC7F8
3E01E0
1C0180
1C0300
1C0600
1C0C00
1C1800
1C3000
1C6000
1CC000
1FC000
1FE000
1FF000
1E7800
1C3C00
1C1E00
1C0F00
1C0780
1C03C0
1C01E0
1C00F0
3E00F8
FFC7FE
ENDCHAR
STARTCHAR uni01E9
ENCODING 489
SWIDTH 500 0
DWIDTH 16 0
BBX 16 30 0 0
BITMAP
8040
C0C0
7380
3F00
1E00
0C00
0000
1800
F800
3800
3800
3800
3800
3800
3800
38FE
3870
3860
38C0
3980
3F00
3E00
3F00
3B80
39C0
38E0
38F0
3878
383C
FE7F
ENDCHAR
STARTCHAR uni01EA
ENCODING 490
SWIDTH 722 0
DWIDTH 24 0
BBX 22 28 1 -5
BITMAP
01FE00
078780
0E01C0
1C00E0
380070
380070
700038
700038
F0003C
F0003C
F0003C
F0003C
F0003C
F0003C
F0003C
700038
700038
380070
380070
1C00E0
0E01C0
078780
01FE00
002000
006000
004200
007C00
003800
ENDCHAR
STARTCHAR uni01EB
ENCODING 491
SWIDTH 500 0
DWIDTH 16 0
BBX 14 20 1 -5
BITMAP
0780
18E0
3070
7038
6038
E01C
E01C
E01C
E01C
E01C
7018
7038
3830
1C60
0780
0200
0600
0420
07C0
0380
ENDCHAR
STARTCHAR uni01EC
ENCODING 492
SWIDTH 722 0
DWIDTH 24 0
BBX 22 31 1 -5
BITMAP
03FF00
03FF00
000000
01FE00
078780
0E01C0
1C00E0
380070
380070
700038
700038
F0003C
F0003C
F0003C
F0003C
F0003C
F0003C
F0003C
700038
700038
380070
380070
1C00E0
0E01C0
078780
01FE00
002000
006000
004200
007C00
003800
ENDCHAR
STARTCHAR uni01ED
ENCODING 493
SWIDTH 500 0
DWIDTH 16 0
BBX 14 23 1 -5
BITMAP
3FF0
3FF0
0000
0780
18E0
3070
7038
6038
E01C
E01C
E01C
E01C
E01C
7018
7038
3830
1C60
0780
0200
0600
0420
07C0
0380
ENDCHAR
STARTCHAR uni01F0
ENCODING 496
SWIDTH 278 0
DWIDTH 9 0
BBX 11 29 -1 -7
BITMAP
4020
6060
39C0
1F80
0F00
0600
0000
0300
1F00
0700
0700
0700
0700
0700
0700
0700
0700
0700
0700
0700
0700
0700
0700
0700
0700
0600
C600
EC00
7800
ENDCHAR
STARTCHAR uni01F4
ENCODING 500
SWIDTH 722 0
DWIDTH 24 0
BBX 22 30 1 0
BITMAP
000300
000700
000E00
001800
003000
006000
000000
01FF30
0787F0
0E00F0
1C0070
380030
380030
700010
700000
F00000
F00000
F00000
F003FC
F000F8
F00070
F00070
700070
700070
380070
380070
1C0070
0E0070
0781E0
01FF80
ENDCHAR
STARTCHAR uni01F5
ENCODING 501
SWIDTH 500 0
DWIDTH 16 0
BBX 14 29 1 -7
BITMAP
0030
0070
00E0
0180
0300
0600
0000
0FC0
18FC
307C
7030
7030
7030
7030
3870
1CE0
0F80
1800
3000
7800
7FE0
3FF8
1FFC
600C
C00C
C01C
F038
7FE0
1F80
ENDCHAR
STARTCHAR uni01F8
ENCODING 504
SWIDTH 722 0
DWIDTH 24 0
BBX 22 30 1 0
BITMAP
060000
070000
038000
00C000
006000
003000
000000
F801FC
3C0070
1E0020
1F0020
1F0020
178020
13C020
13C020
11E020
10F020
10F820
107820
103C20
101E20
101F20
100F20
1007A0
1003E0
1001E0
1001E0
1000E0
380060
FE0020
ENDCHAR
STARTCHAR uni01F9
ENCODING 505
SWIDTH 500 0
DWIDTH 16 0
BBX 16 22 0 0
BITMAP
1800
1C00
0E00
0300
0180
00C0
0000
18F0
FBF8
3C3C
381C
381C
381C
381C
381C
381C
381C
381C
381C
381C
381C
FE7F
ENDCHAR
STARTCHAR Aringacute
ENCODING 506
SWIDTH 722 0
DWIDTH 24 0
BBX 22 37 1 0
BITMAP
000300
000700
000E00
001800
003000
006000
000000
007000
00F800
018C00
010400
018C00
00F800
007000
000000
003000
003000
007800
007800
00FC00
00DC00
009C00
018E00
010E00
030F00
030700
020700
060780
060380
0FFFC0
0C03C0
1801C0
1801E0
3001E0
3000F0
7000F0
FC03FC
ENDCHAR
STARTCHAR aringacute
ENCODING 507
SWIDTH 444 0
DWIDTH 15 0
BBX 13 30 1 0
BITMAP
0060
00E0
01C0
0300
0600
0C00
0000
0700
0F80
18C0
1040
18C0
0F80
0700
0000
1F80
31C0
70E0
70E0
60E0
03E0
0EE0
18E0
30E0
60E0
E0E0
E1E0
F2E8
7EF8
3C70
ENDCHAR
STARTCHAR AEacute
ENCODING 508
SWIDTH 889 0
DWIDTH 30 0
BBX 28 30 1 0
BITMAP
00001800
00003800
00007000
0000C000
00018000
00030000
00000000
00FFFFE0
001F81E0
001F0060
00370020
00370020
00670000
00670000
00470080
00C70080
00C70180
01870380
0187FF80
03070380
03070180
07FF0080
06070080
0C070000
0C070010
18070010
18070030
30070060
300F81E0
FE3FFFE0
ENDCHAR
STARTCHAR aeacute
ENCODING 509
SWIDTH 667 0
DWIDTH 22 0
BBX 19 22 1 0
BITMAP
000C00
001C00
003800
006000
00C000
018000
000000
1F9F00
31F9C0
70E0C0
70E0E0
60E0E0
03FFE0
0EE000
18E000
30E000
60E000
E0E020
E1F060
F378C0
7E3F80
3C1F00
ENDCHAR
STARTCHAR Oslashacute
ENCODING 510
SWIDTH 722 0
DWIDTH 24 0
BBX 22 34 1 -2
BITMAP
000180
000380
000700
000C00
001800
003000
000000
000010
000030
01FE60
0787C0
0E01C0
1C01E0
380370
380270
700638
700C38
F0083C
F0183C
F0303C
F0603C
F0403C
F0C03C
F0803C
718038
730038
3A0070
3E0070
1C00E0
1E01C0
378780
21FE00
600000
400000
ENDCHAR
STARTCHAR oslashacute
ENCODING 511
SWIDTH 500 0
DWIDTH 17 0
BBX 14 28 1 -3
BITMAP
0018
0038
0070
00C0
0180
0300
0000
0018
0010
0030
07A0
18E0
30F0
70B8
61B8
E11C
E11C
E31C
E21C
E61C
7418
7438
3C30
1C60
1F80
3000
2000
6000
ENDCHAR
STARTCHAR uni0200
ENCODING 512
SWIDTH 722 0
DWIDTH 24 0
BBX 22 30 1 0
BITMAP
0C6000
0E7000
073800
018C00
00C600
006300
000000
003000
003000
007000
007800
007800
00FC00
00DC00
009C00
018E00
010E00
030F00
030700
020700
060780
060380
0FFFC0
0C03C0
1801C0
1801E0
3001E0
3000F0
7000F0
FC03FC
ENDCHAR
STARTCHAR uni0201
ENCODING 513
SWIDTH 444 0
DWIDTH 15 0
BBX 14 22 0 0
BITMAP
C600
E700
7380
18C0
0C60
0630
0000
0FC0
18E0
3870
3870
3070
01F0
0770
0C70
1870
3070
7070
70F0
7974
3F7C
1E38
ENDCHAR
STARTCHAR uni0202
ENCODING 514
SWIDTH 722 0
DWIDTH 24 0
BBX 22 29 1 0
BITMAP
00F800
01FC00
018C00
030600
020200
000000
003000
003000
007000
007800
007800
00FC00
00DC00
009C00
018E00
010E00
030F00
030700
020700
060780
060380
0FFFC0
0C03C0
1801C0
1801E0
3001E0
3000F0
7000F0
FC03FC
ENDCHAR
STARTCHAR uni0203
ENCODING 515
SWIDTH 444 0
DWIDTH 15 0
BBX 13 21 1 0
BITMAP
0F80
1FC0
18C0
3060
2020
0000
1F80
31C0
70E0
70E0
60E0
03E0
0EE0
18E0
30E0
60E0
E0E0
E1E0
F2E8
7EF8
3C70
ENDCHAR
STARTCHAR uni0204
ENCODING 516
SWIDTH 611 0
DWIDTH 20 0
BBX 19 30 1 0
BITMAP
318000
39C000
1CE000
063000
031800
018C00
000000
FFFFC0
3E03C0
1C00C0
1C0040
1C0040
1C0000
1C0000
1C0000
1C0100
1C0100
1C0300
1FFF00
1C0300
1C0100
1C0100
1C0000
1C0000
1C0020
1C0020
1C0060
1C00C0
3E03C0
FFFFC0
ENDCHAR
STARTCHAR uni0205
ENCODING 517
SWIDTH 444 0
DWIDTH 15 0
BBX 13 22 0 0
BITMAP
C600
E700
7380
18C0
0C60
0630
0000
07C0
1CE0
3070
3038
6038
7FF8
6000
6000
6000
7000
7008
3818
3E30
1FE0
0780
ENDCHAR
STARTCHAR uni0206
ENCODING 518
SWIDTH 611 0
DWIDTH 20 0
BBX 19 29 1 0
BITMAP
03E000
07F000
063000
0C1800
080800
000000
FFFFC0
3E03C0
1C00C0
1C0040
1C0040
1C0000
1C0000
1C0000
1C0100
1C0100
1C0300
1FFF00
1C0300
1C0100
1C0100
1C0000
1C0000
1C0020
1C0020
1C0060
1C00C0
3E03C0
FFFFC0
ENDCHAR
STARTCHAR uni0207
ENCODING 519
SWIDTH 444 0
DWIDTH 15 0
BBX 12 21 1 0
BITMAP
0F80
1FC0
18C0
3060
2020
0000
0F80
39C0
60E0
6070
C070
FFF0
C000
C000
C000
E000
E010
7030
7C60
3FC0
0F00
ENDCHAR
STARTCHAR uni0208
ENCODING 520
SWIDTH 333 0
DWIDTH 11 0
BBX 12 30 -2 0
BITMAP
C600
E700
7380
18C0
0C60
0630
0000
1FF0
07C0
0380
0380
0380
0380
0380
0380
0380
0380
0380
0380
0380
0380
0380
0380
0380
0380
0380
0380
0380
07C0
1FF0
ENDCHAR
STARTCHAR uni0209
ENCODING 521
SWIDTH 278 0
DWIDTH 9 0
BBX 12 22 -3 0
BITMAP
C600
E700
7380
18C0
0C60
0630
0000
0180
0F80
0380
0380
0380
0380
0380
0380
0380
0380
0380
0380
0380
0380
0FE0
ENDCHAR
STARTCHAR uni020A
ENCODING 522
SWIDTH 333 0
DWIDTH 11 0
BBX 9 29 1 0
BITMAP
3E00
7F00
6300
C180
8080
0000
FF80
3E00
1C00
1C00
1C00
1C00
1C00
1C00
1C00
1C00
1C00
1C00
1C00
1C00
1C00
1C00
1C00
1C00
1C00
1C00
1C00
3E00
FF80
ENDCHAR
STARTCHAR uni020B
ENCODING 523
SWIDTH 278 0
DWIDTH 9 0
BBX 9 21 0 0
BITMAP
3E00
7F00
6300
C180
8080
0000
0C00
7C00
1C00
1C00
1C00
1C00
1C00
1C00
1C00
1C00
1C00
1C00
1C00
1C00
7F00
ENDCHAR
STARTCHAR uni020C
ENCODING 524
SWIDTH 722 0
DWIDTH 24 0
BBX 22 30 1 0
BITMAP
0C6000
0E7000
073800
018C00
00C600
006300
000000
01FE00
078780
0E01C0
1C00E0
380070
380070
700038
700038
F0003C
F0003C
F0003C
F0003C
F0003C
F0003C
F0003C
700038
700038
380070
380070
1C00E0
0E01C0
078780
01FE00
ENDCHAR
STARTCHAR uni020D
ENCODING 525
SWIDTH 500 0
DWIDTH 16 0
BBX 14 22 1 0
BITMAP
C600
E700
7380
18C0
0C60
0630
0000
0780
18E0
3070
7038
6038
E01C
E01C
E01C
E01C
E01C
7018
7038
3830
1C60
0780
ENDCHAR
STARTCHAR uni020E
ENCODING 526
SWIDTH 722 0
DWIDTH 24 0
BBX 22 29 1 0
BITMAP
007C00
00FE00
00C600
018300
010100
000000
01FE00
078780
0E01C0
1C00E0
380070
380070
700038
700038
F0003C
F0003C
F0003C
F0003C
F0003C
F0003C
F0003C
700038
700038
380070
380070
1C00E0
0E01C0
078780
01FE00
ENDCHAR
STARTCHAR uni020F
ENCODING 527
SWIDTH 500 0
DWIDTH 16 0
BBX 14 21 1 0
BITMAP
07C0
0FE0
0C60
1830
1010
0000
0780
18E0
3070
7038
6038
E01C
E01C
E01C
E01C
E01C
7018
7038
3830
1C60
0780
ENDCHAR
STARTCHAR uni0210
ENCODING 528
SWIDTH 667 0
DWIDTH 22 0
BBX 21 30 1 0
BITMAP
318000
39C000
1CE000
063000
031800
018C00
000000
FFF800
3C3E00
1C0F00
1C0780
1C0780
1C0380
1C0380
1C0380
1C0780
1C0700
1C1E00
1FF800
1CF000
1C7800
1C3C00
1C3C00
1C1E00
1C0F00
1C0F80
1C0780
1C03C0
3E01E0
FF81F8
ENDCHAR
STARTCHAR uni0211
ENCODING 529
SWIDTH 333 0
DWIDTH 11 0
BBX 12 22 -1 0
BITMAP
C600
E700
7380
18C0
0C60
0630
0000
0660
3EF0
0FF0
0F00
0E00
0E00
0E00
0E00
0E00
0E00
0E00
0E00
0E00
0E00
3F80
ENDCHAR
STARTCHAR uni0212
ENCODING 530
SWIDTH 667 0
DWIDTH 22 0
BBX 21 29 1 0
BITMAP
01F000
03F800
031800
060C00
040400
000000
FFF800
3C3E00
1C0F00
1C0780
1C0780
1C0380
1C0380
1C0380
1C0780
1C0700
1C1E00
1FF800
1CF000
1C7800
1C3C00
1C3C00
1C1E00
1C0F00
1C0F80
1C0780
1C03C0
3E01E0
FF81F8
ENDCHAR
STARTCHAR uni0213
ENCODING 531
SWIDTH 333 0
DWIDTH 11 0
BBX 10 21 1 0
BITMAP
1F00
3F80
3180
60C0
4040
0000
1980
FBC0
3FC0
3C00
3800
3800
3800
3800
3800
3800
3800
3800
3800
3800
FE00
ENDCHAR
STARTCHAR uni0214
ENCODING 532
SWIDTH 722 0
DWIDTH 24 0
BBX 22 30 1 0
BITMAP
18C000
1CE000
0E7000
031800
018C00
00C600
000000
FF81FC
3E0070
1C0020
1C0020
1C0020
1C0020
1C0020
1C0020
1C0020
1C0020
1C0020
1C0020
1C0020
1C0020
1C0020
1C0020
1C0020
1C0020
1E0060
0E0040
0F00C0
07C380
01FE00
ENDCHAR
STARTCHAR uni0215
ENCODING 533
SWIDTH 500 0
DWIDTH 17 0
BBX 16 22 0 0
BITMAP
C600
E700
7380
18C0
0C60
0630
0000
F87C
381C
381C
381C
381C
381C
381C
381C
381C
381C
381C
383C
3C5C
1FDF
0F8C
ENDCHAR
STARTCHAR uni0216
ENCODING 534
SWIDTH 722 0
DWIDTH 24 0
BBX 22 29 1 0
BITMAP
01F000
03F800
031800
060C00
040400
000000
FF81FC
3E0070
1C0020
1C0020
1C0020
1C0020
1C0020
1C0020
1C0020
1C0020
1C0020
1C0020
1C0020
1C0020
1C0020
1C0020
1C0020
1C0020
1E0060
0E0040
0F00C0
07C380
01FE00
ENDCHAR
STARTCHAR uni0217
ENCODING 535
SWIDTH 500 0
DWIDTH 17 0
BBX 16 21 0 0
BITMAP
07C0
0FE0
0C60
1830
1010
0000
F87C
381C
381C
381C
381C
381C
381C
381C
381C
381C
381C
383C
3C5C
1FDF
0F8C
ENDCHAR
STARTCHAR Scommaaccent
ENCODING 536
SWIDTH 556 0
DWIDTH 18 0
BBX 15 31 1 -8
BITMAP
07E4
1C3C
381C
700C
7004
7006
7800
7C00
3E00
1F80
0FE0
07F0
01F8
007C
003E
001E
800E
800E
C00E
E00C
701C
7C78
67F0
0000
0300
0780
0780
0380
0080
0100
0200
ENDCHAR
STARTCHAR scommaaccent
ENCODING 537
SWIDTH 389 0
DWIDTH 13 0
BBX 10 23 1 -8
BITMAP
3E80
6380
C180
C080
E080
F000
7C00
3F00
0F80
03C0
81C0
80C0
C0C0
E180
BF00
0000
0C00
1E00
1E00
0E00
0200
0400
0800
ENDCHAR
STARTCHAR Tcommaaccent
ENCODING 538
SWIDTH 611 0
DWIDTH 20 0
BBX 19 31 1 -8
BITMAP
FFFFE0
F0E1E0
C0E060
C0E060
80E020
80E020
00E000
00E000
00E000
00E000
00E000
00E000
00E000
00E000
00E000
00E000
00E000
00E000
00E000
00E000
00E000
01F000
07FC00
000000
006000
00F000
00F000
007000
001000
002000
004000
ENDCHAR
STARTCHAR tcommaaccent
ENCODING 539
SWIDTH 278 0
DWIDTH 9 0
BBX 9 27 0 -8
BITMAP
0800
0800
1800
3800
FF00
3800
3800
3800
3800
3800
3800
3800
3800
3800
3800
3800
3880
3F00
1C00
0000
1800
3C00
3C00
1C00
0400
0800
1000
ENDCHAR
STARTCHAR uni021E
ENCODING 542
SWIDTH 722 0
DWIDTH 24 0
BBX 22 30 1 0
BITMAP
020100
030300
01CE00
00FC00
007800
003000
000000
FF87FC
3E01F0
1C00E0
1C00E0
1C00E0
1C00E0
1C00E0
1C00E0
1C00E0
1C00E0
1C00E0
1FFFE0
1C00E0
1C00E0
1C00E0
1C00E0
1C00E0
1C00E0
1C00E0
1C00E0
1C00E0
3E01F0
FF87FC
ENDCHAR
STARTCHAR uni021F
ENCODING 543
SWIDTH 500 0
DWIDTH 16 0
BBX 16 30 0 0
BITMAP
8040
C0C0
7380
3F00
1E00
0C00
0000
1800
F800
3800
3800
3800
3800
3800
3800
39F0
3BF8
3E3C
3C1C
381C
381C
381C
381C
381C
381C
381C
381C
381C
381C
FE7F
ENDCHAR
STARTCHAR uni0226
ENCODING 550
SWIDTH 722 0
DWIDTH 24 0
BBX 22 27 1 0
BITMAP
007000
007000
007000
000000
003000
003000
007000
007800
007800
00FC00
00DC00
009C00
018E00
010E00
030F00
030700
020700
060780
060380
0FFFC0
0C03C0
1801C0
1801E0
3001E0
3000F0
7000F0
FC03FC
ENDCHAR
STARTCHAR uni0227
ENCODING 551
SWIDTH 444 0
DWIDTH 15 0
BBX 13 19 1 0
BITMAP
0700
0700
0700
0000
1F80
31C0
70E0
70E0
60E0
03E0
0EE0
18E0
30E0
60E0
E0E0
E1E0
F2E8
7EF8
3C70
ENDCHAR
STARTCHAR uni0228
ENCODING 552
SWIDTH 611 0
DWIDTH 20 0
BBX 19 30 1 -7
BITMAP
FFFFC0
3E03C0
1C00C0
1C0040
1C0040
1C0000
1C0000
1C0000
1C0100
1C0100
1C0300
1FFF00
1C0300
1C0100
1C0100
1C0000
1C0000
1C0020
1C0020
1C0060
1C00C0
3E03C0
FFFFC0
004000
00C000
00F000
003800
001800
003800
01F000
ENDCHAR
STARTCHAR uni0229
ENCODING 553
SWIDTH 444 0
DWIDTH 15 0
BBX 12 22 1 -7
BITMAP
0F80
39C0
60E0
6070
C070
FFF0
C000
C000
C000
E000
E010
7030
7C60
3FC0
0F00
0400
0C00
0F00
0380
0180
0380
1F00
ENDCHAR
STARTCHAR uni022A
ENCODING 554
SWIDTH 722 0
DWIDTH 24 0
BBX 22 31 1 0
BITMAP
03FF00
03FF00
000000
01C700
01C700
01C700
000000
000000
01FE00
078780
0E01C0
1C00E0
380070
380070
700038
700038
F0003C
F0003C
F0003C
F0003C
F0003C
F0003C
F0003C
700038
700038
380070
380070
1C00E0
0E01C0
078780
01FE00
ENDCHAR
STARTCHAR uni022B
ENCODING 555
SWIDTH 500 0
DWIDTH 16 0
BBX 14 24 1 0
BITMAP
3FF0
3FF0
0000
38E0
38E0
38E0
0000
0000
0000
0780
18E0
3070
7038
6038
E01C
E01C
E01C
E01C
E01C
7018
7038
3830
1C60
0780
ENDCHAR
STARTCHAR uni022C
ENCODING 556
SWIDTH 722 0
DWIDTH 24 0
BBX 22 31 1 0
BITMAP
03FF00
03FF00
000000
00E080
01F980
033F00
020E00
000000
01FE00
078780
0E01C0
1C00E0
380070
380070
700038
700038
F0003C
F0003C
F0003C
F0003C
F0003C
F0003C
F0003C
700038
700038
380070
380070
1C00E0
0E01C0
078780
01FE00
ENDCHAR
STARTCHAR uni022D
ENCODING 557
SWIDTH 500 0
DWIDTH 16 0
BBX 14 24 1 0
BITMAP
3FF0
3FF0
0000
1C10
3E30
63E0
41C0
0000
0000
0780
18E0
3070
7038
6038
E01C
E01C
E01C
E01C
E01C
7018
7038
3830
1C60
0780
ENDCHAR
STARTCHAR uni022E
ENCODING 558
SWIDTH 722 0
DWIDTH 24 0
BBX 22 27 1 0
BITMAP
003800
003800
003800
000000
01FE00
078780
0E01C0
1C00E0
380070
380070
700038
700038
F0003C
F0003C
F0003C
F0003C
F0003C
F0003C
F0003C
700038
700038
380070
380070
1C00E0
0E01C0
078780
01FE00
ENDCHAR
STARTCHAR uni022F
ENCODING 559
SWIDTH 500 0
DWIDTH 16 0
BBX 14 19 1 0
BITMAP
0380
0380
0380
0000
0780
18E0
3070
7038
6038
E01C
E01C
E01C
E01C
E01C
7018
7038
3830
1C60
0780
ENDCHAR
STARTCHAR uni0230
ENCODING 560
SWIDTH 722 0
DWIDTH 24 0
BBX 22 30 1 0
BITMAP
03FF00
03FF00
000000
003800
003800
003800
000000
01FE00
078780
0E01C0
1C00E0
380070
380070
700038
700038
F0003C
F0003C
F0003C
F0003C
F0003C
F0003C
F0003C
700038
700038
380070
380070
1C00E0
0E01C0
078780
01FE00
ENDCHAR
STARTCHAR uni0231
ENCODING 561
SWIDTH 500 0
DWIDTH 16 0
BBX 14 22 1 0
BITMAP
3FF0
3FF0
0000
0380
0380
0380
0000
0780
18E0
3070
7038
6038
E01C
E01C
E01C
E01C
E01C
7018
7038
3830
1C60
0780
ENDCHAR
STARTCHAR uni0232
ENCODING 562
SWIDTH 722 0
DWIDTH 24 0
BBX 22 26 1 0
BITMAP
07FE00
07FE00
000000
FFC0FC
3F0038
1E0030
0F0060
0F80C0
078080
03C180
03C300
01E300
00F600
00FC00
007C00
003800
003800
003800
003800
003800
003800
003800
003800
003800
007C00
01FF00
ENDCHAR
STARTCHAR uni0233
ENCODING 563
SWIDTH 500 0
DWIDTH 17 0
BBX 15 25 1 -7
BITMAP
3FF0
3FF0
0000
FE1E
780C
380C
3C08
1C18
1E18
0E10
0E30
0720
0720
03E0
03C0
01C0
0180
0180
0100
0100
0300
0200
3E00
7C00
3800
ENDCHAR
STARTCHAR uni0250
ENCODING 592
SWIDTH 444 0
DWIDTH 15 0
BBX 13 15 1 0
BITMAP
71E0
FBF0
BA78
3C38
3838
3830
3860
38C0
3B80
3E00
3830
3870
3870
1C60
0FC0
ENDCHAR
STARTCHAR uni0254
ENCODING 596
SWIDTH 444 0
DWIDTH 15 0
BBX 12 15 1 0
BITMAP
1F00
31C0
70E0
7060
6070
0030
0030
0030
0030
0070
8070
C0E0
63E0
3FC0
0F80
ENDCHAR
STARTCHAR uni0258
ENCODING 600
SWIDTH 444 0
DWIDTH 15 0
BBX 12 15 1 0
BITMAP
1F00
39C0
7060
E060
E030
FFF0
0030
0030
0030
0070
8070
C0E0
63E0
3FC0
0F00
ENDCHAR
STARTCHAR uni0259
ENCODING 601
SWIDTH 444 0
DWIDTH 15 0
BBX 12 15 1 0
BITMAP
0F00
3FC0
63E0
C0E0
8070
0070
0030
0030
0030
FFF0
E030
E060
7060
39C0
1F00
ENDCHAR
STARTCHAR uni025F
ENCODING 607
SWIDTH 333 0
DWIDTH 11 0
BBX 12 23 0 -8
BITMAP
1FF0
07C0
0380
0380
0380
0380
0380
0380
0380
0380
0380
0380
0380
0380
3FF0
0380
0380
0380
0380
C300
E300
E600
7C00
ENDCHAR
STARTCHAR uni0265
ENCODING 613
SWIDTH 500 0
DWIDTH 16 0
BBX 16 23 0 -8
BITMAP
FE7F
381C
381C
381C
381C
381C
381C
381C
381C
381C
381C
383C
3C7C
1FDC
0F9C
001C
001C
001C
001C
001C
001C
001F
0018
ENDCHAR
STARTCHAR uni0275
ENCODING 629
SWIDTH 500 0
DWIDTH 16 0
BBX 14 15 1 0
BITMAP
0780
18E0
3070
7038
6038
E01C
FFFC
FFFC
E01C
E01C
7018
7038
3830
1C60
0780
ENDCHAR
STARTCHAR uni0279
ENCODING 633
SWIDTH 333 0
DWIDTH 11 0
BBX 10 15 1 0
BITMAP
1FC0
0700
0700
0700
0700
0700
0700
0700
0700
0700
0700
0F00
FF00
F7C0
6600
ENDCHAR
STARTCHAR uni0287
ENCODING 647
SWIDTH 278 0
DWIDTH 9 0
BBX 9 19 0 0
BITMAP
1C00
7E00
8E00
0E00
0E00
0E00
0E00
0E00
0E00
0E00
0E00
0E00
0E00
0E00
7F80
0E00
0C00
0800
0800
ENDCHAR
STARTCHAR uni0288
ENCODING 648
SWIDTH 278 0
DWIDTH 9 0
BBX 10 26 0 -7
BITMAP
0800
0800
1800
3800
FF00
3800
3800
3800
3800
3800
3800
3800
3800
3800
3800
3800
3800
3800
3800
3800
3800
3800
1800
18C0
0DC0
0780
ENDCHAR
STARTCHAR uni0289
ENCODING 649
SWIDTH 500 0
DWIDTH 17 0
BBX 16 15 0 0
BITMAP
F87C
381C
381C
381C
381C
381C
FFFF
FFFF
381C
381C
381C
383C
3C5C
1FDF
0F8C
ENDCHAR
STARTCHAR uni028C
ENCODING 652
SWIDTH 500 0
DWIDTH 17 0
BBX 15 15 1 0
BITMAP
0100
0300
0380
0780
07C0
05C0
0DC0
08E0
18E0
1070
3070
3078
2038
603C
F8FE
ENDCHAR
STARTCHAR uni028D
ENCODING 653
SWIDTH 722 0
DWIDTH 24 0
BBX 21 15 1 0
BITMAP
020200
030600
070700
070700
078F80
0F8B80
099980
19D1C0
10F1C0
10E0C0
30E0E0
2060E0
607070
607070
F1FDF8
ENDCHAR
STARTCHAR uni028E
ENCODING 654
SWIDTH 500 0
DWIDTH 17 0
BBX 15 22 1 0
BITMAP
0038
007C
00F8
0080
0180
0100
0100
0300
0300
0700
0780
0F80
09C0
09C0
18E0
10E0
30F0
3070
2078
6038
603C
F0FE
ENDCHAR
STARTCHAR uni029E
ENCODING 670
SWIDTH 500 0
DWIDTH 16 0
BBX 16 23 0 -8
BITMAP
FE7F
3C1C
1E1C
0F1C
071C
039C
01DC
00FC
007C
00FC
019C
031C
061C
0E1C
7F1C
001C
001C
001C
001C
001C
001C
001F
0018
ENDCHAR
STARTCHAR uni02B9
ENCODING 697
SWIDTH 247 0
DWIDTH 8 0
BBX 6 9 1 16
BITMAP
18
3C
3C
78
70
60
E0
C0
80
ENDCHAR
STARTCHAR uni02BA
ENCODING 698
SWIDTH 411 0
DWIDTH 13 0
BBX 12 9 1 15
BITMAP
1C70
1C70
3CF0
38E0
71C0
71C0
E380
C300
8200
ENDCHAR
STARTCHAR uni02BB
ENCODING 699
SWIDTH 333 0
DWIDTH 11 0
BBX 4 7 3 16
BITMAP
20
40
80
E0
F0
F0
60
ENDCHAR
STARTCHAR afii57929
ENCODING 700
SWIDTH 333 0
DWIDTH 11 0
BBX 4 7 3 16
BITMAP
60
F0
F0
70
10
20
40
ENDCHAR
STARTCHAR afii64937
ENCODING 701
SWIDTH 333 0
DWIDTH 11 0
BBX 4 7 3 16
BITMAP
60
F0
F0
E0
80
40
20
ENDCHAR
STARTCHAR circumflex
ENCODING 710
SWIDTH 333 0
DWIDTH 11 0
BBX 10 6 0 17
BITMAP
0C00
1E00
3F00
7380
C0C0
8040
ENDCHAR
STARTCHAR caron
ENCODING 711
SWIDTH 333 0
DWIDTH 11 0
BBX 10 6 0 17
BITMAP
8040
C0C0
7380
3F00
1E00
0C00
ENDCHAR
STARTCHAR uni02C8
ENCODING 712
SWIDTH 180 0
DWIDTH 6 0
BBX 3 8 1 15
BITMAP
E0
E0
E0
E0
40
40
40
40
ENDCHAR
STARTCHAR macron
ENCODING 713
SWIDTH 333 0
DWIDTH 11 0
BBX 10 2 0 18
BITMAP
FFC0
FFC0
ENDCHAR
STARTCHAR uni02CA
ENCODING 714
SWIDTH 333 0
DWIDTH 11 0
BBX 7 6 3 17
BITMAP
06
0E
1C
30
60
C0
ENDCHAR
STARTCHAR uni02CB
ENCODING 715
SWIDTH 333 0
DWIDTH 11 0
BBX 7 6 1 17
BITMAP
C0
E0
70
18
0C
06
ENDCHAR
STARTCHAR uni02CD
ENCODING 717
SWIDTH 333 0
DWIDTH 11 0
BBX 10 2 0 -3
BITMAP
FFC0
FFC0
ENDCHAR
STARTCHAR uni02CE
ENCODING 718
SWIDTH 333 0
DWIDTH 11 0
BBX 7 6 1 -7
BITMAP
C0
E0
70
18
0C
06
ENDCHAR
STARTCHAR uni02CF
ENCODING 719
SWIDTH 333 0
DWIDTH 11 0
BBX 7 6 3 -7
BITMAP
06
0E
1C
30
60
C0
ENDCHAR
STARTCHAR breve
ENCODING 728
SWIDTH 333 0
DWIDTH 11 0
BBX 9 5 1 17
BITMAP
8080
C180
6300
7F00
3E00
ENDCHAR
STARTCHAR dotaccent
ENCODING 729
SWIDTH 333 0
DWIDTH 11 0
BBX 3 3 4 18
BITMAP
E0
E0
E0
ENDCHAR
STARTCHAR ring
ENCODING 730
SWIDTH 333 0
DWIDTH 11 0
BBX 7 7 2 16
BITMAP
38
7C
C6
82
C6
7C
38
ENDCHAR
STARTCHAR ogonek
ENCODING 731
SWIDTH 333 0
DWIDTH 11 0
BBX 6 5 2 -5
BITMAP
40
C0
84
F8
70
ENDCHAR
STARTCHAR tilde
ENCODING 732
SWIDTH 333 0
DWIDTH 11 0
BBX 11 4 0 17
BITMAP
3820
7C60
C7C0
8380
ENDCHAR
STARTCHAR hungarumlaut
ENCODING 733
SWIDTH 333 0
DWIDTH 11 0
BBX 12 6 0 17
BITMAP
0630
0E70
1CE0
3180
6300
C600
ENDCHAR
STARTCHAR uni02EE
ENCODING 750
SWIDTH 444 0
DWIDTH 15 0
BBX 11 7 2 16
BITMAP
60C0
F1E0
F1E0
70E0
1020
2040
4080
ENDCHAR
STARTCHAR uni0374
ENCODING 884
SWIDTH 247 0
DWIDTH 8 0
BBX 6 9 1 16
BITMAP
18
3C
3C
78
70
60
E0
C0
80
ENDCHAR
STARTCHAR uni0375
ENCODING 885
SWIDTH 247 0
DWIDTH 8 0
BBX 6 9 1 -10
BITMAP
04
0C
1C
18
38
78
F0
F0
60
ENDCHAR
STARTCHAR uni037E
ENCODING 894
SWIDTH 278 0
DWIDTH 9 0
BBX 4 18 2 -3
BITMAP
60
F0
F0
60
00
00
00
00
00
00
00
60
F0
F0
70
10
20
40
ENDCHAR
STARTCHAR tonos
ENCODING 900
SWIDTH 333 0
DWIDTH 11 0
BBX 7 6 3 17
BITMAP
06
0E
1C
30
60
C0
ENDCHAR
STARTCHAR dieresistonos
ENCODING 901
SWIDTH 333 0
DWIDTH 11 0
BBX 9 10 1 18
BITMAP
0180
0380
0700
0C00
1800
3000
0000
E380
E380
E380
ENDCHAR
STARTCHAR Alphatonos
ENCODING 902
SWIDTH 722 0
DWIDTH 23 0
BBX 26 23 -5 0
BITMAP
06010000
0E038000
1C038000
30038000
6007C000
C007C000
0005E000
000DE000
000CE000
0018F000
00187000
00107800
00307800
00303800
00603C00
007FFC00
00401C00
00C01E00
00C00E00
01800F00
01800F00
03800F80
07E03FC0
ENDCHAR
STARTCHAR anoteleia
ENCODING 903
SWIDTH 250 0
DWIDTH 8 0
BBX 4 4 2 7
BITMAP
60
F0
F0
60
ENDCHAR
STARTCHAR Epsilontonos
ENCODING 904
SWIDTH 611 0
DWIDTH 20 0
BBX 23 23 -4 0
BITMAP
07FFFC
0FFFFC
1CE01C
30E00C
60E00C
C0E000
00E000
00E010
00E010
00E010
00E070
00FFF0
00E030
00E010
00E010
00E000
00E000
00E002
00E002
00E006
00E00E
01FFFC
07FFFC
ENDCHAR
STARTCHAR Etatonos
ENCODING 905
SWIDTH 722 0
DWIDTH 24 0
BBX 27 23 -4 0
BITMAP
07FC3FE0
0FF00F80
1CE00700
30E00700
60E00700
C0E00700
00E00700
00E00700
00E00700
00E00700
00E00700
00FFFF00
00E00700
00E00700
00E00700
00E00700
00E00700
00E00700
00E00700
00E00700
00E00700
01F00F80
07FC3FE0
ENDCHAR
STARTCHAR Iotatonos
ENCODING 906
SWIDTH 333 0
DWIDTH 11 0
BBX 15 23 -5 0
BITMAP
07FE
0EF8
1C70
3070
6070
C070
0070
0070
0070
0070
0070
0070
0070
0070
0070
0070
0070
0070
0070
0070
0070
00F8
03FE
ENDCHAR
STARTCHAR Omicrontonos
ENCODING 908
SWIDTH 722 0
DWIDTH 23 0
BBX 27 23 -4 0
BITMAP
060FF000
0E3C3C00
1C700E00
30E00700
61E00780
C3C00380
03C003C0
038001C0
078001E0
078001E0
078001E0
078001E0
078001E0
078001E0
078001E0
038001C0
03C003C0
01C00380
01E00780
00E00700
00700E00
003E7C00
000FF000
ENDCHAR
STARTCHAR Upsilontonos
ENCODING 910
SWIDTH 690 0
DWIDTH 23 0
BBX 28 23 -5 0
BITMAP
07FE0FF0
0FF00380
1CF80300
30780700
607C0600
C03C0C00
001E0C00
001F1800
000F1800
0007B000
0007E000
0003E000
0001C000
0001C000
0001C000
0001C000
0001C000
0001C000
0001C000
0001C000
0001C000
0003E000
000FF800
ENDCHAR
STARTCHAR Omegatonos
ENCODING 911
SWIDTH 768 0
DWIDTH 25 0
BBX 28 23 -4 0
BITMAP
0607F000
0E1C1C00
1C700700
30F00780
60E00380
C1E003C0
01C001C0
03C001E0
03C001E0
03C001E0
03C001E0
03C001E0
03C001E0
01C001C0
01E003C0
00E00380
00700700
00380E00
040C1810
06041030
07FE3FF0
07FE3FF0
07FE3FF0
ENDCHAR
STARTCHAR iotadieresistonos
ENCODING 912
SWIDTH 329 0
DWIDTH 11 0
BBX 10 28 0 0
BITMAP
0180
0380
0700
0C00
1800
3000
0000
E380
E380
E380
0000
0400
7C00
FC00
3C00
1C00
1C00
1C00
1C00
1C00
1C00
1C00
1C00
1C00
1C40
1CC0
0FC0
0F00
ENDCHAR
STARTCHAR Alpha
ENCODING 913
SWIDTH 722 0
DWIDTH 23 0
BBX 21 23 0 0
BITMAP
002000
007000
007000
007000
00F800
00F800
00BC00
01BC00
019C00
031E00
030E00
020F00
060F00
060700
0C0780
0FFF80
080380
1803C0
1801C0
3001E0
3001E0
7001F0
FC07F8
ENDCHAR
STARTCHAR Beta
ENCODING 914
SWIDTH 667 0
DWIDTH 22 0
BBX 18 23 1 0
BITMAP
FFE000
3FFE00
1C1F00
1C0700
1C0780
1C0780
1C0780
1C0780
1C0700
1C0F00
1C3E00
1FF800
1C1F00
1C0780
1C0380
1C03C0
1C03C0
1C03C0
1C03C0
1C0780
1C0F80
3FFF00
FFF800
ENDCHAR
STARTCHAR Gamma
ENCODING 915
SWIDTH 603 0
DWIDTH 20 0
BBX 18 23 1 0
BITMAP
FFFF80
3FFFC0
3C01C0
1C00C0
1C0040
1C0040
1C0000
1C0000
1C0000
1C0000
1C0000
1C0000
1C0000
1C0000
1C0000
1C0000
1C0000
1C0000
1C0000
1C0000
1C0000
3E0000
FF8000
ENDCHAR
STARTCHAR Delta
ENCODING 916
SWIDTH 612 0
DWIDTH 20 0
BBX 19 22 0 0
BITMAP
006000
006000
00F000
00F000
00F000
01F800
013800
033C00
023C00
061C00
041E00
0C0E00
0C0F00
080F00
180700
100780
300380
2003C0
6003C0
4001C0
FFFFE0
FFFFE0
ENDCHAR
STARTCHAR Epsilon
ENCODING 917
SWIDTH 611 0
DWIDTH 20 0
BBX 18 23 1 0
BITMAP
FFFF80
3FFF80
1C0380
1C0180
1C0180
1C0000
1C0000
1C0200
1C0200
1C0200
1C0E00
1FFE00
1C0600
1C0200
1C0200
1C0000
1C0000
1C0040
1C0040
1C00C0
1C01C0
3FFF80
FFFF80
ENDCHAR
STARTCHAR Zeta
ENCODING 918
SWIDTH 611 0
DWIDTH 20 0
BBX 19 23 1 0
BITMAP
7FFFC0
7803C0
600780
600F00
400F00
401E00
003E00
003C00
007800
00F800
00F000
01E000
01E000
03C000
07C000
078000
0F0000
1F0020
1E0020
3E0060
3C00E0
7803C0
FFFFC0
ENDCHAR
STARTCHAR Eta
ENCODING 919
SWIDTH 722 0
DWIDTH 24 0
BBX 22 23 1 0
BITMAP
FF87FC
3E01F0
1C00E0
1C00E0
1C00E0
1C00E0
1C00E0
1C00E0
1C00E0
1C00E0
1C00E0
1FFFE0
1C00E0
1C00E0
1C00E0
1C00E0
1C00E0
1C00E0
1C00E0
1C00E0
1C00E0
3E01F0
FF87FC
ENDCHAR
STARTCHAR Theta
ENCODING 920
SWIDTH 741 0
DWIDTH 24 0
BBX 22 23 1 0
BITMAP
01FE00
078780
0E01C0
1C00E0
3C00F0
380070
780078
700038
700038
F2013C
F3033C
F3FF3C
F3FF3C
F3033C
F2013C
700038
700038
780078
380070
1C00E0
0E01C0
078780
01FE00
ENDCHAR
STARTCHAR Iota
ENCODING 921
SWIDTH 333 0
DWIDTH 11 0
BBX 9 23 1 0
BITMAP
FF80
3E00
1C00
1C00
1C00
1C00
1C00
1C00
1C00
1C00
1C00
1C00
1C00
1C00
1C00
1C00
1C00
1C00
1C00
1C00
1C00
3E00
FF80
ENDCHAR
STARTCHAR Kappa
ENCODING 922
SWIDTH 722 0
DWIDTH 23 0
BBX 22 23 1 0
BITMAP
FF8FF0
3E03C0
1C0380
1C0300
1C0600
1C0C00
1C1800
1C3000
1C6000
1DC000
1FE000
1FE000
1EF000
1C7800
1C7C00
1C3E00
1C1F00
1C0F80
1C0780
1C03C0
1C01E0
3E01F0
FF8FFC
ENDCHAR
STARTCHAR Lambda
ENCODING 923
SWIDTH 686 0
DWIDTH 22 0
BBX 21 22 0 0
BITMAP
002000
003000
007000
007000
00F800
00F800
00BC00
01BC00
019C00
011E00
030E00
030F00
020F00
060700
060780
0C0380
0C03C0
0803C0
1801C0
1801E0
3801F0
FE07F8
ENDCHAR
STARTCHAR Mu
ENCODING 924
SWIDTH 889 0
DWIDTH 29 0
BBX 27 23 1 0
BITMAP
FE000FE0
1E000F80
1F000F00
1F001F00
1F001F00
1F803700
1B803700
1BC02700
1BC06700
19E06700
19E0C700
18E0C700
18F08700
18718700
18798700
187B0700
183F0700
183F0700
181E0700
181E0700
180C0700
380C0F80
FF0C3FE0
ENDCHAR
STARTCHAR Nu
ENCODING 925
SWIDTH 722 0
DWIDTH 23 0
BBX 22 23 1 0
BITMAP
FC03FC
3E0060
1E0060
1F0060
1F8060
1FC060
1BC060
19E060
19F060
18F060
187860
183C60
183C60
181E60
180F60
180FE0
1807E0
1803E0
1801E0
1801E0
1800E0
380060
FF0020
ENDCHAR
STARTCHAR Xi
ENCODING 926
SWIDTH 645 0
DWIDTH 21 0
BBX 19 23 1 0
BITMAP
7FFFC0
7FFFC0
7FFFC0
6000C0
400040
000000
000000
000000
080200
0C0600
0FFE00
0FFE00
0FFE00
080200
080200
000000
000000
C00060
C00060
400040
7FFFC0
7FFFC0
7FFFC0
ENDCHAR
STARTCHAR Omicron
ENCODING 927
SWIDTH 722 0
DWIDTH 23 0
BBX 22 23 1 0
BITMAP
01FE00
078780
0E01C0
1C00E0
3C00F0
780070
780078
700038
F0003C
F0003C
F0003C
F0003C
F0003C
F0003C
F0003C
700038
780078
380070
3C00F0
1C00E0
0E01C0
07CF80
01FE00
ENDCHAR
STARTCHAR Pi
ENCODING 928
SWIDTH 768 0
DWIDTH 25 0
BBX 23 23 1 0
BITMAP
FFFFFE
3FFFF8
1C0070
1C0070
1C0070
1C0070
1C0070
1C0070
1C0070
1C0070
1C0070
1C0070
1C0070
1C0070
1C0070
1C0070
1C0070
1C0070
1C0070
1C0070
1C0070
3E00F8
FF83FE
ENDCHAR
STARTCHAR Rho
ENCODING 929
SWIDTH 556 0
DWIDTH 18 0
BBX 17 23 1 0
BITMAP
FFF000
3FFE00
1C0F00
1C0780
1C0780
1C0380
1C0380
1C0380
1C0380
1C0780
1C0700
1E3E00
1FFC00
1C0000
1C0000
1C0000
1C0000
1C0000
1C0000
1C0000
1C0000
3E0000
FF8000
ENDCHAR
STARTCHAR Sigma
ENCODING 931
SWIDTH 592 0
DWIDTH 19 0
BBX 18 23 1 0
BITMAP
FFFF00
FFFF00
780300
3C0100
3E0180
1E0000
0F0000
078000
07C000
03C000
01E000
00C000
01C000
018000
030000
060000
0C0040
1C00C0
180080
300180
7FFF80
FFFF80
FFFF80
ENDCHAR
STARTCHAR Tau
ENCODING 932
SWIDTH 611 0
DWIDTH 20 0
BBX 19 23 1 0
BITMAP
FFFFE0
F8E3E0
C0E0E0
C0E060
80E020
80E020
00E000
00E000
00E000
00E000
00E000
00E000
00E000
00E000
00E000
00E000
00E000
00E000
00E000
00E000
00E000
01F000
07FC00
ENDCHAR
STARTCHAR Upsilon
ENCODING 933
SWIDTH 690 0
DWIDTH 23 0
BBX 23 23 0 0
BITMAP
FFC1FE
3E0070
1F0060
0F00E0
0F80C0
078180
03C180
03E300
01E300
00F600
00FC00
007C00
003800
003800
003800
003800
003800
003800
003800
003800
003800
007C00
01FF00
ENDCHAR
STARTCHAR Phi
ENCODING 934
SWIDTH 763 0
DWIDTH 25 0
BBX 23 23 1 0
BITMAP
01FF00
007C00
003800
003800
07FFC0
1F39F0
3C3878
78383C
78383C
F0381E
F0381E
F0381E
F0381E
F0381E
78381C
78383C
3C3878
1F39F0
07FFC0
003800
003800
007C00
01FF00
ENDCHAR
STARTCHAR Chi
ENCODING 935
SWIDTH 722 0
DWIDTH 23 0
BBX 22 23 0 0
BITMAP
FFC3FC
3F00E0
1F00C0
0F01C0
078180
07C300
03C600
01E600
01EC00
00F800
007800
007800
007C00
00DE00
019E00
018F00
030F80
060780
0E03C0
0C03E0
1801E0
3801F0
FE07FC
ENDCHAR
STARTCHAR Psi
ENCODING 936
SWIDTH 795 0
DWIDTH 26 0
BBX 25 23 0 0
BITMAP
E0FF8380
703E0700
381C0E00
381C0E00
3C1C1E00
3C1C1E00
3C1C1E00
3C1C1E00
3C1C1E00
1C1C1C00
1E1C3C00
0F9CF800
03FFE000
001C0000
001C0000
001C0000
001C0000
001C0000
001C0000
001C0000
001C0000
003E0000
00FF8000
ENDCHAR
STARTCHAR Omega
ENCODING 937
SWIDTH 768 0
DWIDTH 25 0
BBX 23 23 1 0
BITMAP
00FE00
038380
0E00E0
1E00F0
1C0070
3C0078
380038
78003C
78003C
78003C
78003C
78003C
78003C
380038
3C0078
1C0070
0E00E0
0701C0
818302
C08206
FFC7FE
FFC7FE
FFC7FE
ENDCHAR
STARTCHAR Iotadieresis
ENCODING 938
SWIDTH 333 0
DWIDTH 11 0
BBX 9 27 1 0
BITMAP
E380
E380
E380
0000
FF80
3E00
1C00
1C00
1C00
1C00
1C00
1C00
1C00
1C00
1C00
1C00
1C00
1C00
1C00
1C00
1C00
1C00
1C00
1C00
1C00
3E00
FF80
ENDCHAR
STARTCHAR Upsilondieresis
ENCODING 939
SWIDTH 690 0
DWIDTH 23 0
BBX 23 27 0 0
BITMAP
038E00
038E00
038E00
000000
FFC1FE
3E0070
1F0060
0F00E0
0F80C0
078180
03C180
03E300
01E300
00F600
00FC00
007C00
003800
003800
003800
003800
003800
003800
003800
003800
003800
007C00
01FF00
ENDCHAR
STARTCHAR alphatonos
ENCODING 940
SWIDTH 631 0
DWIDTH 20 0
BBX 19 24 1 0
BITMAP
000C00
001C00
003800
006000
00C000
018000
000000
0FC180
1CE180
383380
701380
701700
F01F00
E00F00
E00E00
E00E00
E00E00
E01C00
F01E00
F01E20
703A20
7873E0
3CE1C0
0FC1C0
ENDCHAR
STARTCHAR epsilontonos
ENCODING 941
SWIDTH 439 0
DWIDTH 14 0
BBX 12 25 1 -1
BITMAP
0060
00E0
01C0
0300
0600
0C00
0000
1F80
39E0
70E0
E0E0
E040
E000
7000
7800
1F80
7800
F000
E000
E000
E010
F030
7830
3FE0
0F80
ENDCHAR
STARTCHAR etatonos
ENCODING 942
SWIDTH 603 0
DWIDTH 20 0
BBX 17 31 0 -7
BITMAP
001800
003800
007000
00C000
018000
030000
000000
183800
7CFE00
DFDE00
CF0F00
8F0700
0E0700
0E0700
0E0700
0E0700
0E0700
0E0700
0E0700
0E0700
0E0700
0E0700
0E0700
0E0700
000700
000700
000700
000700
000700
000300
000380
ENDCHAR
STARTCHAR iotatonos
ENCODING 943
SWIDTH 329 0
DWIDTH 11 0
BBX 10 24 0 0
BITMAP
0180
0380
0700
0C00
1800
3000
0000
0400
7C00
FC00
3C00
1C00
1C00
1C00
1C00
1C00
1C00
1C00
1C00
1C00
1C40
1CC0
0FC0
0F00
ENDCHAR
STARTCHAR upsilondieresistonos
ENCODING 944
SWIDTH 576 0
DWIDTH 19 0
BBX 17 29 0 0
BITMAP
001800
003800
007000
00C000
018000
030000
000000
1C7000
1C7000
1C7000
000000
001000
3C1800
7C1C00
FC0600
CE0700
8E0300
0E0300
0E0380
0E0380
0E0380
0E0380
0E0380
0E0300
0E0700
070700
070E00
039C00
01F800
ENDCHAR
STARTCHAR alpha
ENCODING 945
SWIDTH 631 0
DWIDTH 20 0
BBX 19 17 1 0
BITMAP
0FC180
1CE180
383380
701380
701700
F01F00
E00F00
E00E00
E00E00
E00E00
E01C00
F01E00
F01E20
703A20
7873E0
3CE1C0
0FC1C0
ENDCHAR
STARTCHAR beta
ENCODING 946
SWIDTH 549 0
DWIDTH 18 0
BBX 14 32 2 -7
BITMAP
0F80
19E0
30E0
7070
6070
6070
6070
6070
6070
6060
67C0
67E0
6070
6038
6038
603C
601C
601C
601C
601C
601C
6038
7878
6FF0
63C0
6000
6000
6000
6000
E000
E000
E000
ENDCHAR
STARTCHAR gamma
ENCODING 947
SWIDTH 411 0
DWIDTH 13 0
BBX 15 24 -2 -7
BITMAP
380E
7C0E
7C0E
C61C
861C
821C
0338
0338
0130
0130
0160
01E0
01C0
00C0
00C0
0180
01C0
01C0
03C0
03C0
03C0
03C0
0380
0180
ENDCHAR
STARTCHAR delta
ENCODING 948
SWIDTH 494 0
DWIDTH 16 0
BBX 14 25 1 0
BITMAP
0F80
1FE0
30F0
2078
3030
3800
1C00
0E00
0780
03C0
07F0
1CF0
3878
7038
F03C
E01C
E01C
E01C
E01C
F01C
F038
7038
7870
1FE0
0780
ENDCHAR
STARTCHAR epsilon
ENCODING 949
SWIDTH 439 0
DWIDTH 14 0
BBX 12 18 1 -1
BITMAP
1F80
39E0
70E0
E0E0
E040
E000
7000
7800
1F80
7800
F000
E000
E000
E010
F030
7830
3FE0
0F80
ENDCHAR
STARTCHAR zeta
ENCODING 950
SWIDTH 494 0
DWIDTH 16 0
BBX 13 32 2 -7
BITMAP
1800
3870
30F0
33E0
3FC0
0E00
0C00
1800
1000
3000
2000
6000
4000
4000
C000
C000
C000
C000
C000
E000
6000
7FC0
3FF0
1FF8
0FF8
0018
0008
0008
0018
03F8
07F0
03E0
ENDCHAR
STARTCHAR eta
ENCODING 951
SWIDTH 603 0
DWIDTH 20 0
BBX 17 24 0 -7
BITMAP
183800
7CFE00
DFDE00
CF0F00
8F0700
0E0700
0E0700
0E0700
0E0700
0E0700
0E0700
0E0700
0E0700
0E0700
0E0700
0E0700
0E0700
000700
000700
000700
000700
000700
000300
000380
ENDCHAR
STARTCHAR theta
ENCODING 952
SWIDTH 521 0
DWIDTH 17 0
BBX 14 23 1 0
BITMAP
0780
1CE0
1870
3030
7038
7038
F03C
E01C
E01C
E01C
E01C
FFFC
FFFC
E01C
E01C
E01C
E01C
7038
7038
7038
3870
1CE0
0FC0
ENDCHAR
STARTCHAR iota
ENCODING 953
SWIDTH 329 0
DWIDTH 11 0
BBX 10 17 0 0
BITMAP
0400
7C00
FC00
3C00
1C00
1C00
1C00
1C00
1C00
1C00
1C00
1C00
1C00
1C40
1CC0
0FC0
0F00
ENDCHAR
STARTCHAR kappa
ENCODING 954
SWIDTH 549 0
DWIDTH 18 0
BBX 17 17 1 0
BITMAP
080700
F81F80
F83F80
386300
18C000
198000
1B0000
1F8000
1F8000
1BC000
19E000
18F000
18F000
187800
183C00
183E00
187F80
ENDCHAR
STARTCHAR lambda
ENCODING 955
SWIDTH 549 0
DWIDTH 18 0
BBX 17 25 1 0
BITMAP
380000
7C0000
7E0000
C60000
C30000
830000
010000
010000
018000
038000
038000
078000
07C000
0FC000
0EC000
1E4000
1C6000
1C6000
386000
386080
703080
703980
E03F00
E01F00
E00E00
ENDCHAR
STARTCHAR mu
ENCODING 956
SWIDTH 500 0
DWIDTH 17 0
BBX 16 22 0 -7
BITMAP
F87C
381C
381C
381C
381C
381C
381C
381C
381C
381C
381C
383C
3C7C
3FDF
2F98
2000
7000
7000
7000
7000
7000
2000
ENDCHAR
STARTCHAR nu
ENCODING 957
SWIDTH 521 0
DWIDTH 17 0
BBX 16 17 -1 0
BITMAP
1806
F807
3C07
1C07
1C07
1E06
0E06
0E0C
070C
0718
0798
03B0
03A0
01E0
01C0
01C0
0080
ENDCHAR
STARTCHAR xi
ENCODING 958
SWIDTH 493 0
DWIDTH 16 0
BBX 14 33 1 -7
BITMAP
3000
60C0
63E0
67C0
3F80
1800
3000
2000
2000
3000
31F0
1FF0
1FE0
3000
6000
4000
C000
8000
8000
8000
C000
C000
F800
7FF0
3FFC
1FFC
000C
0004
0004
000C
03F8
03F8
01E0
ENDCHAR
STARTCHAR omicron
ENCODING 959
SWIDTH 549 0
DWIDTH 18 0
BBX 15 17 1 0
BITMAP
07C0
1C70
3038
703C
701C
E01E
E00E
E00E
E00E
E00E
E00E
F00E
701C
781C
3838
1E70
0FE0
ENDCHAR
STARTCHAR pi
ENCODING 960
SWIDTH 549 0
DWIDTH 18 0
BBX 17 17 0 0
BITMAP
0FFF80
3FFF80
3FFF80
663800
C63800
063000
063000
063000
063000
063000
043000
0C3000
0C3080
1C3980
3C3F00
3C1F00
381E00
ENDCHAR
STARTCHAR rho
ENCODING 961
SWIDTH 549 0
DWIDTH 18 0
BBX 14 25 2 -7
BITMAP
07C0
1FE0
30F0
6078
6078
E03C
E03C
E01C
E01C
E01C
E01C
E018
E018
E038
F070
F8E0
EFC0
E700
E000
E000
E000
E000
E000
E000
E000
ENDCHAR
STARTCHAR sigma1
ENCODING 962
SWIDTH 439 0
DWIDTH 14 0
BBX 13 24 1 -7
BITMAP
03E0
0FF0
1FF0
3000
6000
4000
C000
C000
8000
8000
8000
C000
C000
F000
7FF0
3FF0
1FF8
0018
0008
0008
0018
07F0
07F0
07C0
ENDCHAR
STARTCHAR sigma
ENCODING 963
SWIDTH 603 0
DWIDTH 20 0
BBX 18 18 1 0
BITMAP
03FFC0
0FFFC0
3FFFC0
7C3000
781800
F01C00
F00E00
E00F00
E00700
E00700
F00700
700700
700F00
380E00
3C1E00
1E3800
07F000
01C000
ENDCHAR
STARTCHAR tau
ENCODING 964
SWIDTH 439 0
DWIDTH 14 0
BBX 14 17 0 0
BITMAP
0FFC
3FFC
3FFC
6380
C380
C380
0300
0300
0300
0300
0300
0308
0388
0398
03F8
01F0
01E0
ENDCHAR
STARTCHAR upsilon
ENCODING 965
SWIDTH 576 0
DWIDTH 19 0
BBX 17 18 0 0
BITMAP
001000
3C1800
7C1C00
FC0600
CE0700
8E0300
0E0300
0E0380
0E0380
0E0380
0E0380
0E0380
0E0300
0E0700
070700
070E00
039C00
01F800
ENDCHAR
STARTCHAR phi
ENCODING 966
SWIDTH 603 0
DWIDTH 20 0
BBX 18 24 1 -7
BITMAP
063C00
1E7E00
38FF00
70C780
70C380
F0C3C0
E0C1C0
E0C1C0
E0C1C0
E0C1C0
F0C1C0
F0C180
70C380
78C300
38C700
1EDC00
07F800
00C000
00C000
00C000
00C000
00C000
00C000
00C000
ENDCHAR
STARTCHAR chi
ENCODING 967
SWIDTH 549 0
DWIDTH 18 0
BBX 17 25 0 -7
BITMAP
180000
3C0E00
7E0E00
461E00
C21C00
C33C00
033800
017000
017000
01E000
01E000
01C000
03C000
038000
07C000
07C000
0F4000
0E4000
1E6000
1C6180
3C6180
383300
783F00
703E00
701E00
ENDCHAR
STARTCHAR psi
ENCODING 968
SWIDTH 686 0
DWIDTH 22 0
BBX 22 24 0 -7
BITMAP
F0303C
783078
3C30F0
1C30E0
1C30E0
1C30E0
1C30E0
1C30E0
1E30E0
1E31E0
1E31E0
0E31C0
0E31C0
0631C0
073380
03B700
01FE00
003000
003000
003000
003000
003000
003000
003000
ENDCHAR
STARTCHAR omega
ENCODING 969
SWIDTH 686 0
DWIDTH 22 0
BBX 20 17 1 0
BITMAP
0F0E00
1C0780
3801C0
7061E0
70E0E0
E0E0F0
E0E0F0
E0E070
E0E070
E0E070
E0E070
E04070
E0E0F0
70E0E0
71B1E0
3F1FC0
1E0F00
ENDCHAR
STARTCHAR iotadieresis
ENCODING 970
SWIDTH 329 0
DWIDTH 11 0
BBX 10 21 0 0
BITMAP
E380
E380
E380
0000
0400
7C00
FC00
3C00
1C00
1C00
1C00
1C00
1C00
1C00
1C00
1C00
1C00
1C40
1CC0
0FC0
0F00
ENDCHAR
STARTCHAR upsilondieresis
ENCODING 971
SWIDTH 576 0
DWIDTH 19 0
BBX 17 22 0 0
BITMAP
1C7000
1C7000
1C7000
000000
001000
3C1800
7C1C00
FC0600
CE0700
8E0300
0E0300
0E0380
0E0380
0E0380
0E0380
0E0380
0E0300
0E0700
070700
070E00
039C00
01F800
ENDCHAR
STARTCHAR omicrontonos
ENCODING 972
SWIDTH 549 0
DWIDTH 18 0
BBX 15 24 1 0
BITMAP
0030
0070
00E0
0180
0300
0600
0000
07C0
1C70
3038
703C
701C
E01E
E00E
E00E
E00E
E00E
E00E
F00E
701C
781C
3838
1E70
0FE0
ENDCHAR
STARTCHAR upsilontonos
ENCODING 973
SWIDTH 576 0
DWIDTH 19 0
BBX 17 25 0 0
BITMAP
003000
007000
00E000
018000
030000
060000
000000
001000
3C1800
7C1C00
FC0600
CE0700
8E0300
0E0300
0E0380
0E0380
0E0380
0E0380
0E0380
0E0300
0E0700
070700
070E00
039C00
01F800
ENDCHAR
STARTCHAR omegatonos
ENCODING 974
SWIDTH 686 0
DWIDTH 22 0
BBX 20 24 1 0
BITMAP
000600
000E00
001C00
003000
006000
00C000
000000
0F0E00
1C0780
3801C0
7061E0
70E0E0
E0E0F0
E0E0F0
E0E070
E0E070
E0E070
E0E070
E04070
E0E0F0
70E0E0
71B1E0
3F1FC0
1E0F00
ENDCHAR
STARTCHAR theta1
ENCODING 977
SWIDTH 631 0
DWIDTH 20 0
BBX 20 23 0 0
BITMAP
007800
00DC00
008600
008700
008300
00C380
004380
1C6380
3E3980
7E1D80
C70780
C701E0
0601B0
0E0180
0E0180
0E0180
0E0380
0E0300
0E0300
0E0700
070600
039C00
01F800
ENDCHAR
STARTCHAR Upsilon1
ENCODING 978
SWIDTH 620 0
DWIDTH 20 0
BBX 20 23 0 0
BITMAP
F001C0
7C07E0
0F0C70
070CF0
0398E0
01D0E0
01D000
01F000
01F000
00E000
00E000
00E000
00E000
00E000
00E000
00E000
00E000
00E000
00E000
00E000
00E000
01F000
07FC00
ENDCHAR
STARTCHAR uni03D3
ENCODING 979
SWIDTH 620 0
DWIDTH 20 0
BBX 20 30 0 0
BITMAP
000300
000700
000E00
001800
003000
006000
000000
F001C0
7C07E0
0F0C70
070CF0
0398E0
01D0E0
01D000
01F000
01F000
00E000
00E000
00E000
00E000
00E000
00E000
00E000
00E000
00E000
00E000
00E000
00E000
01F000
07FC00
ENDCHAR
STARTCHAR uni03D4
ENCODING 980
SWIDTH 620 0
DWIDTH 20 0
BBX 20 27 0 0
BITMAP
038E00
038E00
038E00
000000
F001C0
7C07E0
0F0C70
070CF0
0398E0
01D0E0
01D000
01F000
01F000
00E000
00E000
00E000
00E000
00E000
00E000
00E000
00E000
00E000
00E000
00E000
00E000
01F000
07FC00
ENDCHAR
STARTCHAR phi1
ENCODING 981
SWIDTH 521 0
DWIDTH 17 0
BBX 15 30 1 -7
BITMAP
0100
0100
0100
0100
0100
0100
0FC0
1D70
3938
711C
711C
E11E
E10E
E10E
E10E
E10E
E10E
F10E
710C
711C
3918
1D70
07E0
0100
0100
0100
0100
0100
0100
0100
ENDCHAR
STARTCHAR omega1
ENCODING 982
SWIDTH 713 0
DWIDTH 23 0
BBX 21 19 0 0
BITMAP
1FFFF8
3FFFF8
7FFFF8
E78380
DE00C0
3C00E0
383870
783870
783838
783838
703838
703838
703838
701038
781038
783870
382870
1CECE0
0F87C0
ENDCHAR
STARTCHAR uni1E00
ENCODING 7680
SWIDTH 722 0
DWIDTH 24 0
BBX 22 31 1 -8
BITMAP
003000
003000
007000
007800
007800
00FC00
00DC00
009C00
018E00
010E00
030F00
030700
020700
060780
060380
0FFFC0
0C03C0
1801C0
1801E0
3001E0
3000F0
7000F0
FC03FC
000000
003800
007C00
00C600
008200
00C600
007C00
003800
ENDCHAR
STARTCHAR uni1E01
ENCODING 7681
SWIDTH 444 0
DWIDTH 15 0
BBX 13 23 1 -8
BITMAP
1F80
31C0
70E0
70E0
60E0
03E0
0EE0
18E0
30E0
60E0
E0E0
E1E0
F2E8
7EF8
3C70
0000
0700
0F80
18C0
1040
18C0
0F80
0700
ENDCHAR
STARTCHAR uni1E02
ENCODING 7682
SWIDTH 667 0
DWIDTH 22 0
BBX 20 27 1 0
BITMAP
00E000
00E000
00E000
000000
FFFE00
3E0F80
1C03C0
1C01C0
1C01E0
1C00E0
1C00E0
1C01E0
1C01C0
1C03C0
1C0F80
1FFE00
1C0780
1C01E0
1C00E0
1C00F0
1C0070
1C0070
1C00F0
1C00E0
1C01E0
3E07C0
FFFF00
ENDCHAR
STARTCHAR uni1E03
ENCODING 7683
SWIDTH 500 0
DWIDTH 16 0
BBX 15 27 0 0
BITMAP
1C00
1C00
1C00
0000
1800
F800
3800
3800
3800
3800
3800
3800
39F0
3BF8
3C7C
381C
381E
380E
380E
380E
380E
380E
380C
381C
3818
3C70
0FE0
ENDCHAR
STARTCHAR uni1E04
ENCODING 7684
SWIDTH 667 0
DWIDTH 22 0
BBX 20 27 1 -4
BITMAP
FFFE00
3E0F80
1C03C0
1C01C0
1C01E0
1C00E0
1C00E0
1C01E0
1C01C0
1C03C0
1C0F80
1FFE00
1C0780
1C01E0
1C00E0
1C00F0
1C0070
1C0070
1C00F0
1C00E0
1C01E0
3E07C0
FFFF00
000000
007000
007000
007000
ENDCHAR
STARTCHAR uni1E05
ENCODING 7685
SWIDTH 500 0
DWIDTH 16 0
BBX 15 27 0 -4
BITMAP
1800
F800
3800
3800
3800
3800
3800
3800
39F0
3BF8
3C7C
381C
381E
380E
380E
380E
380E
380E
380C
381C
3818
3C70
0FE0
0000
0380
0380
0380
ENDCHAR
STARTCHAR uni1E06
ENCODING 7686
SWIDTH 667 0
DWIDTH 22 0
BBX 20 26 1 -3
BITMAP
FFFE00
3E0F80
1C03C0
1C01C0
1C01E0
1C00E0
1C00E0
1C01E0
1C01C0
1C03C0
1C0F80
1FFE00
1C0780
1C01E0
1C00E0
1C00F0
1C0070
1C0070
1C00F0
1C00E0
1C01E0
3E07C0
FFFF00
000000
07FE00
07FE00
ENDCHAR
STARTCHAR uni1E07
ENCODING 7687
SWIDTH 500 0
DWIDTH 16 0
BBX 15 26 0 -3
BITMAP
1800
F800
3800
3800
3800
3800
3800
3800
39F0
3BF8
3C7C
381C
381E
380E
380E
380E
380E
380E
380C
381C
3818
3C70
0FE0
0000
1FF8
1FF8
ENDCHAR
STARTCHAR uni1E08
ENCODING 7688
SWIDTH 667 0
DWIDTH 22 0
BBX 20 37 1 -7
BITMAP
000300
000700
000E00
001800
003000
006000
000000
01FF10
0783F0
0E00F0
1C0070
380030
380030
700010
700010
F00000
F00000
F00000
F00000
F00000
F00000
F00000
700000
700000
380000
380010
1C0030
0E0060
0783C0
01FF00
004000
00C000
00F000
003800
001800
003800
01F000
ENDCHAR
STARTCHAR uni1E09
ENCODING 7689
SWIDTH 444 0
DWIDTH 15 0
BBX 12 29 1 -7
BITMAP
0060
00E0
01C0
0300
0600
0C00
0000
0F80
38C0
70E0
60E0
E060
C000
C000
C000
C000
E000
E010
7030
7C60
3FC0
0F00
0400
0C00
0F00
0380
0180
0380
1F00
ENDCHAR
STARTCHAR uni1E0A
ENCODING 7690
SWIDTH 722 0
DWIDTH 24 0
BBX 22 27 1 0
BITMAP
007000
007000
007000
000000
FFFE00
3E0780
1C01C0
1C00E0
1C0070
1C0070
1C0038
1C0038
1C003C
1C003C
1C003C
1C003C
1C003C
1C003C
1C003C
1C0038
1C0038
1C0070
1C0070
1C00E0
1C01C0
3E0780
FFFE00
ENDCHAR
STARTCHAR uni1E0B
ENCODING 7691
SWIDTH 500 0
DWIDTH 16 0
BBX 15 27 1 0
BITMAP
0070
0070
0070
0000
0018
00F8
0038
0038
0038
0038
0038
0038
0FB8
18F8
3078
7038
6038
E038
E038
E038
E038
E038
F038
7078
78F8
3FBE
0F30
ENDCHAR
STARTCHAR uni1E0C
ENCODING 7692
SWIDTH 722 0
DWIDTH 24 0
BBX 22 27 1 -4
BITMAP
FFFE00
3E0780
1C01C0
1C00E0
1C0070
1C0070
1C0038
1C0038
1C003C
1C003C
1C003C
1C003C
1C003C
1C003C
1C003C
1C0038
1C0038
1C0070
1C0070
1C00E0
1C01C0
3E0780
FFFE00
000000
007000
007000
007000
ENDCHAR
STARTCHAR uni1E0D
ENCODING 7693
SWIDTH 500 0
DWIDTH 16 0
BBX 15 27 1 -4
BITMAP
0018
00F8
0038
0038
0038
0038
0038
0038
0FB8
18F8
3078
7038
6038
E038
E038
E038
E038
E038
F038
7078
78F8
3FBE
0F30
0000
0380
0380
0380
ENDCHAR
STARTCHAR uni1E0E
ENCODING 7694
SWIDTH 722 0
DWIDTH 24 0
BBX 22 26 1 -3
BITMAP
FFFE00
3E0780
1C01C0
1C00E0
1C0070
1C0070
1C0038
1C0038
1C003C
1C003C
1C003C
1C003C
1C003C
1C003C
1C003C
1C0038
1C0038
1C0070
1C0070
1C00E0
1C01C0
3E0780
FFFE00
000000
07FE00
07FE00
ENDCHAR
STARTCHAR uni1E0F
ENCODING 7695
SWIDTH 500 0
DWIDTH 16 0
BBX 15 26 1 -3
BITMAP
0018
00F8
0038
0038
0038
0038
0038
0038
0FB8
18F8
3078
7038
6038
E038
E038
E038
E038
E038
F038
7078
78F8
3FBE
0F30
0000
3FF0
3FF0
ENDCHAR
STARTCHAR uni1E10
ENCODING 7696
SWIDTH 722 0
DWIDTH 24 0
BBX 22 30 1 -7
BITMAP
FFFE00
3E0780
1C01C0
1C00E0
1C0070
1C0070
1C0038
1C0038
1C003C
1C003C
1C003C
1C003C
1C003C
1C003C
1C003C
1C0038
1C0038
1C0070
1C0070
1C00E0
1C01C0
3E0780
FFFE00
002000
006000
007800
001C00
000C00
001C00
00F800
ENDCHAR
STARTCHAR uni1E11
ENCODING 7697
SWIDTH 500 0
DWIDTH 16 0
BBX 15 30 1 -7
BITMAP
0018
00F8
0038
0038
0038
0038
0038
0038
0FB8
18F8
3078
7038
6038
E038
E038
E038
E038
E038
F038
7078
78F8
3FBE
0F30
0100
0300
03C0
00E0
0060
00E0
07C0
ENDCHAR
STARTCHAR uni1E12
ENCODING 7698
SWIDTH 722 0
DWIDTH 24 0
BBX 22 30 1 -7
BITMAP
FFFE00
3E0780
1C01C0
1C00E0
1C0070
1C0070
1C0038
1C0038
1C003C
1C003C
1C003C
1C003C
1C003C
1C003C
1C003C
1C0038
1C0038
1C0070
1C0070
1C00E0
1C01C0
3E0780
FFFE00
000000
006000
00F000
01F800
039C00
060600
040200
ENDCHAR
STARTCHAR uni1E13
ENCODING 7699
SWIDTH 500 0
DWIDTH 16 0
BBX 15 30 1 -7
BITMAP
0018
00F8
0038
0038
0038
0038
0038
0038
0FB8
18F8
3078
7038
6038
E038
E038
E038
E038
E038
F038
7078
78F8
3FBE
0F30
0000
0300
0780
0FC0
1CE0
3030
2010
ENDCHAR
STARTCHAR uni1E14
ENCODING 7700
SWIDTH 611 0
DWIDTH 20 0
BBX 19 33 1 0
BITMAP
0C0000
0E0000
070000
018000
00C000
006000
000000
0FFC00
0FFC00
000000
FFFFC0
3E03C0
1C00C0
1C0040
1C0040
1C0000
1C0000
1C0000
1C0100
1C0100
1C0300
1FFF00
1C0300
1C0100
1C0100
1C0000
1C0000
1C0020
1C0020
1C0060
1C00C0
3E03C0
FFFFC0
ENDCHAR
STARTCHAR uni1E15
ENCODING 7701
SWIDTH 444 0
DWIDTH 15 0
BBX 12 25 1 0
BITMAP
6000
7000
3800
0C00
0600
0300
0000
7FE0
7FE0
0000
0F80
39C0
60E0
6070
C070
FFF0
C000
C000
C000
E000
E010
7030
7C60
3FC0
0F00
ENDCHAR
STARTCHAR uni1E16
ENCODING 7702
SWIDTH 611 0
DWIDTH 20 0
BBX 19 33 1 0
BITMAP
000C00
001C00
003800
006000
00C000
018000
000000
0FFC00
0FFC00
000000
FFFFC0
3E03C0
1C00C0
1C0040
1C0040
1C0000
1C0000
1C0000
1C0100
1C0100
1C0300
1FFF00
1C0300
1C0100
1C0100
1C0000
1C0000
1C0020
1C0020
1C0060
1C00C0
3E03C0
FFFFC0
ENDCHAR
STARTCHAR uni1E17
ENCODING 7703
SWIDTH 444 0
DWIDTH 15 0
BBX 12 25 1 0
BITMAP
0060
00E0
01C0
0300
0600
0C00
0000
7FE0
7FE0
0000
0F80
39C0
60E0
6070
C070
FFF0
C000
C000
C000
E000
E010
7030
7C60
3FC0
0F00
ENDCHAR
STARTCHAR uni1E18
ENCODING 7704
SWIDTH 611 0
DWIDTH 20 0
BBX 19 30 1 -7
BITMAP
FFFFC0
3E03C0
1C00C0
1C0040
1C0040
1C0000
1C0000
1C0000
1C0100
1C0100
1C0300
1FFF00
1C0300
1C0100
1C0100
1C0000
1C0000
1C0020
1C0020
1C0060
1C00C0
3E03C0
FFFFC0
000000
00C000
01E000
03F000
073800
0C0C00
080400
ENDCHAR
STARTCHAR uni1E19
ENCODING 7705
SWIDTH 444 0
DWIDTH 15 0
BBX 12 22 1 -7
BITMAP
0F80
39C0
60E0
6070
C070
FFF0
C000
C000
C000
E000
E010
7030
7C60
3FC0
0F00
0000
0600
0F00
1F80
39C0
6060
4020
ENDCHAR
STARTCHAR uni1E1A
ENCODING 7706
SWIDTH 611 0
DWIDTH 20 0
BBX 19 28 1 -5
BITMAP
FFFFC0
3E03C0
1C00C0
1C0040
1C0040
1C0000
1C0000
1C0000
1C0100
1C0100
1C0300
1FFF00
1C0300
1C0100
1C0100
1C0000
1C0000
1C0020
1C0020
1C0060
1C00C0
3E03C0
FFFFC0
000000
038200
07C600
0C7C00
083800
ENDCHAR
STARTCHAR uni1E1B
ENCODING 7707
SWIDTH 444 0
DWIDTH 15 0
BBX 12 20 1 -5
BITMAP
0F80
39C0
60E0
6070
C070
FFF0
C000
C000
C000
E000
E010
7030
7C60
3FC0
0F00
0000
3820
7C60
C7C0
8380
ENDCHAR
STARTCHAR uni1E1C
ENCODING 7708
SWIDTH 611 0
DWIDTH 20 0
BBX 19 36 1 -7
BITMAP
080800
0C1800
063000
07F000
03E000
000000
FFFFC0
3E03C0
1C00C0
1C0040
1C0040
1C0000
1C0000
1C0000
1C0100
1C0100
1C0300
1FFF00
1C0300
1C0100
1C0100
1C0000
1C0000
1C0020
1C0020
1C0060
1C00C0
3E03C0
FFFFC0
004000
00C000
00F000
003800
001800
003800
01F000
ENDCHAR
STARTCHAR uni1E1D
ENCODING 7709
SWIDTH 444 0
DWIDTH 15 0
BBX 12 28 1 -7
BITMAP
2020
3060
18C0
1FC0
0F80
0000
0F80
39C0
60E0
6070
C070
FFF0
C000
C000
C000
E000
E010
7030
7C60
3FC0
0F00
0400
0C00
0F00
0380
0180
0380
1F00
ENDCHAR
STARTCHAR uni1E1E
ENCODING 7710
SWIDTH 556 0
DWIDTH 18 0
BBX 17 27 1 0
BITMAP
01C000
01C000
01C000
000000
FFFF80
3E0780
1C0180
1C0080
1C0080
1C0000
1C0000
1C0000
1C0200
1C0200
1C0600
1FFE00
1C0600
1C0200
1C0200
1C0000
1C0000
1C0000
1C0000
1C0000
1C0000
3E0000
FF8000
ENDCHAR
STARTCHAR uni1E1F
ENCODING 7711
SWIDTH 333 0
DWIDTH 11 0
BBX 12 27 0 0
BITMAP
0700
0700
0700
0000
03E0
0670
0C70
0C30
1C00
1C00
1C00
1C00
FFC0
1C00
1C00
1C00
1C00
1C00
1C00
1C00
1C00
1C00
1C00
1C00
1C00
3E00
FF80
ENDCHAR
STARTCHAR uni1E20
ENCODING 7712
SWIDTH 722 0
DWIDTH 24 0
BBX 22 26 1 0
BITMAP
01FF80
01FF80
000000
01FF30
0787F0
0E00F0
1C0070
380030
380030
700010
700000
F00000
F00000
F00000
F003FC
F000F8
F00070
F00070
700070
700070
380070
380070
1C0070
0E0070
0781E0
01FF80
ENDCHAR
STARTCHAR uni1E21
ENCODING 7713
SWIDTH 500 0
DWIDTH 16 0
BBX 14 25 1 -7
BITMAP
3FF0
3FF0
0000
0FC0
18FC
307C
7030
7030
7030
7030
3870
1CE0
0F80
1800
3000
7800
7FE0
3FF8
1FFC
600C
C00C
C01C
F038
7FE0
1F80
ENDCHAR
STARTCHAR uni1E22
ENCODING 7714
SWIDTH 722 0
DWIDTH 24 0
BBX 22 27 1 0
BITMAP
003800
003800
003800
000000
FF87FC
3E01F0
1C00E0
1C00E0
1C00E0
1C00E0
1C00E0
1C00E0
1C00E0
1C00E0
1C00E0
1FFFE0
1C00E0
1C00E0
1C00E0
1C00E0
1C00E0
1C00E0
1C00E0
1C00E0
1C00E0
3E01F0
FF87FC
ENDCHAR
STARTCHAR uni1E23
ENCODING 7715
SWIDTH 500 0
DWIDTH 16 0
BBX 16 27 0 0
BITMAP
1C00
1C00
1C00
0000
1800
F800
3800
3800
3800
3800
3800
3800
39F0
3BF8
3E3C
3C1C
381C
381C
381C
381C
381C
381C
381C
381C
381C
381C
FE7F
ENDCHAR
STARTCHAR uni1E24
ENCODING 7716
SWIDTH 722 0
DWIDTH 24 0
BBX 22 27 1 -4
BITMAP
FF87FC
3E01F0
1C00E0
1C00E0
1C00E0
1C00E0
1C00E0
1C00E0
1C00E0
1C00E0
1C00E0
1FFFE0
1C00E0
1C00E0
1C00E0
1C00E0
1C00E0
1C00E0
1C00E0
1C00E0
1C00E0
3E01F0
FF87FC
000000
003800
003800
003800
ENDCHAR
STARTCHAR uni1E25
ENCODING 7717
SWIDTH 500 0
DWIDTH 16 0
BBX 16 27 0 -4
BITMAP
1800
F800
3800
3800
3800
3800
3800
3800
39F0
3BF8
3E3C
3C1C
381C
381C
381C
381C
381C
381C
381C
381C
381C
381C
FE7F
0000
01C0
01C0
01C0
ENDCHAR
STARTCHAR uni1E26
ENCODING 7718
SWIDTH 722 0
DWIDTH 24 0
BBX 22 27 1 0
BITMAP
01C700
01C700
01C700
000000
FF87FC
3E01F0
1C00E0
1C00E0
1C00E0
1C00E0
1C00E0
1C00E0
1C00E0
1C00E0
1C00E0
1FFFE0
1C00E0
1C00E0
1C00E0
1C00E0
1C00E0
1C00E0
1C00E0
1C00E0
1C00E0
3E01F0
FF87FC
ENDCHAR
STARTCHAR uni1E27
ENCODING 7719
SWIDTH 500 0
DWIDTH 16 0
BBX 16 27 0 0
BITMAP
E380
E380
E380
0000
1800
F800
3800
3800
3800
3800
3800
3800
39F0
3BF8
3E3C
3C1C
381C
381C
381C
381C
381C
381C
381C
381C
381C
381C
FE7F
ENDCHAR
STARTCHAR uni1E28
ENCODING 7720
SWIDTH 722 0
DWIDTH 24 0
BBX 22 30 1 -7
BITMAP
FF87FC
3E01F0
1C00E0
1C00E0
1C00E0
1C00E0
1C00E0
1C00E0
1C00E0
1C00E0
1C00E0
1FFFE0
1C00E0
1C00E0
1C00E0
1C00E0
1C00E0
1C00E0
1C00E0
1C00E0
1C00E0
3E01F0
FF87FC
001000
003000
003C00
000E00
000600
000E00
007C00
ENDCHAR
STARTCHAR uni1E29
ENCODING 7721
SWIDTH 500 0
DWIDTH 16 0
BBX 16 30 0 -7
BITMAP
1800
F800
3800
3800
3800
3800
3800
3800
39F0
3BF8
3E3C
3C1C
381C
381C
381C
381C
381C
381C
381C
381C
381C
381C
FE7F
0080
0180
01E0
0070
0030
0070
03E0
ENDCHAR
STARTCHAR uni1E2A
ENCODING 7722
SWIDTH 722 0
DWIDTH 24 0
BBX 22 29 1 -6
BITMAP
FF87FC
3E01F0
1C00E0
1C00E0
1C00E0
1C00E0
1C00E0
1C00E0
1C00E0
1C00E0
1C00E0
1FFFE0
1C00E0
1C00E0
1C00E0
1C00E0
1C00E0
1C00E0
1C00E0
1C00E0
1C00E0
3E01F0
FF87FC
000000
010100
018300
00C600
00FE00
007C00
ENDCHAR
STARTCHAR uni1E2B
ENCODING 7723
SWIDTH 500 0
DWIDTH 16 0
BBX 16 29 0 -6
BITMAP
1800
F800
3800
3800
3800
3800
3800
3800
39F0
3BF8
3E3C
3C1C
381C
381C
381C
381C
381C
381C
381C
381C
381C
381C
FE7F
0000
0808
0C18
0630
07F0
03E0
ENDCHAR
STARTCHAR uni1E2C
ENCODING 7724
SWIDTH 333 0
DWIDTH 11 0
BBX 11 28 0 -5
BITMAP
7FC0
1F00
0E00
0E00
0E00
0E00
0E00
0E00
0E00
0E00
0E00
0E00
0E00
0E00
0E00
0E00
0E00
0E00
0E00
0E00
0E00
1F00
7FC0
0000
3820
7C60
C7C0
8380
ENDCHAR
STARTCHAR uni1E2D
ENCODING 7725
SWIDTH 278 0
DWIDTH 9 0
BBX 11 28 -1 -5
BITMAP
0E00
0E00
0E00
0000
0000
0000
0000
0000
0E00
3E00
0E00
0E00
0E00
0E00
0E00
0E00
0E00
0E00
0E00
0E00
0E00
0E00
3F80
0000
3820
7C60
C7C0
8380
ENDCHAR
STARTCHAR uni1E2E
ENCODING 7726
SWIDTH 333 0
DWIDTH 11 0
BBX 9 35 1 0
BITMAP
0180
0380
0700
0C00
1800
3000
0000
E380
E380
E380
0000
0000
FF80
3E00
1C00
1C00
1C00
1C00
1C00
1C00
1C00
1C00
1C00
1C00
1C00
1C00
1C00
1C00
1C00
1C00
1C00
1C00
1C00
3E00
FF80
ENDCHAR
STARTCHAR uni1E2F
ENCODING 7727
SWIDTH 278 0
DWIDTH 9 0
BBX 9 28 0 0
BITMAP
0180
0380
0700
0C00
1800
3000
0000
E380
E380
E380
0000
0000
0000
0C00
7C00
1C00
1C00
1C00
1C00
1C00
1C00
1C00
1C00
1C00
1C00
1C00
1C00
7F00
ENDCHAR
STARTCHAR uni1E30
ENCODING 7728
SWIDTH 722 0
DWIDTH 24 0
BBX 23 30 1 0
BITMAP
000600
000E00
001C00
003000
006000
00C000
000000
FFC7F8
3E01E0
1C0180
1C0300
1C0600
1C0C00
1C1800
1C3000
1C6000
1CC000
1FC000
1FE000
1FF000
1E7800
1C3C00
1C1E00
1C0F00
1C0780
1C03C0
1C01E0
1C00F0
3E00F8
FFC7FE
ENDCHAR
STARTCHAR uni1E31
ENCODING 7729
SWIDTH 500 0
DWIDTH 16 0
BBX 16 30 0 0
BITMAP
00C0
01C0
0380
0600
0C00
1800
0000
1800
F800
3800
3800
3800
3800
3800
3800
38FE
3870
3860
38C0
3980
3F00
3E00
3F00
3B80
39C0
38E0
38F0
3878
383C
FE7F
ENDCHAR
STARTCHAR uni1E32
ENCODING 7730
SWIDTH 722 0
DWIDTH 24 0
BBX 23 27 1 -4
BITMAP
FFC7F8
3E01E0
1C0180
1C0300
1C0600
1C0C00
1C1800
1C3000
1C6000
1CC000
1FC000
1FE000
1FF000
1E7800
1C3C00
1C1E00
1C0F00
1C0780
1C03C0
1C01E0
1C00F0
3E00F8
FFC7FE
000000
003800
003800
003800
ENDCHAR
STARTCHAR uni1E33
ENCODING 7731
SWIDTH 500 0
DWIDTH 16 0
BBX 16 27 0 -4
BITMAP
1800
F800
3800
3800
3800
3800
3800
3800
38FE
3870
3860
38C0
3980
3F00
3E00
3F00
3B80
39C0
38E0
38F0
3878
383C
FE7F
0000
0380
0380
0380
ENDCHAR
STARTCHAR uni1E34
ENCODING 7732
SWIDTH 722 0
DWIDTH 24 0
BBX 23 26 1 -3
BITMAP
FFC7F8
3E01E0
1C0180
1C0300
1C0600
1C0C00
1C1800
1C3000
1C6000
1CC000
1FC000
1FE000
1FF000
1E7800
1C3C00
1C1E00
1C0F00
1C0780
1C03C0
1C01E0
1C00F0
3E00F8
FFC7FE
000000
03FF00
03FF00
ENDCHAR
STARTCHAR uni1E35
ENCODING 7733
SWIDTH 500 0
DWIDTH 16 0
BBX 16 26 0 -3
BITMAP
1800
F800
3800
3800
3800
3800
3800
3800
38FE
3870
3860
38C0
3980
3F00
3E00
3F00
3B80
39C0
38E0
38F0
3878
383C
FE7F
0000
1FF8
1FF8
ENDCHAR
STARTCHAR uni1E36
ENCODING 7734
SWIDTH 611 0
DWIDTH 20 0
BBX 19 27 1 -4
BITMAP
FF8000
3E0000
1C0000
1C0000
1C0000
1C0000
1C0000
1C0000
1C0000
1C0000
1C0000
1C0000
1C0000
1C0000
1C0000
1C0000
1C0000
1C0020
1C0020
1C0060
1C00C0
3E03C0
FFFFC0
000000
00E000
00E000
00E000
ENDCHAR
STARTCHAR uni1E37
ENCODING 7735
SWIDTH 278 0
DWIDTH 9 0
BBX 7 27 1 -4
BITMAP
18
F8
38
38
38
38
38
38
38
38
38
38
38
38
38
38
38
38
38
38
38
38
FE
00
38
38
38
ENDCHAR
STARTCHAR uni1E38
ENCODING 7736
SWIDTH 611 0
DWIDTH 20 0
BBX 19 30 1 -4
BITMAP
7FE000
7FE000
000000
FF8000
3E0000
1C0000
1C0000
1C0000
1C0000
1C0000
1C0000
1C0000
1C0000
1C0000
1C0000
1C0000
1C0000
1C0000
1C0000
1C0000
1C0020
1C0020
1C0060
1C00C0
3E03C0
FFFFC0
000000
00E000
00E000
00E000
ENDCHAR
STARTCHAR uni1E39
ENCODING 7737
SWIDTH 278 0
DWIDTH 9 0
BBX 10 30 -1 -4
BITMAP
FFC0
FFC0
0000
0600
3E00
0E00
0E00
0E00
0E00
0E00
0E00
0E00
0E00
0E00
0E00
0E00
0E00
0E00
0E00
0E00
0E00
0E00
0E00
0E00
0E00
3F80
0000
0E00
0E00
0E00
ENDCHAR
STARTCHAR uni1E3A
ENCODING 7738
SWIDTH 611 0
DWIDTH 20 0
BBX 19 26 1 -3
BITMAP
FF8000
3E0000
1C0000
1C0000
1C0000
1C0000
1C0000
1C0000
1C0000
1C0000
1C0000
1C0000
1C0000
1C0000
1C0000
1C0000
1C0000
1C0020
1C0020
1C0060
1C00C0
3E03C0
FFFFC0
000000
0FFC00
0FFC00
ENDCHAR
STARTCHAR uni1E3B
ENCODING 7739
SWIDTH 278 0
DWIDTH 9 0
BBX 10 26 0 -3
BITMAP
0C00
7C00
1C00
1C00
1C00
1C00
1C00
1C00
1C00
1C00
1C00
1C00
1C00
1C00
1C00
1C00
1C00
1C00
1C00
1C00
1C00
1C00
7F00
0000
FFC0
FFC0
ENDCHAR
STARTCHAR uni1E3C
ENCODING 7740
SWIDTH 611 0
DWIDTH 20 0
BBX 19 30 1 -7
BITMAP
FF8000
3E0000
1C0000
1C0000
1C0000
1C0000
1C0000
1C0000
1C0000
1C0000
1C0000
1C0000
1C0000
1C0000
1C0000
1C0000
1C0000
1C0020
1C0020
1C0060
1C00C0
3E03C0
FFFFC0
000000
00C000
01E000
03F000
073800
0C0C00
080400
ENDCHAR
STARTCHAR uni1E3D
ENCODING 7741
SWIDTH 278 0
DWIDTH 9 0
BBX 10 30 0 -7
BITMAP
0C00
7C00
1C00
1C00
1C00
1C00
1C00
1C00
1C00
1C00
1C00
1C00
1C00
1C00
1C00
1C00
1C00
1C00
1C00
1C00
1C00
1C00
7F00
0000
0C00
1E00
3F00
7380
C0C0
8040
ENDCHAR
STARTCHAR uni1E3E
ENCODING 7742
SWIDTH 889 0
DWIDTH 30 0
BBX 28 30 1 0
BITMAP
00006000
0000E000
0001C000
00030000
00060000
000C0000
00000000
FC0007F0
3E0007C0
1E000F80
1F000F80
1F000B80
17001B80
17801B80
13803380
13C03380
13C02380
11E06380
11E06380
10E0C380
10F0C380
10708380
10798380
10790380
103D0380
103F0380
101E0380
101E0380
380C07C0
FE0C1FF0
ENDCHAR
STARTCHAR uni1E3F
ENCODING 7743
SWIDTH 778 0
DWIDTH 26 0
BBX 25 22 0 0
BITMAP
00018000
00038000
00070000
000C0000
00180000
00300000
00000000
18F07800
FBF9FC00
3E3F1E00
3C1E0E00
381C0E00
381C0E00
381C0E00
381C0E00
381C0E00
381C0E00
381C0E00
381C0E00
381C0E00
381C0E00
FE7F3F80
ENDCHAR
STARTCHAR uni1E40
ENCODING 7744
SWIDTH 889 0
DWIDTH 30 0
BBX 28 27 1 0
BITMAP
00070000
00070000
00070000
00000000
FC0007F0
3E0007C0
1E000F80
1F000F80
1F000B80
17001B80
17801B80
13803380
13C03380
13C02380
11E06380
11E06380
10E0C380
10F0C380
10708380
10798380
10790380
103D0380
103F0380
101E0380
101E0380
380C07C0
FE0C1FF0
ENDCHAR
STARTCHAR uni1E41
ENCODING 7745
SWIDTH 778 0
DWIDTH 26 0
BBX 25 19 0 0
BITMAP
001C0000
001C0000
001C0000
00000000
18F07800
FBF9FC00
3E3F1E00
3C1E0E00
381C0E00
381C0E00
381C0E00
381C0E00
381C0E00
381C0E00
381C0E00
381C0E00
381C0E00
381C0E00
FE7F3F80
ENDCHAR
STARTCHAR uni1E42
ENCODING 7746
SWIDTH 889 0
DWIDTH 30 0
BBX 28 27 1 -4
BITMAP
FC0007F0
3E0007C0
1E000F80
1F000F80
1F000B80
17001B80
17801B80
13803380
13C03380
13C02380
11E06380
11E06380
10E0C380
10F0C380
10708380
10798380
10790380
103D0380
103F0380
101E0380
101E0380
380C07C0
FE0C1FF0
00000000
00070000
00070000
00070000
ENDCHAR
STARTCHAR uni1E43
ENCODING 7747
SWIDTH 778 0
DWIDTH 26 0
BBX 25 19 0 -4
BITMAP
18F07800
FBF9FC00
3E3F1E00
3C1E0E00
381C0E00
381C0E00
381C0E00
381C0E00
381C0E00
381C0E00
381C0E00
381C0E00
381C0E00
381C0E00
FE7F3F80
00000000
001C0000
001C0000
001C0000
ENDCHAR
STARTCHAR uni1E44
ENCODING 7748
SWIDTH 722 0
DWIDTH 24 0
BBX 22 27 1 0
BITMAP
00E000
00E000
00E000
000000
F801FC
3C0070
1E0020
1F0020
1F0020
178020
13C020
13C020
11E020
10F020
10F820
107820
103C20
101E20
101F20
100F20
1007A0
1003E0
1001E0
1001E0
1000E0
380060
FE0020
ENDCHAR
STARTCHAR uni1E45
ENCODING 7749
SWIDTH 500 0
DWIDTH 16 0
BBX 16 19 0 0
BITMAP
0380
0380
0380
0000
18F0
FBF8
3C3C
381C
381C
381C
381C
381C
381C
381C
381C
381C
381C
381C
FE7F
ENDCHAR
STARTCHAR uni1E46
ENCODING 7750
SWIDTH 722 0
DWIDTH 24 0
BBX 22 27 1 -4
BITMAP
F801FC
3C0070
1E0020
1F0020
1F0020
178020
13C020
13C020
11E020
10F020
10F820
107820
103C20
101E20
101F20
100F20
1007A0
1003E0
1001E0
1001E0
1000E0
380060
FE0020
000000
003800
003800
003800
ENDCHAR
STARTCHAR uni1E47
ENCODING 7751
SWIDTH 500 0
DWIDTH 16 0
BBX 16 19 0 -4
BITMAP
18F0
FBF8
3C3C
381C
381C
381C
381C
381C
381C
381C
381C
381C
381C
381C
FE7F
0000
01C0
01C0
01C0
ENDCHAR
STARTCHAR uni1E48
ENCODING 7752
SWIDTH 722 0
DWIDTH 24 0
BBX 22 26 1 -3
BITMAP
F801FC
3C0070
1E0020
1F0020
1F0020
178020
13C020
13C020
11E020
10F020
10F820
107820
103C20
101E20
101F20
100F20
1007A0
1003E0
1001E0
1001E0
1000E0
380060
FE0020
000000
03FF00
03FF00
ENDCHAR
STARTCHAR uni1E49
ENCODING 7753
SWIDTH 500 0
DWIDTH 16 0
BBX 16 18 0 -3
BITMAP
18F0
FBF8
3C3C
381C
381C
381C
381C
381C
381C
381C
381C
381C
381C
381C
FE7F
0000
1FF8
1FF8
ENDCHAR
STARTCHAR uni1E4A
ENCODING 7754
SWIDTH 722 0
DWIDTH 24 0
BBX 22 30 1 -7
BITMAP
F801FC
3C0070
1E0020
1F0020
1F0020
178020
13C020
13C020
11E020
10F020
10F820
107820
103C20
101E20
101F20
100F20
1007A0
1003E0
1001E0
1001E0
1000E0
380060
FE0020
000000
003000
007800
00FC00
01CE00
030300
020100
ENDCHAR
STARTCHAR uni1E4B
ENCODING 7755
SWIDTH 500 0
DWIDTH 16 0
BBX 16 22 0 -7
BITMAP
18F0
FBF8
3C3C
381C
381C
381C
381C
381C
381C
381C
381C
381C
381C
381C
FE7F
0000
0180
03C0
07E0
0E70
1818
1008
ENDCHAR
STARTCHAR uni1E4C
ENCODING 7756
SWIDTH 722 0
DWIDTH 24 0
BBX 22 35 1 0
BITMAP
000300
000700
000E00
001800
003000
006000
000000
00E080
01F980
033F00
020E00
000000
01FE00
078780
0E01C0
1C00E0
380070
380070
700038
700038
F0003C
F0003C
F0003C
F0003C
F0003C
F0003C
F0003C
700038
700038
380070
380070
1C00E0
0E01C0
078780
01FE00
ENDCHAR
STARTCHAR uni1E4D
ENCODING 7757
SWIDTH 500 0
DWIDTH 16 0
BBX 14 28 1 0
BITMAP
0030
0070
00E0
0180
0300
0600
0000
1C10
3E30
63E0
41C0
0000
0000
0780
18E0
3070
7038
6038
E01C
E01C
E01C
E01C
E01C
7018
7038
3830
1C60
0780
ENDCHAR
STARTCHAR uni1E4E
ENCODING 7758
SWIDTH 722 0
DWIDTH 24 0
BBX 22 32 1 0
BITMAP
01C700
01C700
01C700
000000
00E080
01F980
033F00
020E00
000000
01FE00
078780
0E01C0
1C00E0
380070
380070
700038
700038
F0003C
F0003C
F0003C
F0003C
F0003C
F0003C
F0003C
700038
700038
380070
380070
1C00E0
0E01C0
078780
01FE00
ENDCHAR
STARTCHAR uni1E4F
ENCODING 7759
SWIDTH 500 0
DWIDTH 16 0
BBX 14 25 1 0
BITMAP
38E0
38E0
38E0
0000
1C10
3E30
63E0
41C0
0000
0000
0780
18E0
3070
7038
6038
E01C
E01C
E01C
E01C
E01C
7018
7038
3830
1C60
0780
ENDCHAR
STARTCHAR uni1E50
ENCODING 7760
SWIDTH 722 0
DWIDTH 24 0
BBX 22 33 1 0
BITMAP
030000
038000
01C000
006000
003000
001800
000000
03FF00
03FF00
000000
01FE00
078780
0E01C0
1C00E0
380070
380070
700038
700038
F0003C
F0003C
F0003C
F0003C
F0003C
F0003C
F0003C
700038
700038
380070
380070
1C00E0
0E01C0
078780
01FE00
ENDCHAR
STARTCHAR uni1E51
ENCODING 7761
SWIDTH 500 0
DWIDTH 16 0
BBX 14 25 1 0
BITMAP
3000
3800
1C00
0600
0300
0180
0000
3FF0
3FF0
0000
0780
18E0
3070
7038
6038
E01C
E01C
E01C
E01C
E01C
7018
7038
3830
1C60
0780
ENDCHAR
STARTCHAR uni1E52
ENCODING 7762
SWIDTH 722 0
DWIDTH 24 0
BBX 22 33 1 0
BITMAP
000300
000700
000E00
001800
003000
006000
000000
03FF00
03FF00
000000
01FE00
078780
0E01C0
1C00E0
380070
380070
700038
700038
F0003C
F0003C
F0003C
F0003C
F0003C
F0003C
F0003C
700038
700038
380070
380070
1C00E0
0E01C0
078780
01FE00
ENDCHAR
STARTCHAR uni1E53
ENCODING 7763
SWIDTH 500 0
DWIDTH 16 0
BBX 14 25 1 0
BITMAP
0030
0070
00E0
0180
0300
0600
0000
3FF0
3FF0
0000
0780
18E0
3070
7038
6038
E01C
E01C
E01C
E01C
E01C
7018
7038
3830
1C60
0780
ENDCHAR
STARTCHAR uni1E54
ENCODING 7764
SWIDTH 556 0
DWIDTH 18 0
BBX 17 30 1 0
BITMAP
000C00
001C00
003800
006000
00C000
018000
000000
FFF800
3C3E00
1C0F00
1C0700
1C0780
1C0380
1C0380
1C0380
1C0780
1C0700
1C0F00
1C3E00
1FF000
1C0000
1C0000
1C0000
1C0000
1C0000
1C0000
1C0000
1C0000
3E0000
FF8000
ENDCHAR
STARTCHAR uni1E55
ENCODING 7765
SWIDTH 500 0
DWIDTH 17 0
BBX 15 29 0 -7
BITMAP
0018
0038
0070
00C0
0180
0300
0000
19E0
FBF8
3C7C
381C
381E
380E
380E
380E
380E
380E
380C
381C
3C18
3E70
3BC0
3800
3800
3800
3800
3800
3800
FF00
ENDCHAR
STARTCHAR uni1E56
ENCODING 7766
SWIDTH 556 0
DWIDTH 18 0
BBX 17 27 1 0
BITMAP
01C000
01C000
01C000
000000
FFF800
3C3E00
1C0F00
1C0700
1C0780
1C0380
1C0380
1C0380
1C0780
1C0700
1C0F00
1C3E00
1FF000
1C0000
1C0000
1C0000
1C0000
1C0000
1C0000
1C0000
1C0000
3E0000
FF8000
ENDCHAR
STARTCHAR uni1E57
ENCODING 7767
SWIDTH 500 0
DWIDTH 17 0
BBX 15 26 0 -7
BITMAP
0380
0380
0380
0000
19E0
FBF8
3C7C
381C
381E
380E
380E
380E
380E
380E
380C
381C
3C18
3E70
3BC0
3800
3800
3800
3800
3800
3800
FF00
ENDCHAR
STARTCHAR uni1E58
ENCODING 7768
SWIDTH 667 0
DWIDTH 22 0
BBX 21 27 1 0
BITMAP
00E000
00E000
00E000
000000
FFF800
3C3E00
1C0F00
1C0780
1C0780
1C0380
1C0380
1C0380
1C0780
1C0700
1C1E00
1FF800
1CF000
1C7800
1C3C00
1C3C00
1C1E00
1C0F00
1C0F80
1C0780
1C03C0
3E01E0
FF81F8
ENDCHAR
STARTCHAR uni1E59
ENCODING 7769
SWIDTH 333 0
DWIDTH 11 0
BBX 10 19 1 0
BITMAP
0E00
0E00
0E00
0000
1980
FBC0
3FC0
3C00
3800
3800
3800
3800
3800
3800
3800
3800
3800
3800
FE00
ENDCHAR
STARTCHAR uni1E5A
ENCODING 7770
SWIDTH 667 0
DWIDTH 22 0
BBX 21 27 1 -4
BITMAP
FFF800
3C3E00
1C0F00
1C0780
1C0780
1C0380
1C0380
1C0380
1C0780
1C0700
1C1E00
1FF800
1CF000
1C7800
1C3C00
1C3C00
1C1E00
1C0F00
1C0F80
1C0780
1C03C0
3E01E0
FF81F8
000000
007000
007000
007000
ENDCHAR
STARTCHAR uni1E5B
ENCODING 7771
SWIDTH 333 0
DWIDTH 11 0
BBX 10 19 1 -4
BITMAP
1980
FBC0
3FC0
3C00
3800
3800
3800
3800
3800
3800
3800
3800
3800
3800
FE00
0000
1C00
1C00
1C00
ENDCHAR
STARTCHAR uni1E5C
ENCODING 7772
SWIDTH 667 0
DWIDTH 22 0
BBX 21 30 1 -4
BITMAP
07FE00
07FE00
000000
FFF800
3C3E00
1C0F00
1C0780
1C0780
1C0380
1C0380
1C0380
1C0780
1C0700
1C1E00
1FF800
1CF000
1C7800
1C3C00
1C3C00
1C1E00
1C0F00
1C0F80
1C0780
1C03C0
3E01E0
FF81F8
000000
007000
007000
007000
ENDCHAR
STARTCHAR uni1E5D
ENCODING 7773
SWIDTH 333 0
DWIDTH 11 0
BBX 10 22 1 -4
BITMAP
FFC0
FFC0
0000
1980
FBC0
3FC0
3C00
3800
3800
3800
3800
3800
3800
3800
3800
3800
3800
FE00
0000
1C00
1C00
1C00
ENDCHAR
STARTCHAR uni1E5E
ENCODING 7774
SWIDTH 667 0
DWIDTH 22 0
BBX 21 26 1 -3
BITMAP
FFF800
3C3E00
1C0F00
1C0780
1C0780
1C0380
1C0380
1C0380
1C0780
1C0700
1C1E00
1FF800
1CF000
1C7800
1C3C00
1C3C00
1C1E00
1C0F00
1C0F80
1C0780
1C03C0
3E01E0
FF81F8
000000
07FE00
07FE00
ENDCHAR
STARTCHAR uni1E5F
ENCODING 7775
SWIDTH 333 0
DWIDTH 11 0
BBX 11 18 0 -3
BITMAP
0CC0
7DE0
1FE0
1E00
1C00
1C00
1C00
1C00
1C00
1C00
1C00
1C00
1C00
1C00
7F00
0000
FFC0
FFC0
ENDCHAR
STARTCHAR uni1E60
ENCODING 7776
SWIDTH 556 0
DWIDTH 18 0
BBX 15 27 1 0
BITMAP
0380
0380
0380
0000
07E4
1C3C
381C
700C
7004
7006
7800
7C00
3E00
1F80
0FE0
07F0
01F8
007C
003E
001E
800E
800E
C00E
E00C
701C
7C78
67F0
ENDCHAR
STARTCHAR uni1E61
ENCODING 7777
SWIDTH 389 0
DWIDTH 13 0
BBX 10 19 1 0
BITMAP
1C00
1C00
1C00
0000
3E80
6380
C180
C080
E080
F000
7C00
3F00
0F80
03C0
81C0
80C0
C0C0
E180
BF00
ENDCHAR
STARTCHAR uni1E62
ENCODING 7778
SWIDTH 556 0
DWIDTH 18 0
BBX 15 27 1 -4
BITMAP
07E4
1C3C
381C
700C
7004
7006
7800
7C00
3E00
1F80
0FE0
07F0
01F8
007C
003E
001E
800E
800E
C00E
E00C
701C
7C78
67F0
0000
0380
0380
0380
ENDCHAR
STARTCHAR uni1E63
ENCODING 7779
SWIDTH 389 0
DWIDTH 13 0
BBX 10 19 1 -4
BITMAP
3E80
6380
C180
C080
E080
F000
7C00
3F00
0F80
03C0
81C0
80C0
C0C0
E180
BF00
0000
1C00
1C00
1C00
ENDCHAR
STARTCHAR uni1E64
ENCODING 7780
SWIDTH 556 0
DWIDTH 18 0
BBX 15 34 1 0
BITMAP
01C0
01C0
01C0
0000
0030
0070
00E0
0180
0300
0600
0000
07E4
1C3C
381C
700C
7004
7006
7800
7C00
3E00
1F80
0FE0
07F0
01F8
007C
003E
001E
800E
800E
C00E
E00C
701C
7C78
67F0
ENDCHAR
STARTCHAR uni1E65
ENCODING 7781
SWIDTH 389 0
DWIDTH 13 0
BBX 10 26 1 0
BITMAP
0700
0700
0700
0000
00C0
01C0
0380
0600
0C00
1800
0000
3E80
6380
C180
C080
E080
F000
7C00
3F00
0F80
03C0
81C0
80C0
C0C0
E180
BF00
ENDCHAR
STARTCHAR uni1E66
ENCODING 7782
SWIDTH 556 0
DWIDTH 18 0
BBX 15 31 1 0
BITMAP
0380
0380
0380
0000
2010
3030
1CE0
0FC0
0780
0300
0000
0000
07E4
1C3C
381C
700C
7004
7002
7802
3C00
3F00
0FE0
03F8
00FC
801E
800E
C00E
600C
701C
7C78
4FF0
ENDCHAR
STARTCHAR uni1E67
ENCODING 7783
SWIDTH 389 0
DWIDTH 13 0
BBX 10 27 1 0
BITMAP
0E00
0E00
0E00
0000
8040
C0C0
7380
3F00
1E00
0C00
0000
0000
3E80
6380
C180
C080
E080
F000
7C00
3F00
0F80
03C0
81C0
80C0
C0C0
E180
BF00
ENDCHAR
STARTCHAR uni1E68
ENCODING 7784
SWIDTH 556 0
DWIDTH 18 0
BBX 15 31 1 -4
BITMAP
0380
0380
0380
0000
07E4
1C3C
381C
700C
7004
7006
7800
7C00
3E00
1F80
0FE0
07F0
01F8
007C
003E
001E
800E
800E
C00E
E00C
701C
7C78
67F0
0000
0380
0380
0380
ENDCHAR
STARTCHAR uni1E69
ENCODING 7785
SWIDTH 389 0
DWIDTH 13 0
BBX 10 23 1 -4
BITMAP
1C00
1C00
1C00
0000
3E80
6380
C180
C080
E080
F000
7C00
3F00
0F80
03C0
81C0
80C0
C0C0
E180
BF00
0000
1C00
1C00
1C00
ENDCHAR
STARTCHAR uni1E6A
ENCODING 7786
SWIDTH 611 0
DWIDTH 20 0
BBX 19 27 1 0
BITMAP
00E000
00E000
00E000
000000
FFFFE0
F0E1E0
C0E060
C0E060
80E020
80E020
00E000
00E000
00E000
00E000
00E000
00E000
00E000
00E000
00E000
00E000
00E000
00E000
00E000
00E000
00E000
01F000
07FC00
ENDCHAR
STARTCHAR uni1E6B
ENCODING 7787
SWIDTH 278 0
DWIDTH 9 0
BBX 9 23 0 0
BITMAP
1C00
1C00
1C00
0000
0800
0800
1800
3800
FF00
3800
3800
3800
3800
3800
3800
3800
3800
3800
3800
3800
3880
3F00
1C00
ENDCHAR
STARTCHAR uni1E6C
ENCODING 7788
SWIDTH 611 0
DWIDTH 20 0
BBX 19 27 1 -4
BITMAP
FFFFE0
F0E1E0
C0E060
C0E060
80E020
80E020
00E000
00E000
00E000
00E000
00E000
00E000
00E000
00E000
00E000
00E000
00E000
00E000
00E000
00E000
00E000
01F000
07FC00
000000
00E000
00E000
00E000
ENDCHAR
STARTCHAR uni1E6D
ENCODING 7789
SWIDTH 278 0
DWIDTH 9 0
BBX 9 23 0 -4
BITMAP
0800
0800
1800
3800
FF00
3800
3800
3800
3800
3800
3800
3800
3800
3800
3800
3800
3880
3F00
1C00
0000
1C00
1C00
1C00
ENDCHAR
STARTCHAR uni1E6E
ENCODING 7790
SWIDTH 611 0
DWIDTH 20 0
BBX 19 26 1 -3
BITMAP
FFFFE0
F0E1E0
C0E060
C0E060
80E020
80E020
00E000
00E000
00E000
00E000
00E000
00E000
00E000
00E000
00E000
00E000
00E000
00E000
00E000
00E000
00E000
01F000
07FC00
000000
07FE00
07FE00
ENDCHAR
STARTCHAR uni1E6F
ENCODING 7791
SWIDTH 278 0
DWIDTH 9 0
BBX 10 22 -1 -3
BITMAP
0400
0400
0C00
1C00
7F80
1C00
1C00
1C00
1C00
1C00
1C00
1C00
1C00
1C00
1C00
1C00
1C40
1F80
0E00
0000
FFC0
FFC0
ENDCHAR
STARTCHAR uni1E70
ENCODING 7792
SWIDTH 611 0
DWIDTH 20 0
BBX 19 30 1 -7
BITMAP
FFFFE0
F0E1E0
C0E060
C0E060
80E020
80E020
00E000
00E000
00E000
00E000
00E000
00E000
00E000
00E000
00E000
00E000
00E000
00E000
00E000
00E000
00E000
01F000
07FC00
000000
006000
00F000
01F800
039C00
060600
040200
ENDCHAR
STARTCHAR uni1E71
ENCODING 7793
SWIDTH 278 0
DWIDTH 9 0
BBX 10 26 -1 -7
BITMAP
0400
0400
0C00
1C00
7F80
1C00
1C00
1C00
1C00
1C00
1C00
1C00
1C00
1C00
1C00
1C00
1C40
1F80
0E00
0000
0C00
1E00
3F00
7380
C0C0
8040
ENDCHAR
STARTCHAR uni1E72
ENCODING 7794
SWIDTH 722 0
DWIDTH 24 0
BBX 22 27 1 -4
BITMAP
FF81FC
3E0070
1C0020
1C0020
1C0020
1C0020
1C0020
1C0020
1C0020
1C0020
1C0020
1C0020
1C0020
1C0020
1C0020
1C0020
1C0020
1C0020
1E0060
0E0040
0F00C0
07C380
01FE00
000000
038E00
038E00
038E00
ENDCHAR
STARTCHAR uni1E73
ENCODING 7795
SWIDTH 500 0
DWIDTH 17 0
BBX 16 19 0 -4
BITMAP
F87C
381C
381C
381C
381C
381C
381C
381C
381C
381C
381C
383C
3C5C
1FDF
0F8C
0000
0E38
0E38
0E38
ENDCHAR
STARTCHAR uni1E74
ENCODING 7796
SWIDTH 722 0
DWIDTH 24 0
BBX 22 28 1 -5
BITMAP
FF81FC
3E0070
1C0020
1C0020
1C0020
1C0020
1C0020
1C0020
1C0020
1C0020
1C0020
1C0020
1C0020
1C0020
1C0020
1C0020
1C0020
1C0020
1E0060
0E0040
0F00C0
07C380
01FE00
000000
01C100
03E300
063E00
041C00
ENDCHAR
STARTCHAR uni1E75
ENCODING 7797
SWIDTH 500 0
DWIDTH 17 0
BBX 16 20 0 -5
BITMAP
F87C
381C
381C
381C
381C
381C
381C
381C
381C
381C
381C
383C
3C5C
1FDF
0F8C
0000
0704
0F8C
18F8
1070
ENDCHAR
STARTCHAR uni1E76
ENCODING 7798
SWIDTH 722 0
DWIDTH 24 0
BBX 22 30 1 -7
BITMAP
FF81FC
3E0070
1C0020
1C0020
1C0020
1C0020
1C0020
1C0020
1C0020
1C0020
1C0020
1C0020
1C0020
1C0020
1C0020
1C0020
1C0020
1C0020
1E0060
0E0040
0F00C0
07C380
01FE00
000000
006000
00F000
01F800
039C00
060600
040200
ENDCHAR
STARTCHAR uni1E77
ENCODING 7799
SWIDTH 500 0
DWIDTH 17 0
BBX 16 22 0 -7
BITMAP
F87C
381C
381C
381C
381C
381C
381C
381C
381C
381C
381C
383C
3C5C
1FDF
0F8C
0000
0180
03C0
07E0
0E70
1818
1008
ENDCHAR
STARTCHAR uni1E78
ENCODING 7800
SWIDTH 722 0
DWIDTH 24 0
BBX 22 35 1 0
BITMAP
000600
000E00
001C00
003000
006000
00C000
000000
038200
07C600
0C7C00
083800
000000
FF81FC
3E0070
1C0020
1C0020
1C0020
1C0020
1C0020
1C0020
1C0020
1C0020
1C0020
1C0020
1C0020
1C0020
1C0020
1C0020
1C0020
1C0020
1E0060
0E0040
0F00C0
07C380
01FE00
ENDCHAR
STARTCHAR uni1E79
ENCODING 7801
SWIDTH 500 0
DWIDTH 17 0
BBX 16 27 0 0
BITMAP
0030
0070
00E0
0180
0300
0600
0000
0E08
1F18
31F0
20E0
0000
F87C
381C
381C
381C
381C
381C
381C
381C
381C
381C
381C
383C
3C5C
1FDF
0F8C
ENDCHAR
STARTCHAR uni1E7A
ENCODING 7802
SWIDTH 722 0
DWIDTH 24 0
BBX 22 30 1 0
BITMAP
038E00
038E00
038E00
000000
07FE00
07FE00
000000
FF81FC
3E0070
1C0020
1C0020
1C0020
1C0020
1C0020
1C0020
1C0020
1C0020
1C0020
1C0020
1C0020
1C0020
1C0020
1C0020
1C0020
1C0020
1E0060
0E0040
0F00C0
07C380
01FE00
ENDCHAR
STARTCHAR uni1E7B
ENCODING 7803
SWIDTH 500 0
DWIDTH 17 0
BBX 16 22 0 0
BITMAP
1C70
1C70
1C70
0000
1FF8
1FF8
0000
F87C
381C
381C
381C
381C
381C
381C
381C
381C
381C
381C
383C
3C5C
1FDF
0F8C
ENDCHAR
STARTCHAR uni1E7C
ENCODING 7804
SWIDTH 722 0
DWIDTH 23 0
BBX 22 28 1 0
BITMAP
038200
07C600
0C7C00
083800
000000
FF01FC
7C0070
3C0060
1E0040
1E00C0
0E00C0
0F0080
0F0180
070180
078100
038300
03C300
03C200
01C600
01E600
00E400
00EC00
007C00
007800
007800
003800
003000
001000
ENDCHAR
STARTCHAR uni1E7D
ENCODING 7805
SWIDTH 500 0
DWIDTH 17 0
BBX 15 20 1 0
BITMAP
1C10
3E30
63E0
41C0
0000
FE3E
780C
3808
3C18
1C18
1C10
0E30
0E20
0760
0740
07C0
03C0
0380
0180
0100
ENDCHAR
STARTCHAR uni1E7E
ENCODING 7806
SWIDTH 722 0
DWIDTH 23 0
BBX 22 27 1 -4
BITMAP
FF01FC
7C0070
3C0060
1E0040
1E00C0
0E00C0
0F0080
0F0180
070180
078100
038300
03C300
03C200
01C600
01E600
00E400
00EC00
007C00
007800
007800
003800
003000
001000
000000
003800
003800
003800
ENDCHAR
STARTCHAR uni1E7F
ENCODING 7807
SWIDTH 500 0
DWIDTH 17 0
BBX 15 19 1 -4
BITMAP
FE3E
780C
3808
3C18
1C18
1C10
0E30
0E20
0760
0740
07C0
03C0
0380
0180
0100
0000
0380
0380
0380
ENDCHAR
STARTCHAR Wgrave
ENCODING 7808
SWIDTH 944 0
DWIDTH 32 0
BBX 31 30 1 0
BITMAP
00300000
00380000
001C0000
00060000
00030000
00018000
00000000
FF3FE0FE
7C0F8078
3C070030
1C078030
1E078060
1E038060
0E03C060
0F03C0C0
0703E0C0
0787E0C0
0786E180
0384F180
03CCF180
03CC7300
01D87B00
01D83B00
01F83E00
00F03E00
00F01C00
00E01C00
00601C00
00600800
00400800
ENDCHAR
STARTCHAR wgrave
ENCODING 7809
SWIDTH 722 0
DWIDTH 24 0
BBX 21 22 1 0
BITMAP
060000
070000
038000
00C000
006000
003000
000000
FDFC78
707030
707030
383020
383860
183840
1C7840
1C5CC0
0CCC80
0E8F80
0F8F00
070700
070700
030600
020200
ENDCHAR
STARTCHAR Wacute
ENCODING 7810
SWIDTH 944 0
DWIDTH 32 0
BBX 31 30 1 0
BITMAP
00006000
0000E000
0001C000
00030000
00060000
000C0000
00000000
FF3FE0FE
7C0F8078
3C070030
1C078030
1E078060
1E038060
0E03C060
0F03C0C0
0703E0C0
0787E0C0
0786E180
0384F180
03CCF180
03CC7300
01D87B00
01D83B00
01F83E00
00F03E00
00F01C00
00E01C00
00601C00
00600800
00400800
ENDCHAR
STARTCHAR wacute
ENCODING 7811
SWIDTH 722 0
DWIDTH 24 0
BBX 21 22 1 0
BITMAP
000600
000E00
001C00
003000
006000
00C000
000000
FDFC78
707030
707030
383020
383860
183840
1C7840
1C5CC0
0CCC80
0E8F80
0F8F00
070700
070700
030600
020200
ENDCHAR
STARTCHAR Wdieresis
ENCODING 7812
SWIDTH 944 0
DWIDTH 32 0
BBX 31 27 1 0
BITMAP
0038E000
0038E000
0038E000
00000000
FF3FE0FE
7C0F8078
3C070030
1C078030
1E078060
1E038060
0E03C060
0F03C0C0
0703E0C0
0787E0C0
0786E180
0384F180
03CCF180
03CC7300
01D87B00
01D83B00
01F83E00
00F03E00
00F01C00
00E01C00
00601C00
00600800
00400800
ENDCHAR
STARTCHAR wdieresis
ENCODING 7813
SWIDTH 722 0
DWIDTH 24 0
BBX 21 19 1 0
BITMAP
071C00
071C00
071C00
000000
FDFC78
707030
707030
383020
383860
183840
1C7840
1C5CC0
0CCC80
0E8F80
0F8F00
070700
070700
030600
020200
ENDCHAR
STARTCHAR uni1E86
ENCODING 7814
SWIDTH 944 0
DWIDTH 32 0
BBX 31 27 1 0
BITMAP
00070000
00070000
00070000
00000000
FF3FE0FE
7C0F8078
3C070030
1C078030
1E078060
1E038060
0E03C060
0F03C0C0
0703E0C0
0787E0C0
0786E180
0384F180
03CCF180
03CC7300
01D87B00
01D83B00
01F83E00
00F03E00
00F01C00
00E01C00
00601C00
00600800
00400800
ENDCHAR
STARTCHAR uni1E87
ENCODING 7815
SWIDTH 722 0
DWIDTH 24 0
BBX 21 19 1 0
BITMAP
00E000
00E000
00E000
000000
FDFC78
707030
707030
383020
383860
183840
1C7840
1C5CC0
0CCC80
0E8F80
0F8F00
070700
070700
030600
020200
ENDCHAR
STARTCHAR uni1E88
ENCODING 7816
SWIDTH 944 0
DWIDTH 32 0
BBX 31 27 1 -4
BITMAP
FF3FE0FE
7C0F8078
3C070030
1C078030
1E078060
1E038060
0E03C060
0F03C0C0
0703E0C0
0787E0C0
0786E180
0384F180
03CCF180
03CC7300
01D87B00
01D83B00
01F83E00
00F03E00
00F01C00
00E01C00
00601C00
00600800
00400800
00000000
00038000
00038000
00038000
ENDCHAR
STARTCHAR uni1E89
ENCODING 7817
SWIDTH 722 0
DWIDTH 24 0
BBX 21 19 1 -4
BITMAP
FDFC78
707030
707030
383020
383860
183840
1C7840
1C5CC0
0CCC80
0E8F80
0F8F00
070700
070700
030600
020200
000000
007000
007000
007000
ENDCHAR
STARTCHAR uni1E8A
ENCODING 7818
SWIDTH 722 0
DWIDTH 24 0
BBX 22 27 1 0
BITMAP
007000
007000
007000
000000
FFC3FC
3F00F0
1F00E0
0F00C0
078180
078300
03C600
01E600
01EC00
00F800
007800
007800
007C00
00DE00
019E00
018F00
030F80
060780
0E03C0
0C03E0
1801E0
3801F0
FE07FC
ENDCHAR
STARTCHAR uni1E8B
ENCODING 7819
SWIDTH 500 0
DWIDTH 17 0
BBX 14 19 1 0
BITMAP
0700
0700
0700
0000
FCF8
3860
3CC0
1C80
1E80
0F00
0700
0780
0F80
0BC0
19E0
10E0
3070
6078
F0FC
ENDCHAR
STARTCHAR uni1E8C
ENCODING 7820
SWIDTH 722 0
DWIDTH 24 0
BBX 22 27 1 0
BITMAP
038E00
038E00
038E00
000000
FFC3FC
3F00F0
1F00E0
0F00C0
078180
078300
03C600
01E600
01EC00
00F800
007800
007800
007C00
00DE00
019E00
018F00
030F80
060780
0E03C0
0C03E0
1801E0
3801F0
FE07FC
ENDCHAR
STARTCHAR uni1E8D
ENCODING 7821
SWIDTH 500 0
DWIDTH 17 0
BBX 14 19 1 0
BITMAP
38E0
38E0
38E0
0000
FCF8
3860
3CC0
1C80
1E80
0F00
0700
0780
0F80
0BC0
19E0
10E0
3070
6078
F0FC
ENDCHAR
STARTCHAR uni1E8E
ENCODING 7822
SWIDTH 722 0
DWIDTH 24 0
BBX 22 27 1 0
BITMAP
007000
007000
007000
000000
FFC0FC
3F0038
1E0030
0F0060
0F80C0
078080
03C180
03C300
01E300
00F600
00FC00
007C00
003800
003800
003800
003800
003800
003800
003800
003800
003800
007C00
01FF00
ENDCHAR
STARTCHAR uni1E8F
ENCODING 7823
SWIDTH 500 0
DWIDTH 17 0
BBX 15 26 1 -7
BITMAP
0380
0380
0380
0000
FE1E
780C
380C
3C08
1C18
1E18
0E10
0E30
0720
0720
03E0
03C0
01C0
0180
0180
0100
0100
0300
0200
3E00
7C00
3800
ENDCHAR
STARTCHAR uni1E90
ENCODING 7824
SWIDTH 611 0
DWIDTH 20 0
BBX 19 30 1 0
BITMAP
006000
00F000
01F800
039C00
060600
040200
000000
3FFFE0
3803C0
600780
600780
400F00
401E00
001E00
003C00
007800
007800
00F000
01E000
01E000
03C000
03C000
078000
0F0000
0F0020
1E0020
3C0060
3C0060
7801C0
FFFFC0
ENDCHAR
STARTCHAR uni1E91
ENCODING 7825
SWIDTH 444 0
DWIDTH 15 0
BBX 13 22 1 0
BITMAP
0300
0780
0FC0
1CE0
3030
2010
0000
7FF0
60F0
40E0
41E0
03C0
0380
0780
0700
0E00
1E00
1C08
3808
7808
7018
FFF0
ENDCHAR
STARTCHAR uni1E92
ENCODING 7826
SWIDTH 611 0
DWIDTH 20 0
BBX 19 27 1 -4
BITMAP
3FFFE0
3803C0
600780
600780
400F00
401E00
001E00
003C00
007800
007800
00F000
01E000
01E000
03C000
03C000
078000
0F0000
0F0020
1E0020
3C0060
3C0060
7801C0
FFFFC0
000000
01C000
01C000
01C000
ENDCHAR
STARTCHAR uni1E93
ENCODING 7827
SWIDTH 444 0
DWIDTH 15 0
BBX 13 19 1 -4
BITMAP
7FF0
60F0
40E0
41E0
03C0
0380
0780
0700
0E00
1E00
1C08
3808
7808
7018
FFF0
0000
0700
0700
0700
ENDCHAR
STARTCHAR uni1E94
ENCODING 7828
SWIDTH 611 0
DWIDTH 20 0
BBX 19 26 1 -3
BITMAP
3FFFE0
3803C0
600780
600780
400F00
401E00
001E00
003C00
007800
007800
00F000
01E000
01E000
03C000
03C000
078000
0F0000
0F0020
1E0020
3C0060
3C0060
7801C0
FFFFC0
000000
0FFC00
0FFC00
ENDCHAR
STARTCHAR uni1E95
ENCODING 7829
SWIDTH 444 0
DWIDTH 15 0
BBX 13 18 1 -3
BITMAP
7FF0
60F0
40E0
41E0
03C0
0380
0780
0700
0E00
1E00
1C08
3808
7808
7018
FFF0
0000
7FE0
7FE0
ENDCHAR
STARTCHAR uni1E96
ENCODING 7830
SWIDTH 500 0
DWIDTH 16 0
BBX 16 26 0 -3
BITMAP
1800
F800
3800
3800
3800
3800
3800
3800
39F0
3BF8
3E3C
3C1C
381C
381C
381C
381C
381C
381C
381C
381C
381C
381C
FE7F
0000
1FF8
1FF8
ENDCHAR
STARTCHAR uni1E97
ENCODING 7831
SWIDTH 278 0
DWIDTH 9 0
BBX 9 23 0 0
BITMAP
E380
E380
E380
0000
0800
0800
1800
3800
FF00
3800
3800
3800
3800
3800
3800
3800
3800
3800
3800
3800
3880
3F00
1C00
ENDCHAR
STARTCHAR uni1E98
ENCODING 7832
SWIDTH 722 0
DWIDTH 24 0
BBX 21 23 1 0
BITMAP
00E000
01F000
031800
020800
031800
01F000
00E000
000000
FDFC78
707030
707030
383020
383860
183840
1C7840
1C5CC0
0CCC80
0E8F80
0F8F00
070700
070700
030600
020200
ENDCHAR
STARTCHAR uni1E99
ENCODING 7833
SWIDTH 500 0
DWIDTH 17 0
BBX 15 30 1 -7
BITMAP
0380
07C0
0C60
0820
0C60
07C0
0380
0000
FE1E
780C
380C
3C08
1C18
1E18
0E10
0E30
0720
0720
03E0
03C0
01C0
0180
0180
0100
0100
0300
0200
3E00
7C00
3800
ENDCHAR
STARTCHAR uni1EA0
ENCODING 7840
SWIDTH 722 0
DWIDTH 24 0
BBX 22 27 1 -4
BITMAP
003000
003000
007000
007800
007800
00FC00
00DC00
009C00
018E00
010E00
030F00
030700
020700
060780
060380
0FFFC0
0C03C0
1801C0
1801E0
3001E0
3000F0
7000F0
FC03FC
000000
003800
003800
003800
ENDCHAR
STARTCHAR uni1EA1
ENCODING 7841
SWIDTH 444 0
DWIDTH 15 0
BBX 13 19 1 -4
BITMAP
1F80
31C0
70E0
70E0
60E0
03E0
0EE0
18E0
30E0
60E0
E0E0
E1E0
F2E8
7EF8
3C70
0000
0700
0700
0700
ENDCHAR
STARTCHAR uni1EA4
ENCODING 7844
SWIDTH 722 0
DWIDTH 24 0
BBX 22 37 1 0
BITMAP
000300
000700
000E00
001800
003000
006000
000000
003000
007800
00FC00
01CE00
030300
020100
000000
003000
003000
007000
007800
007800
00FC00
00DC00
009C00
018E00
010E00
030F00
030700
020700
060780
060380
0FFFC0
0C03C0
1801C0
1801E0
3001E0
3000F0
7000F0
FC03FC
ENDCHAR
STARTCHAR uni1EA5
ENCODING 7845
SWIDTH 444 0
DWIDTH 15 0
BBX 13 30 1 0
BITMAP
0060
00E0
01C0
0300
0600
0C00
0000
0600
0F00
1F80
39C0
6060
4020
0000
0000
1F80
31C0
70E0
70E0
60E0
03E0
0EE0
18E0
30E0
60E0
E0E0
E1E0
F2E8
7EF8
3C70
ENDCHAR
STARTCHAR uni1EA6
ENCODING 7846
SWIDTH 722 0
DWIDTH 24 0
BBX 22 37 1 0
BITMAP
030000
038000
01C000
006000
003000
001800
000000
003000
007800
00FC00
01CE00
030300
020100
000000
003000
003000
007000
007800
007800
00FC00
00DC00
009C00
018E00
010E00
030F00
030700
020700
060780
060380
0FFFC0
0C03C0
1801C0
1801E0
3001E0
3000F0
7000F0
FC03FC
ENDCHAR
STARTCHAR uni1EA7
ENCODING 7847
SWIDTH 444 0
DWIDTH 15 0
BBX 13 30 1 0
BITMAP
6000
7000
3800
0C00
0600
0300
0000
0600
0F00
1F80
39C0
6060
4020
0000
0000
1F80
31C0
70E0
70E0
60E0
03E0
0EE0
18E0
30E0
60E0
E0E0
E1E0
F2E8
7EF8
3C70
ENDCHAR
STARTCHAR uni1EAA
ENCODING 7850
SWIDTH 722 0
DWIDTH 24 0
BBX 22 35 1 0
BITMAP
01C100
03E300
063E00
041C00
000000
003000
007800
00FC00
01CE00
030300
020100
000000
003000
003000
007000
007800
007800
00FC00
00DC00
009C00
018E00
010E00
030F00
030700
020700
060780
060380
0FFFC0
0C03C0
1801C0
1801E0
3001E0
3000F0
7000F0
FC03FC
ENDCHAR
STARTCHAR uni1EAB
ENCODING 7851
SWIDTH 444 0
DWIDTH 15 0
BBX 13 28 1 0
BITMAP
1C10
3E30
63E0
41C0
0000
0600
0F00
1F80
39C0
6060
4020
0000
0000
1F80
31C0
70E0
70E0
60E0
03E0
0EE0
18E0
30E0
60E0
E0E0
E1E0
F2E8
7EF8
3C70
ENDCHAR
STARTCHAR uni1EAC
ENCODING 7852
SWIDTH 722 0
DWIDTH 24 0
BBX 22 34 1 -4
BITMAP
003000
007800
00FC00
01CE00
030300
020100
000000
003000
003000
007000
007800
007800
00FC00
00DC00
009C00
018E00
010E00
030F00
030700
020700
060780
060380
0FFFC0
0C03C0
1801C0
1801E0
3001E0
3000F0
7000F0
FC03FC
000000
003800
003800
003800
ENDCHAR
STARTCHAR uni1EAD
ENCODING 7853
SWIDTH 444 0
DWIDTH 15 0
BBX 13 26 1 -4
BITMAP
0600
0F00
1F80
39C0
6060
4020
0000
1F80
31C0
70E0
70E0
60E0
03E0
0EE0
18E0
30E0
60E0
E0E0
E1E0
F2E8
7EF8
3C70
0000
0700
0700
0700
ENDCHAR
STARTCHAR uni1EAE
ENCODING 7854
SWIDTH 722 0
DWIDTH 24 0
BBX 22 36 1 0
BITMAP
000300
000700
000E00
001800
003000
006000
000000
020200
030600
018C00
01FC00
00F800
000000
003000
003000
007000
007800
007800
00FC00
00DC00
009C00
018E00
010E00
030F00
030700
020700
060780
060380
0FFFC0
0C03C0
1801C0
1801E0
3001E0
3000F0
7000F0
FC03FC
ENDCHAR
STARTCHAR uni1EAF
ENCODING 7855
SWIDTH 444 0
DWIDTH 15 0
BBX 13 28 1 0
BITMAP
0060
00E0
01C0
0300
0600
0C00
0000
2020
3060
18C0
1FC0
0F80
0000
1F80
31C0
70E0
70E0
60E0
03E0
0EE0
18E0
30E0
60E0
E0E0
E1E0
F2E8
7EF8
3C70
ENDCHAR
STARTCHAR uni1EB0
ENCODING 7856
SWIDTH 722 0
DWIDTH 24 0
BBX 22 36 1 0
BITMAP
030000
038000
01C000
006000
003000
001800
000000
020200
030600
018C00
01FC00
00F800
000000
003000
003000
007000
007800
007800
00FC00
00DC00
009C00
018E00
010E00
030F00
030700
020700
060780
060380
0FFFC0
0C03C0
1801C0
1801E0
3001E0
3000F0
7000F0
FC03FC
ENDCHAR
STARTCHAR uni1EB1
ENCODING 7857
SWIDTH 444 0
DWIDTH 15 0
BBX 13 28 1 0
BITMAP
3000
3800
1C00
0600
0300
0180
0000
2020
3060
18C0
1FC0
0F80
0000
1F80
31C0
70E0
70E0
60E0
03E0
0EE0
18E0
30E0
60E0
E0E0
E1E0
F2E8
7EF8
3C70
ENDCHAR
STARTCHAR uni1EB4
ENCODING 7860
SWIDTH 722 0
DWIDTH 24 0
BBX 22 34 1 0
BITMAP
01C100
03E300
063E00
041C00
000000
020200
030600
018C00
01FC00
00F800
000000
003000
003000
007000
007800
007800
00FC00
00DC00
009C00
018E00
010E00
030F00
030700
020700
060780
060380
0FFFC0
0C03C0
1801C0
1801E0
3001E0
3000F0
7000F0
FC03FC
ENDCHAR
STARTCHAR uni1EB5
ENCODING 7861
SWIDTH 444 0
DWIDTH 15 0
BBX 13 26 1 0
BITMAP
1C10
3E30
63E0
41C0
0000
2020
3060
18C0
1FC0
0F80
0000
1F80
31C0
70E0
70E0
60E0
03E0
0EE0
18E0
30E0
60E0
E0E0
E1E0
F2E8
7EF8
3C70
ENDCHAR
STARTCHAR uni1EB6
ENCODING 7862
SWIDTH 722 0
DWIDTH 24 0
BBX 22 33 1 -4
BITMAP
020200
030600
018C00
01FC00
00F800
000000
003000
003000
007000
007800
007800
00FC00
00DC00
009C00
018E00
010E00
030F00
030700
020700
060780
060380
0FFFC0
0C03C0
1801C0
1801E0
3001E0
3000F0
7000F0
FC03FC
000000
003800
003800
003800
ENDCHAR
STARTCHAR uni1EB7
ENCODING 7863
SWIDTH 444 0
DWIDTH 15 0
BBX 13 25 1 -4
BITMAP
2020
3060
18C0
1FC0
0F80
0000
1F80
31C0
70E0
70E0
60E0
03E0
0EE0
18E0
30E0
60E0
E0E0
E1E0
F2E8
7EF8
3C70
0000
0700
0700
0700
ENDCHAR
STARTCHAR uni1EB8
ENCODING 7864
SWIDTH 611 0
DWIDTH 20 0
BBX 19 27 1 -4
BITMAP
FFFFC0
3E03C0
1C00C0
1C0040
1C0040
1C0000
1C0000
1C0000
1C0100
1C0100
1C0300
1FFF00
1C0300
1C0100
1C0100
1C0000
1C0000
1C0020
1C0020
1C0060
1C00C0
3E03C0
FFFFC0
000000
00E000
00E000
00E000
ENDCHAR
STARTCHAR uni1EB9
ENCODING 7865
SWIDTH 444 0
DWIDTH 15 0
BBX 12 19 1 -4
BITMAP
0F80
39C0
60E0
6070
C070
FFF0
C000
C000
C000
E000
E010
7030
7C60
3FC0
0F00
0000
0E00
0E00
0E00
ENDCHAR
STARTCHAR uni1EBC
ENCODING 7868
SWIDTH 611 0
DWIDTH 20 0
BBX 19 28 1 0
BITMAP
070400
0F8C00
18F800
107000
000000
FFFFC0
3E03C0
1C00C0
1C0040
1C0040
1C0000
1C0000
1C0000
1C0100
1C0100
1C0300
1FFF00
1C0300
1C0100
1C0100
1C0000
1C0000
1C0020
1C0020
1C0060
1C00C0
3E03C0
FFFFC0
ENDCHAR
STARTCHAR uni1EBD
ENCODING 7869
SWIDTH 444 0
DWIDTH 15 0
BBX 12 20 1 0
BITMAP
1C10
3E30
63E0
41C0
0000
0F80
39C0
60E0
6070
C070
FFF0
C000
C000
C000
E000
E010
7030
7C60
3FC0
0F00
ENDCHAR
STARTCHAR uni1EBE
ENCODING 7870
SWIDTH 611 0
DWIDTH 20 0
BBX 19 37 1 0
BITMAP
000600
000E00
001C00
003000
006000
00C000
000000
003000
007800
00FC00
01CE00
030300
020100
000000
FFFFC0
3E03C0
1C00C0
1C0040
1C0040
1C0000
1C0000
1C0000
1C0100
1C0100
1C0300
1FFF00
1C0300
1C0100
1C0100
1C0000
1C0000
1C0020
1C0020
1C0060
1C00C0
3E03C0
FFFFC0
ENDCHAR
STARTCHAR uni1EBF
ENCODING 7871
SWIDTH 444 0
DWIDTH 15 0
BBX 12 30 1 0
BITMAP
0060
00E0
01C0
0300
0600
0C00
0000
0600
0F00
1F80
39C0
6060
4020
0000
0000
0F80
39C0
60E0
6070
C070
FFF0
C000
C000
C000
E000
E010
7030
7C60
3FC0
0F00
ENDCHAR
STARTCHAR uni1EC0
ENCODING 7872
SWIDTH 611 0
DWIDTH 20 0
BBX 19 37 1 0
BITMAP
060000
070000
038000
00C000
006000
003000
000000
003000
007800
00FC00
01CE00
030300
020100
000000
FFFFC0
3E03C0
1C00C0
1C0040
1C0040
1C0000
1C0000
1C0000
1C0100
1C0100
1C0300
1FFF00
1C0300
1C0100
1C0100
1C0000
1C0000
1C0020
1C0020
1C0060
1C00C0
3E03C0
FFFFC0
ENDCHAR
STARTCHAR uni1EC1
ENCODING 7873
SWIDTH 444 0
DWIDTH 15 0
BBX 12 30 1 0
BITMAP
6000
7000
3800
0C00
0600
0300
0000
0600
0F00
1F80
39C0
6060
4020
0000
0000
0F80
39C0
60E0
6070
C070
FFF0
C000
C000
C000
E000
E010
7030
7C60
3FC0
0F00
ENDCHAR
STARTCHAR uni1EC4
ENCODING 7876
SWIDTH 611 0
DWIDTH 20 0
BBX 19 35 1 0
BITMAP
038200
07C600
0C7C00
083800
000000
003000
007800
00FC00
01CE00
030300
020100
000000
FFFFC0
3E03C0
1C00C0
1C0040
1C0040
1C0000
1C0000
1C0000
1C0100
1C0100
1C0300
1FFF00
1C0300
1C0100
1C0100
1C0000
1C0000
1C0020
1C0020
1C0060
1C00C0
3E03C0
FFFFC0
ENDCHAR
STARTCHAR uni1EC5
ENCODING 7877
SWIDTH 444 0
DWIDTH 15 0
BBX 12 28 1 0
BITMAP
3820
7C60
C7C0
8380
0000
0600
0F00
1F80
39C0
6060
4020
0000
0000
0F80
39C0
60E0
6070
C070
FFF0
C000
C000
C000
E000
E010
7030
7C60
3FC0
0F00
ENDCHAR
STARTCHAR uni1EC6
ENCODING 7878
SWIDTH 611 0
DWIDTH 20 0
BBX 19 34 1 -4
BITMAP
00C000
01E000
03F000
073800
0C0C00
080400
000000
FFFFC0
3E03C0
1C00C0
1C0040
1C0040
1C0000
1C0000
1C0000
1C0100
1C0100
1C0300
1FFF00
1C0300
1C0100
1C0100
1C0000
1C0000
1C0020
1C0020
1C0060
1C00C0
3E03C0
FFFFC0
000000
00E000
00E000
00E000
ENDCHAR
STARTCHAR uni1EC7
ENCODING 7879
SWIDTH 444 0
DWIDTH 15 0
BBX 12 26 1 -4
BITMAP
0600
0F00
1F80
39C0
6060
4020
0000
0F80
39C0
60E0
6070
C070
FFF0
C000
C000
C000
E000
E010
7030
7C60
3FC0
0F00
0000
0E00
0E00
0E00
ENDCHAR
STARTCHAR uni1ECA
ENCODING 7882
SWIDTH 333 0
DWIDTH 11 0
BBX 9 27 1 -4
BITMAP
FF80
3E00
1C00
1C00
1C00
1C00
1C00
1C00
1C00
1C00
1C00
1C00
1C00
1C00
1C00
1C00
1C00
1C00
1C00
1C00
1C00
3E00
FF80
0000
1C00
1C00
1C00
ENDCHAR
STARTCHAR uni1ECB
ENCODING 7883
SWIDTH 278 0
DWIDTH 9 0
BBX 7 27 1 -4
BITMAP
38
38
38
00
00
00
00
00
38
F8
38
38
38
38
38
38
38
38
38
38
38
38
FE
00
38
38
38
ENDCHAR
STARTCHAR uni1ECC
ENCODING 7884
SWIDTH 722 0
DWIDTH 24 0
BBX 22 27 1 -4
BITMAP
01FE00
078780
0E01C0
1C00E0
380070
380070
700038
700038
F0003C
F0003C
F0003C
F0003C
F0003C
F0003C
F0003C
700038
700038
380070
380070
1C00E0
0E01C0
078780
01FE00
000000
003800
003800
003800
ENDCHAR
STARTCHAR uni1ECD
ENCODING 7885
SWIDTH 500 0
DWIDTH 16 0
BBX 14 19 1 -4
BITMAP
0780
18E0
3070
7038
6038
E01C
E01C
E01C
E01C
E01C
7018
7038
3830
1C60
0780
0000
0700
0700
0700
ENDCHAR
STARTCHAR uni1ED0
ENCODING 7888
SWIDTH 722 0
DWIDTH 24 0
BBX 22 37 1 0
BITMAP
000300
000700
000E00
001800
003000
006000
000000
003000
007800
00FC00
01CE00
030300
020100
000000
01FE00
078780
0E01C0
1C00E0
380070
380070
700038
700038
F0003C
F0003C
F0003C
F0003C
F0003C
F0003C
F0003C
700038
700038
380070
380070
1C00E0
0E01C0
078780
01FE00
ENDCHAR
STARTCHAR uni1ED1
ENCODING 7889
SWIDTH 500 0
DWIDTH 16 0
BBX 14 30 1 0
BITMAP
0030
0070
00E0
0180
0300
0600
0000
0300
0780
0FC0
1CE0
3030
2010
0000
0000
0780
18E0
3070
7038
6038
E01C
E01C
E01C
E01C
E01C
7018
7038
3830
1C60
0780
ENDCHAR
STARTCHAR uni1ED2
ENCODING 7890
SWIDTH 722 0
DWIDTH 24 0
BBX 22 37 1 0
BITMAP
030000
038000
01C000
006000
003000
001800
000000
003000
007800
00FC00
01CE00
030300
020100
000000
01FE00
078780
0E01C0
1C00E0
380070
380070
700038
700038
F0003C
F0003C
F0003C
F0003C
F0003C
F0003C
F0003C
700038
700038
380070
380070
1C00E0
0E01C0
078780
01FE00
ENDCHAR
STARTCHAR uni1ED3
ENCODING 7891
SWIDTH 500 0
DWIDTH 16 0
BBX 14 30 1 0
BITMAP
3000
3800
1C00
0600
0300
0180
0000
0300
0780
0FC0
1CE0
3030
2010
0000
0000
0780
18E0
3070
7038
6038
E01C
E01C
E01C
E01C
E01C
7018
7038
3830
1C60
0780
ENDCHAR
STARTCHAR uni1ED6
ENCODING 7894
SWIDTH 722 0
DWIDTH 24 0
BBX 22 35 1 0
BITMAP
01C100
03E300
063E00
041C00
000000
003000
007800
00FC00
01CE00
030300
020100
000000
01FE00
078780
0E01C0
1C00E0
380070
380070
700038
700038
F0003C
F0003C
F0003C
F0003C
F0003C
F0003C
F0003C
700038
700038
380070
380070
1C00E0
0E01C0
078780
01FE00
ENDCHAR
STARTCHAR uni1ED7
ENCODING 7895
SWIDTH 500 0
DWIDTH 16 0
BBX 14 28 1 0
BITMAP
1C10
3E30
63E0
41C0
0000
0300
0780
0FC0
1CE0
3030
2010
0000
0000
0780
18E0
3070
7038
6038
E01C
E01C
E01C
E01C
E01C
7018
7038
3830
1C60
0780
ENDCHAR
STARTCHAR uni1ED8
ENCODING 7896
SWIDTH 722 0
DWIDTH 24 0
BBX 22 34 1 -4
BITMAP
003000
007800
00FC00
01CE00
030300
020100
000000
01FE00
078780
0E01C0
1C00E0
380070
380070
700038
700038
F0003C
F0003C
F0003C
F0003C
F0003C
F0003C
F0003C
700038
700038
380070
380070
1C00E0
0E01C0
078780
01FE00
000000
003800
003800
003800
ENDCHAR
STARTCHAR uni1ED9
ENCODING 7897
SWIDTH 500 0
DWIDTH 16 0
BBX 14 26 1 -4
BITMAP
0300
0780
0FC0
1CE0
3030
2010
0000
0780
18E0
3070
7038
6038
E01C
E01C
E01C
E01C
E01C
7018
7038
3830
1C60
0780
0000
0700
0700
0700
ENDCHAR
STARTCHAR uni1EDA
ENCODING 7898
SWIDTH 722 0
DWIDTH 24 0
BBX 24 30 1 0
BITMAP
0000C0
0001C0
000380
000600
000C00
001800
000000
01FE06
07878F
0E01CF
1C00E7
380071
380072
70003C
700038
F0003C
F0003C
F0003C
F0003C
F0003C
F0003C
F0003C
700038
700038
380070
380070
1C00E0
0E01C0
078780
01FE00
ENDCHAR
STARTCHAR uni1EDB
ENCODING 7899
SWIDTH 500 0
DWIDTH 16 0
BBX 17 22 1 0
BITMAP
000600
000E00
001C00
003000
006000
00C000
000000
078300
18E780
307780
703B80
603880
E01D00
E01E00
E01C00
E01C00
E01C00
701800
703800
383000
1C6000
078000
ENDCHAR
STARTCHAR uni1EDC
ENCODING 7900
SWIDTH 722 0
DWIDTH 24 0
BBX 24 30 1 0
BITMAP
006000
007000
003800
000C00
000600
000300
000000
01FE06
07878F
0E01CF
1C00E7
380071
380072
70003C
700038
F0003C
F0003C
F0003C
F0003C
F0003C
F0003C
F0003C
700038
700038
380070
380070
1C00E0
0E01C0
078780
01FE00
ENDCHAR
STARTCHAR uni1EDD
ENCODING 7901
SWIDTH 500 0
DWIDTH 16 0
BBX 17 22 1 0
BITMAP
060000
070000
038000
00C000
006000
003000
000000
078300
18E780
307780
703B80
603880
E01D00
E01E00
E01C00
E01C00
E01C00
701800
703800
383000
1C6000
078000
ENDCHAR
STARTCHAR uni1EE0
ENCODING 7904
SWIDTH 722 0
DWIDTH 24 0
BBX 24 28 1 0
BITMAP
003820
007C60
00C7C0
008380
000000
01FE06
07878F
0E01CF
1C00E7
380071
380072
70003C
700038
F0003C
F0003C
F0003C
F0003C
F0003C
F0003C
F0003C
700038
700038
380070
380070
1C00E0
0E01C0
078780
01FE00
ENDCHAR
STARTCHAR uni1EE1
ENCODING 7905
SWIDTH 500 0
DWIDTH 16 0
BBX 17 20 1 0
BITMAP
038200
07C600
0C7C00
083800
000000
078300
18E780
307780
703B80
603880
E01D00
E01E00
E01C00
E01C00
E01C00
701800
703800
383000
1C6000
078000
ENDCHAR
STARTCHAR uni1EE2
ENCODING 7906
SWIDTH 722 0
DWIDTH 24 0
BBX 24 27 1 -4
BITMAP
01FE06
07878F
0E01CF
1C00E7
380071
380072
70003C
700038
F0003C
F0003C
F0003C
F0003C
F0003C
F0003C
F0003C
700038
700038
380070
380070
1C00E0
0E01C0
078780
01FE00
000000
003800
003800
003800
ENDCHAR
STARTCHAR uni1EE3
ENCODING 7907
SWIDTH 500 0
DWIDTH 16 0
BBX 17 19 1 -4
BITMAP
078300
18E780
307780
703B80
603880
E01D00
E01E00
E01C00
E01C00
E01C00
701800
703800
383000
1C6000
078000
000000
038000
038000
038000
ENDCHAR
STARTCHAR uni1EE4
ENCODING 7908
SWIDTH 722 0
DWIDTH 24 0
BBX 22 27 1 -4
BITMAP
FF81FC
3E0070
1C0020
1C0020
1C0020
1C0020
1C0020
1C0020
1C0020
1C0020
1C0020
1C0020
1C0020
1C0020
1C0020
1C0020
1C0020
1C0020
1E0060
0E0040
0F00C0
07C380
01FE00
000000
007000
007000
007000
ENDCHAR
STARTCHAR uni1EE5
ENCODING 7909
SWIDTH 500 0
DWIDTH 17 0
BBX 16 19 0 -4
BITMAP
F87C
381C
381C
381C
381C
381C
381C
381C
381C
381C
381C
383C
3C5C
1FDF
0F8C
0000
01C0
01C0
01C0
ENDCHAR
STARTCHAR uni1EE8
ENCODING 7912
SWIDTH 722 0
DWIDTH 24 0
BBX 24 30 1 0
BITMAP
000180
000380
000700
000C00
001800
003000
000000
FF81FE
3E007F
1C002F
1C0027
1C0021
1C0022
1C0024
1C0020
1C0020
1C0020
1C0020
1C0020
1C0020
1C0020
1C0020
1C0020
1C0020
1C0020
1E0060
0E0040
0F00C0
07C380
01FE00
ENDCHAR
STARTCHAR uni1EE9
ENCODING 7913
SWIDTH 500 0
DWIDTH 17 0
BBX 19 22 0 0
BITMAP
000600
000E00
001C00
003000
006000
00C000
000000
F87CC0
381DE0
381DE0
381CE0
381C20
381C40
381C80
381C00
381C00
381C00
381C00
383C00
3C5C00
1FDF00
0F8C00
ENDCHAR
STARTCHAR uni1EEA
ENCODING 7914
SWIDTH 722 0
DWIDTH 24 0
BBX 24 30 1 0
BITMAP
00C000
00E000
007000
001800
000C00
000600
000000
FF81FE
3E007F
1C002F
1C0027
1C0021
1C0022
1C0024
1C0020
1C0020
1C0020
1C0020
1C0020
1C0020
1C0020
1C0020
1C0020
1C0020
1C0020
1E0060
0E0040
0F00C0
07C380
01FE00
ENDCHAR
STARTCHAR uni1EEB
ENCODING 7915
SWIDTH 500 0
DWIDTH 17 0
BBX 19 22 0 0
BITMAP
060000
070000
038000
00C000
006000
003000
000000
F87CC0
381DE0
381DE0
381CE0
381C20
381C40
381C80
381C00
381C00
381C00
381C00
383C00
3C5C00
1FDF00
0F8C00
ENDCHAR
STARTCHAR uni1EEE
ENCODING 7918
SWIDTH 722 0
DWIDTH 24 0
BBX 24 28 1 0
BITMAP
007040
00F8C0
018F80
010700
000000
FF81FE
3E007F
1C002F
1C0027
1C0021
1C0022
1C0024
1C0020
1C0020
1C0020
1C0020
1C0020
1C0020
1C0020
1C0020
1C0020
1C0020
1C0020
1E0060
0E0040
0F00C0
07C380
01FE00
ENDCHAR
STARTCHAR uni1EEF
ENCODING 7919
SWIDTH 500 0
DWIDTH 17 0
BBX 19 20 0 0
BITMAP
01C100
03E300
063E00
041C00
000000
F87CC0
381DE0
381DE0
381CE0
381C20
381C40
381C80
381C00
381C00
381C00
381C00
383C00
3C5C00
1FDF00
0F8C00
ENDCHAR
STARTCHAR uni1EF0
ENCODING 7920
SWIDTH 722 0
DWIDTH 24 0
BBX 24 27 1 -4
BITMAP
FF81FE
3E007F
1C002F
1C0027
1C0021
1C0022
1C0024
1C0020
1C0020
1C0020
1C0020
1C0020
1C0020
1C0020
1C0020
1C0020
1C0020
1C0020
1E0060
0E0040
0F00C0
07C380
01FE00
000000
007000
007000
007000
ENDCHAR
STARTCHAR uni1EF1
ENCODING 7921
SWIDTH 500 0
DWIDTH 17 0
BBX 19 19 0 -4
BITMAP
F87CC0
381DE0
381DE0
381CE0
381C20
381C40
381C80
381C00
381C00
381C00
381C00
383C00
3C5C00
1FDF00
0F8C00
000000
01C000
01C000
01C000
ENDCHAR
STARTCHAR Ygrave
ENCODING 7922
SWIDTH 722 0
DWIDTH 24 0
BBX 22 30 1 0
BITMAP
060000
070000
038000
00C000
006000
003000
000000
FFC0FC
3F0038
1E0030
0F0060
0F80C0
078080
03C180
03C300
01E300
00F600
00FC00
007C00
003800
003800
003800
003800
003800
003800
003800
003800
003800
007C00
01FF00
ENDCHAR
STARTCHAR ygrave
ENCODING 7923
SWIDTH 500 0
DWIDTH 17 0
BBX 15 29 1 -7
BITMAP
3000
3800
1C00
0600
0300
0180
0000
FE1E
780C
380C
3C08
1C18
1E18
0E10
0E30
0720
0720
03E0
03C0
01C0
0180
0180
0100
0100
0300
0200
3E00
7C00
3800
ENDCHAR
STARTCHAR uni1EF4
ENCODING 7924
SWIDTH 722 0
DWIDTH 24 0
BBX 22 27 1 -4
BITMAP
FFC0FC
3F0038
1E0030
0F0060
0F80C0
078080
03C180
03C300
01E300
00F600
00FC00
007C00
003800
003800
003800
003800
003800
003800
003800
003800
003800
007C00
01FF00
000000
003800
003800
003800
ENDCHAR
STARTCHAR uni1EF5
ENCODING 7925
SWIDTH 500 0
DWIDTH 17 0
BBX 15 26 1 -11
BITMAP
FE1E
780C
380C
3C08
1C18
1E18
0E10
0E30
0720
0720
03E0
03C0
01C0
0180
0180
0100
0100
0300
0200
3E00
7C00
3800
0000
0E00
0E00
0E00
ENDCHAR
STARTCHAR uni1EF8
ENCODING 7928
SWIDTH 722 0
DWIDTH 24 0
BBX 22 28 1 0
BITMAP
01C100
03E300
063E00
041C00
000000
FFC0FC
3F0038
1E0030
0F0060
0F80C0
078080
03C180
03C300
01E300
00F600
00FC00
007C00
003800
003800
003800
003800
003800
003800
003800
003800
003800
007C00
01FF00
ENDCHAR
STARTCHAR uni1EF9
ENCODING 7929
SWIDTH 500 0
DWIDTH 17 0
BBX 15 27 1 -7
BITMAP
1C10
3E30
63E0
41C0
0000
FE1E
780C
380C
3C08
1C18
1E18
0E10
0E30
0720
0720
03E0
03C0
01C0
0180
0180
0100
0100
0300
0200
3E00
7C00
3800
ENDCHAR
STARTCHAR uni2000
ENCODING 8192
SWIDTH 500 0
DWIDTH 17 0
BBX 1 1 0 0
BITMAP
00
ENDCHAR
STARTCHAR uni2001
ENCODING 8193
SWIDTH 1000 0
DWIDTH 33 0
BBX 1 1 0 0
BITMAP
00
ENDCHAR
STARTCHAR uni2002
ENCODING 8194
SWIDTH 500 0
DWIDTH 17 0
BBX 1 1 0 0
BITMAP
00
ENDCHAR
STARTCHAR uni2003
ENCODING 8195
SWIDTH 1000 0
DWIDTH 33 0
BBX 1 1 0 0
BITMAP
00
ENDCHAR
STARTCHAR uni2004
ENCODING 8196
SWIDTH 333 0
DWIDTH 11 0
BBX 1 1 0 0
BITMAP
00
ENDCHAR
STARTCHAR uni2005
ENCODING 8197
SWIDTH 250 0
DWIDTH 8 0
BBX 1 1 0 0
BITMAP
00
ENDCHAR
STARTCHAR uni2006
ENCODING 8198
SWIDTH 167 0
DWIDTH 6 0
BBX 1 1 0 0
BITMAP
00
ENDCHAR
STARTCHAR uni2007
ENCODING 8199
SWIDTH 500 0
DWIDTH 16 0
BBX 1 1 0 0
BITMAP
00
ENDCHAR
STARTCHAR uni2008
ENCODING 8200
SWIDTH 250 0
DWIDTH 8 0
BBX 1 1 0 0
BITMAP
00
ENDCHAR
STARTCHAR uni2009
ENCODING 8201
SWIDTH 200 0
DWIDTH 7 0
BBX 1 1 0 0
BITMAP
00
ENDCHAR
STARTCHAR uni200A
ENCODING 8202
SWIDTH 100 0
DWIDTH 3 0
BBX 1 1 0 0
BITMAP
00
ENDCHAR
STARTCHAR uni200B
ENCODING 8203
SWIDTH 0 0
DWIDTH 0 0
BBX 1 1 0 0
BITMAP
00
ENDCHAR
STARTCHAR uni2010
ENCODING 8208
SWIDTH 333 0
DWIDTH 11 0
BBX 8 2 1 7
BITMAP
FF
FF
ENDCHAR
STARTCHAR uni2011
ENCODING 8209
SWIDTH 333 0
DWIDTH 11 0
BBX 8 2 1 7
BITMAP
FF
FF
ENDCHAR
STARTCHAR figuredash
ENCODING 8210
SWIDTH 500 0
DWIDTH 16 0
BBX 16 2 0 7
BITMAP
FFFF
FFFF
ENDCHAR
STARTCHAR endash
ENCODING 8211
SWIDTH 500 0
DWIDTH 16 0
BBX 16 2 0 7
BITMAP
FFFF
FFFF
ENDCHAR
STARTCHAR emdash
ENCODING 8212
SWIDTH 1000 0
DWIDTH 32 0
BBX 32 2 0 7
BITMAP
FFFFFFFF
FFFFFFFF
ENDCHAR
STARTCHAR afii00208
ENCODING 8213
SWIDTH 1000 0
DWIDTH 32 0
BBX 32 2 0 7
BITMAP
FFFFFFFF
FFFFFFFF
ENDCHAR
STARTCHAR quoteleft
ENCODING 8216
SWIDTH 333 0
DWIDTH 11 0
BBX 4 7 3 16
BITMAP
20
40
80
E0
F0
F0
60
ENDCHAR
STARTCHAR quoteright
ENCODING 8217
SWIDTH 333 0
DWIDTH 11 0
BBX 4 7 3 16
BITMAP
60
F0
F0
70
10
20
40
ENDCHAR
STARTCHAR quotesinglbase
ENCODING 8218
SWIDTH 333 0
DWIDTH 11 0
BBX 4 7 3 -3
BITMAP
60
F0
F0
70
10
20
40
ENDCHAR
STARTCHAR quotereversed
ENCODING 8219
SWIDTH 333 0
DWIDTH 11 0
BBX 4 7 3 16
BITMAP
60
F0
F0
E0
80
40
20
ENDCHAR
STARTCHAR quotedblleft
ENCODING 8220
SWIDTH 444 0
DWIDTH 15 0
BBX 11 7 1 16
BITMAP
2040
4080
8100
E1C0
F1E0
F1E0
60C0
ENDCHAR
STARTCHAR quotedblright
ENCODING 8221
SWIDTH 444 0
DWIDTH 15 0
BBX 11 7 2 16
BITMAP
60C0
F1E0
F1E0
70E0
1020
2040
4080
ENDCHAR
STARTCHAR quotedblbase
ENCODING 8222
SWIDTH 444 0
DWIDTH 15 0
BBX 11 7 2 -3
BITMAP
60C0
F1E0
F1E0
70E0
1020
2040
4080
ENDCHAR
STARTCHAR uni201F
ENCODING 8223
SWIDTH 444 0
DWIDTH 15 0
BBX 11 7 2 16
BITMAP
60C0
F1E0
F1E0
E1C0
8100
4080
2040
ENDCHAR
STARTCHAR dagger
ENCODING 8224
SWIDTH 500 0
DWIDTH 16 0
BBX 13 28 2 -5
BITMAP
0700
0700
0700
0700
0200
0200
0200
F278
FFF8
F278
0200
0200
0200
0700
0700
0700
0700
0700
0700
0200
0200
0200
0200
0200
0200
0200
0200
0200
ENDCHAR
STARTCHAR daggerdbl
ENCODING 8225
SWIDTH 500 0
DWIDTH 16 0
BBX 13 28 2 -5
BITMAP
0700
0700
0700
0700
0200
0200
0200
F278
FFF8
F278
0200
0200
0200
0700
0700
0700
0200
0200
0200
F278
FFF8
F278
0200
0200
0300
0700
0700
0700
ENDCHAR
STARTCHAR bullet
ENCODING 8226
SWIDTH 350 0
DWIDTH 12 0
BBX 8 8 2 6
BITMAP
3C
7E
FF
FF
FF
FF
7E
3C
ENDCHAR
STARTCHAR ellipsis
ENCODING 8230
SWIDTH 1000 0
DWIDTH 33 0
BBX 26 4 3 0
BITMAP
600C0180
F01E03C0
F01E03C0
600C0180
ENDCHAR
STARTCHAR perthousand
ENCODING 8240
SWIDTH 1000 0
DWIDTH 33 0
BBX 34 23 -1 0
BITMAP
0F00400000
1D83C00000
38FE800000
7041000000
7043000000
E042000000
E046000000
E0CC000000
C088000000
C198000000
C110F00F00
6631D81D80
3C238C38C0
0067047040
0047047040
00CE04E040
018E04E040
010E0CE0C0
030C08C080
020C18C180
060C10C100
0406606600
0C03C03C00
ENDCHAR
STARTCHAR minute
ENCODING 8242
SWIDTH 247 0
DWIDTH 8 0
BBX 6 9 1 16
BITMAP
18
3C
3C
78
70
60
E0
C0
80
ENDCHAR
STARTCHAR second
ENCODING 8243
SWIDTH 411 0
DWIDTH 13 0
BBX 12 9 1 15
BITMAP
1C70
1C70
3CF0
38E0
71C0
71C0
E380
C300
8200
ENDCHAR
STARTCHAR guilsinglleft
ENCODING 8249
SWIDTH 333 0
DWIDTH 11 0
BBX 7 13 1 1
BITMAP
02
06
0C
18
38
70
E0
70
38
18
0C
06
02
ENDCHAR
STARTCHAR guilsinglright
ENCODING 8250
SWIDTH 333 0
DWIDTH 11 0
BBX 7 13 2 1
BITMAP
80
C0
60
30
38
1C
0E
1C
38
30
60
C0
80
ENDCHAR
STARTCHAR fraction
ENCODING 8260
SWIDTH 167 0
DWIDTH 6 0
BBX 14 23 -4 0
BITMAP
0004
000C
0018
0018
0030
0030
0060
00C0
00C0
0180
0180
0300
0600
0600
0C00
0C00
1800
3000
3000
6000
6000
C000
8000
ENDCHAR
STARTCHAR oneinferior
ENCODING 8321
SWIDTH 300 0
DWIDTH 10 0
BBX 6 14 2 -7
BITMAP
30
F0
30
30
30
30
30
30
30
30
30
30
30
FC
ENDCHAR
STARTCHAR twoinferior
ENCODING 8322
SWIDTH 300 0
DWIDTH 10 0
BBX 9 14 0 -7
BITMAP
3C00
4E00
8700
0300
0300
0700
0600
0C00
1800
1000
2000
4080
FF00
FE00
ENDCHAR
STARTCHAR threeinferior
ENCODING 8323
SWIDTH 300 0
DWIDTH 10 0
BBX 9 14 0 -7
BITMAP
3E00
4700
8300
0300
0300
0600
3C00
0700
0380
0180
0180
C180
E300
7E00
ENDCHAR
STARTCHAR uni20A5
ENCODING 8357
SWIDTH 778 0
DWIDTH 26 0
BBX 25 26 0 -5
BITMAP
0000C000
0000C000
00018000
00018000
00038000
00030000
18F37800
FBFBFC00
3E3F1E00
3C1E0E00
381E0E00
381E0E00
381C0E00
381C0E00
381C0E00
381C0E00
381C0E00
381C0E00
383C0E00
383C0E00
FE7F3F80
00700000
00600000
00600000
00C00000
00C00000
ENDCHAR
STARTCHAR uni20A6
ENCODING 8358
SWIDTH 722 0
DWIDTH 24 0
BBX 22 23 1 0
BITMAP
F801FC
3C0070
1E0020
1F0020
1F0020
178020
13C020
1FFFE0
1FFFE0
10F020
10F820
107820
103C20
101E20
1FFFE0
1FFFE0
1007A0
1003E0
1001E0
1001E0
1000E0
380060
FE0020
ENDCHAR
STARTCHAR uni20A9
ENCODING 8361
SWIDTH 944 0
DWIDTH 32 0
BBX 31 23 1 0
BITMAP
FF3FE0FE
7C0F8078
3C070030
1C078030
1E078060
1E038060
0E03C060
0FFFFFC0
07FFFFC0
0787E0C0
0786E180
0384F180
03CCF180
03CC7300
01FFFF00
01FFFF00
01F83E00
00F03E00
00F01C00
00E01C00
00601C00
00600800
00400800
ENDCHAR
STARTCHAR Euro
ENCODING 8364
SWIDTH 667 0
DWIDTH 22 0
BBX 24 23 -3 0
BITMAP
001FF1
00783F
00E00F
01C007
038003
038003
070001
FFFF01
FFFF00
0F0000
0F0000
0F0000
0F0000
0F0000
FFFF00
FFFF00
070000
038000
038001
01C003
00E006
00783C
001FF0
ENDCHAR
STARTCHAR uni20AD
ENCODING 8365
SWIDTH 722 0
DWIDTH 24 0
BBX 23 23 1 0
BITMAP
FFC7F8
3E01E0
1C0180
1C0300
1C0600
1C0C00
1C1800
1C3000
1C6000
1CC000
FFFFFE
FFFFFE
1FF000
1E7800
1C3C00
1C1E00
1C0F00
1C0780
1C03C0
1C01E0
1C00F0
3E00F8
FFC7FE
ENDCHAR
STARTCHAR uni2103
ENCODING 8451
SWIDTH 1047 0
DWIDTH 34 0
BBX 32 23 1 0
BITMAP
1E001FF1
3F00783F
6180E00F
C0C1C007
C0C38003
C0C38003
C0C70001
61870001
3F0F0000
1E0F0000
000F0000
000F0000
000F0000
000F0000
000F0000
00070000
00070000
00038000
00038001
0001C003
0000E006
0000783C
00001FF0
ENDCHAR
STARTCHAR uni2109
ENCODING 8457
SWIDTH 936 0
DWIDTH 30 0
BBX 29 23 1 0
BITMAP
1E0FFFF8
3F03E078
6181C018
C0C1C008
C0C1C008
C0C1C000
C0C1C000
6181C000
3F01C020
1E01C020
0001C060
0001FFE0
0001C060
0001C020
0001C020
0001C000
0001C000
0001C000
0001C000
0001C000
0001C000
0003E000
000FF800
ENDCHAR
STARTCHAR Ifraktur
ENCODING 8465
SWIDTH 686 0
DWIDTH 22 0
BBX 18 27 1 -2
BITMAP
07F000
1FFE00
3FFF80
383F80
600700
600700
400600
400C00
400C00
601C00
301C00
1C0E00
0E0E00
000F00
000700
000780
000380
0003C0
0001C0
0001C0
0001C0
3C0180
FF0180
9FC300
07FE00
03F800
00F000
ENDCHAR
STARTCHAR weierstrass
ENCODING 8472
SWIDTH 987 0
DWIDTH 32 0
BBX 23 26 5 -7
BITMAP
00C000
01C000
030070
0603FC
060E1E
0C181E
1C300E
18600E
38C01E
39801E
3B001E
3E001C
3E303C
3C7838
1E7078
3E40F0
2F41E0
6F63C0
473F00
C70000
870000
830000
830000
C70000
660000
3C0000
ENDCHAR
STARTCHAR Rfraktur
ENCODING 8476
SWIDTH 795 0
DWIDTH 26 0
BBX 23 24 1 0
BITMAP
0F80C0
3FE1F0
61F7F8
C0FC7C
80783E
80781C
803838
C03870
E038C0
7839C0
3E3BC0
0E39E0
0638E0
0638E0
0038F0
0038F0
003870
007070
007070
006078
1EC07A
3F803E
2F803C
060010
ENDCHAR
STARTCHAR trademark
ENCODING 8482
SWIDTH 980 0
DWIDTH 33 0
BBX 31 15 1 8
BITMAP
FFF3E03E
C630E038
8610F078
8610B078
0600B058
0600B8D8
06009898
06009898
06009D98
06008D18
06008F18
06008F18
06008618
06008618
1F83E67E
ENDCHAR
STARTCHAR Omega
ENCODING 8486
SWIDTH 768 0
DWIDTH 25 0
BBX 23 23 1 0
BITMAP
00FE00
038380
0E00E0
1E00F0
1C0070
3C0078
380038
78003C
78003C
78003C
78003C
78003C
78003C
380038
3C0078
1C0070
0E00E0
0701C0
818302
C08206
FFC7FE
FFC7FE
FFC7FE
ENDCHAR
STARTCHAR uni2127
ENCODING 8487
SWIDTH 768 0
DWIDTH 25 0
BBX 23 23 1 0
BITMAP
FFC7FE
FFC7FE
FFC7FE
C08206
818302
0701C0
0E00E0
1C0070
3C0078
380038
78003C
78003C
78003C
78003C
78003C
78003C
380038
3C0078
1C0070
1E00F0
0E00E0
038380
00FE00
ENDCHAR
STARTCHAR uni212A
ENCODING 8490
SWIDTH 722 0
DWIDTH 24 0
BBX 23 23 1 0
BITMAP
FFC7F8
3E01E0
1C0180
1C0300
1C0600
1C0C00
1C1800
1C3000
1C6000
1CC000
1FC000
1FE000
1FF000
1E7800
1C3C00
1C1E00
1C0F00
1C0780
1C03C0
1C01E0
1C00F0
3E00F8
FFC7FE
ENDCHAR
STARTCHAR uni212B
ENCODING 8491
SWIDTH 722 0
DWIDTH 24 0
BBX 22 30 1 0
BITMAP
007000
00F800
018C00
010400
018C00
00F800
007000
000000
003000
003000
007800
007800
00FC00
00DC00
009C00
018E00
010E00
030F00
030700
020700
060780
060380
0FFFC0
0C03C0
1801C0
1801E0
3001E0
3000F0
7000F0
FC03FC
ENDCHAR
STARTCHAR uni2132
ENCODING 8498
SWIDTH 556 0
DWIDTH 18 0
BBX 17 23 1 0
BITMAP
00FF80
003E00
001C00
001C00
001C00
001C00
001C00
001C00
201C00
201C00
301C00
3FFC00
301C00
201C00
201C00
001C00
001C00
001C00
801C00
801C00
C01C00
F03E00
FFFF80
ENDCHAR
STARTCHAR aleph
ENCODING 8501
SWIDTH 823 0
DWIDTH 27 0
BBX 16 22 5 0
BITMAP
0020
6060
F07E
F07F
F87F
7C3F
3C0F
3E0C
1F18
1F98
37F0
73F0
61F0
E1F0
F0F8
F07C
783E
7C1E
7C1F
3C0F
7C07
FC06
ENDCHAR
STARTCHAR arrowleft
ENCODING 8592
SWIDTH 987 0
DWIDTH 32 0
BBX 29 16 1 0
BITMAP
01800000
03000000
06000000
0E000000
1C000000
38000000
70000000
FFFFFFF8
FFFFFFF8
70000000
38000000
1C000000
0E000000
06000000
03000000
01800000
ENDCHAR
STARTCHAR arrowup
ENCODING 8593
SWIDTH 603 0
DWIDTH 20 0
BBX 16 27 2 0
BITMAP
0180
03C0
07E0
0FF0
1DB8
399C
718E
E187
C183
0180
0180
0180
0180
0180
0180
0180
0180
0180
0180
0180
0180
0180
0180
0180
0180
0180
0180
ENDCHAR
STARTCHAR arrowright
ENCODING 8594
SWIDTH 987 0
DWIDTH 32 0
BBX 29 16 2 0
BITMAP
00000C00
00000E00
00000700
00000380
000001C0
000000E0
00000070
FFFFFFF8
FFFFFFF8
00000070
000000E0
000001C0
00000380
00000700
00000E00
00000C00
ENDCHAR
STARTCHAR arrowdown
ENCODING 8595
SWIDTH 603 0
DWIDTH 20 0
BBX 16 27 2 0
BITMAP
0180
0180
0180
0180
0180
0180
0180
0180
0180
0180
0180
0180
0180
0180
0180
0180
0180
0180
C183
E187
718E
399C
1DB8
0FF0
07E0
03C0
0180
ENDCHAR
STARTCHAR arrowboth
ENCODING 8596
SWIDTH 1042 0
DWIDTH 34 0
BBX 32 16 1 0
BITMAP
01800180
030000C0
070000E0
0E000070
1C000038
3800001C
7000000E
FFFFFFFF
FFFFFFFF
7000000E
3800001C
1C000038
0E000070
070000E0
030000C0
01800180
ENDCHAR
STARTCHAR uni219A
ENCODING 8602
SWIDTH 987 0
DWIDTH 32 0
BBX 29 26 1 -5
BITMAP
00003000
00003000
00006000
00006000
0000E000
0180C000
0300C000
0600C000
0E018000
1C018000
38018000
70038000
FFFFFFF8
FFFFFFF8
70070000
38060000
1C060000
0E060000
060C0000
030C0000
018C0000
001C0000
00180000
00180000
00300000
00300000
ENDCHAR
STARTCHAR uni219B
ENCODING 8603
SWIDTH 987 0
DWIDTH 32 0
BBX 29 26 2 -5
BITMAP
00003000
00003000
00006000
00006000
0000E000
0000CC00
0000CE00
0000C700
00018380
000181C0
000180E0
00038070
FFFFFFF8
FFFFFFF8
00070070
000600E0
000601C0
00060380
000C0700
000C0E00
000C0C00
001C0000
00180000
00180000
00300000
00300000
ENDCHAR
STARTCHAR uni21AE
ENCODING 8622
SWIDTH 1042 0
DWIDTH 34 0
BBX 32 26 1 -5
BITMAP
00001800
00001800
00003000
00003000
00007000
01806180
030060C0
070060E0
0E00C070
1C00C038
3800C01C
7001C00E
FFFFFFFF
FFFFFFFF
7003800E
3803001C
1C030038
0E030070
070600E0
030600C0
01860180
000E0000
000C0000
000C0000
00180000
00180000
ENDCHAR
STARTCHAR carriagereturn
ENCODING 8629
SWIDTH 658 0
DWIDTH 21 0
BBX 18 21 1 0
BITMAP
0000C0
0000C0
0000C0
0000C0
0000C0
0000C0
0000C0
0000C0
0000C0
0000C0
0000C0
0000C0
0000C0
0000C0
0000C0
1000C0
7000C0
FFFFC0
FFFFC0
700000
100000
ENDCHAR
STARTCHAR uni21CD
ENCODING 8653
SWIDTH 987 0
DWIDTH 32 0
BBX 29 26 1 -4
BITMAP
00003000
00003000
00006000
00006000
0000E000
0080C000
0180C000
0300C000
06018000
0FFFFFF8
1FFFFFF8
38038000
70030000
E0030000
70070000
38060000
1FFFFFF8
0FFFFFF8
060C0000
030C0000
018C0000
009C0000
00180000
00180000
00300000
00300000
ENDCHAR
STARTCHAR uni21CE
ENCODING 8654
SWIDTH 1042 0
DWIDTH 34 0
BBX 32 26 1 -4
BITMAP
00001800
00001800
00003000
00003000
00807100
01806180
030060C0
06006060
0FFFFFF0
1FFFFFF8
3800C01C
7001C00E
E0018007
E0018007
7003800E
3803001C
1FFFFFF8
0FFFFFF0
06060060
030600C0
01860180
008E0100
000C0000
000C0000
00180000
00180000
ENDCHAR
STARTCHAR uni21CF
ENCODING 8655
SWIDTH 987 0
DWIDTH 32 0
BBX 29 26 2 -4
BITMAP
00003000
00003000
00006000
00006000
0000E000
0000C800
0000CC00
0000C600
00018300
FFFFFF80
FFFFFFC0
000380E0
00030070
00030038
00070070
000600E0
FFFFFFC0
FFFFFF80
000C0300
000C0600
000C0C00
001C0800
00180000
00180000
00300000
00300000
ENDCHAR
STARTCHAR arrowdblleft
ENCODING 8656
SWIDTH 987 0
DWIDTH 32 0
BBX 29 17 1 0
BITMAP
00800000
01800000
03000000
06000000
0FFFFFF8
1FFFFFF8
38000000
70000000
E0000000
70000000
38000000
1FFFFFF8
0FFFFFF8
06000000
03000000
01800000
00800000
ENDCHAR
STARTCHAR arrowdblup
ENCODING 8657
SWIDTH 603 0
DWIDTH 20 0
BBX 17 27 1 0
BITMAP
008000
01C000
03E000
077000
0E3800
1C1C00
3C1E00
7C1F00
EC1B80
0C1800
0C1800
0C1800
0C1800
0C1800
0C1800
0C1800
0C1800
0C1800
0C1800
0C1800
0C1800
0C1800
0C1800
0C1800
0C1800
0C1800
0C1800
ENDCHAR
STARTCHAR arrowdblright
ENCODING 8658
SWIDTH 987 0
DWIDTH 32 0
BBX 29 17 2 0
BITMAP
00000800
00000C00
00000600
00000300
FFFFFF80
FFFFFFC0
000000E0
00000070
00000038
00000070
000000E0
FFFFFFC0
FFFFFF80
00000300
00000600
00000C00
00000800
ENDCHAR
STARTCHAR arrowdbldown
ENCODING 8659
SWIDTH 603 0
DWIDTH 20 0
BBX 17 27 1 0
BITMAP
0C1800
0C1800
0C1800
0C1800
0C1800
0C1800
0C1800
0C1800
0C1800
0C1800
0C1800
0C1800
0C1800
0C1800
0C1800
0C1800
0C1800
0C1800
EC1B80
7C1F00
3C1E00
1C1C00
0E3800
077000
03E000
01C000
008000
ENDCHAR
STARTCHAR arrowdblboth
ENCODING 8660
SWIDTH 1042 0
DWIDTH 34 0
BBX 32 18 1 0
BITMAP
00800100
01800180
030000C0
06000060
0FFFFFF0
1FFFFFF8
3800001C
7000000E
E0000007
E0000007
7000000E
3800001C
1FFFFFF8
0FFFFFF0
06000060
030000C0
01800180
00800100
ENDCHAR
STARTCHAR universal
ENCODING 8704
SWIDTH 713 0
DWIDTH 23 0
BBX 20 24 1 0
BITMAP
C00030
C00030
C00060
600060
600060
3000C0
3000C0
3FFFC0
1FFF80
180180
0C0300
0C0300
0C0300
060600
060600
030C00
030C00
030C00
019800
019800
00F000
00F000
00F000
006000
ENDCHAR
STARTCHAR partialdiff
ENCODING 8706
SWIDTH 494 0
DWIDTH 16 0
BBX 14 27 1 0
BITMAP
1E00
3F80
20E0
0070
0030
0018
0018
0018
001C
001C
001C
0F1C
1FFC
387C
783C
703C
F038
E038
E038
E038
E070
E070
6060
70E0
39C0
1F80
0F00
ENDCHAR
STARTCHAR existential
ENCODING 8707
SWIDTH 549 0
DWIDTH 18 0
BBX 15 24 0 0
BITMAP
FFFE
FFFE
0006
0006
0006
0006
0006
0006
0006
0006
0006
3FFE
3FFE
0006
0006
0006
0006
0006
0006
0006
0006
0006
FFFE
FFFE
ENDCHAR
STARTCHAR uni2204
ENCODING 8708
SWIDTH 549 0
DWIDTH 18 0
BBX 15 26 0 -1
BITMAP
0018
FFFE
FFFE
0036
0076
0066
0066
0066
00C6
00C6
00C6
01C6
3FFE
3FFE
0386
0306
0306
0306
0606
0606
0606
0E06
0C06
FFFE
FFFE
1800
ENDCHAR
STARTCHAR emptyset
ENCODING 8709
SWIDTH 823 0
DWIDTH 27 0
BBX 24 24 1 0
BITMAP
007E02
03FFC6
0781EE
0E007C
180038
30007C
7000EE
6001C6
600386
C00703
C00E03
C01C03
C03803
C07003
C0E003
61C006
638006
77000E
3E000C
1C0018
3E0070
7781E0
E3FFC0
C07E00
ENDCHAR
STARTCHAR Delta
ENCODING 8710
SWIDTH 612 0
DWIDTH 20 0
BBX 19 22 0 0
BITMAP
006000
006000
00F000
00F000
00F000
01F800
013800
033C00
023C00
061C00
041E00
0C0E00
0C0F00
080F00
180700
100780
300380
2003C0
6003C0
4001C0
FFFFE0
FFFFE0
ENDCHAR
STARTCHAR gradient
ENCODING 8711
SWIDTH 713 0
DWIDTH 23 0
BBX 20 24 1 0
BITMAP
FFFFF0
7FFFF0
780030
780020
3C0060
3C0040
1C00C0
1E00C0
1E0180
0F0180
0F0100
070300
078200
078600
03C400
03CC00
03CC00
01F800
01F800
00F000
00F000
00E000
006000
004000
ENDCHAR
STARTCHAR element
ENCODING 8712
SWIDTH 713 0
DWIDTH 23 0
BBX 15 16 1 0
BITMAP
07FE
1FFE
3800
7000
6000
C000
C000
FFFE
FFFE
C000
C000
6000
7000
3800
1FFE
07FE
ENDCHAR
STARTCHAR notelement
ENCODING 8713
SWIDTH 713 0
DWIDTH 23 0
BBX 15 20 1 -2
BITMAP
0018
0018
07FE
1FFE
3860
7060
60C0
40C0
C180
FFFE
FFFE
C300
4600
6E00
7C00
3C00
1FFE
37FE
3000
2000
ENDCHAR
STARTCHAR uni220A
ENCODING 8714
SWIDTH 439 0
DWIDTH 14 0
BBX 12 17 1 0
BITMAP
07E0
1FE0
3E00
7800
7000
F000
E000
E000
FFC0
FFC0
E000
E000
7000
7800
3C00
0FF0
03E0
ENDCHAR
STARTCHAR suchthat
ENCODING 8715
SWIDTH 713 0
DWIDTH 23 0
BBX 15 16 1 0
BITMAP
FFC0
FFF0
0038
001C
000C
0006
0006
FFFE
FFFE
0006
0006
000C
001C
0038
FFF0
FFC0
ENDCHAR
STARTCHAR uni220C
ENCODING 8716
SWIDTH 713 0
DWIDTH 23 0
BBX 15 26 1 -5
BITMAP
0018
0018
0030
0030
0070
FFE0
FFF0
0078
00DC
00CC
00C6
01C6
FFFE
FFFE
0386
0306
030C
031C
0638
FFF0
FFC0
0E00
0C00
0C00
1800
1800
ENDCHAR
STARTCHAR uni220D
ENCODING 8717
SWIDTH 439 0
DWIDTH 14 0
BBX 12 17 1 0
BITMAP
7E00
7F80
07C0
01E0
00E0
00F0
0070
0070
3FF0
3FF0
0070
0070
00E0
01E0
03C0
FF00
7C00
ENDCHAR
STARTCHAR product
ENCODING 8719
SWIDTH 823 0
DWIDTH 27 0
BBX 25 27 1 0
BITMAP
FFFFFF80
3FFFFE00
1E003C00
1E003C00
1E003C00
1E003C00
1E003C00
1E003C00
1E003C00
1E003C00
1E003C00
1E003C00
1E003C00
1E003C00
1E003C00
1E003C00
1E003C00
1E003C00
1E003C00
1E003C00
1E003C00
1E003C00
1E003C00
1E003C00
1E003C00
3F007E00
FFC1FF80
ENDCHAR
STARTCHAR summation
ENCODING 8721
SWIDTH 713 0
DWIDTH 23 0
BBX 21 28 1 -1
BITMAP
FFFFE0
7803E0
7C0060
3C0060
1E0020
0F0000
0F8000
078000
03C000
03E000
01F000
00F000
007800
007800
003800
003000
006000
00C000
018000
038000
030000
060008
0C0018
180018
300030
7FFFF0
7FFFF0
FFFFF0
ENDCHAR
STARTCHAR minus
ENCODING 8722
SWIDTH 564 0
DWIDTH 18 0
BBX 16 2 1 8
BITMAP
FFFF
FFFF
ENDCHAR
STARTCHAR fraction
ENCODING 8725
SWIDTH 167 0
DWIDTH 6 0
BBX 14 23 -4 0
BITMAP
0004
000C
0018
0018
0030
0030
0060
00C0
00C0
0180
0180
0300
0600
0600
0C00
0C00
1800
3000
3000
6000
6000
C000
8000
ENDCHAR
STARTCHAR asteriskmath
ENCODING 8727
SWIDTH 500 0
DWIDTH 16 0
BBX 11 14 2 4
BITMAP
0400
0E00
0E00
C460
E4E0
7FC0
1F00
1F00
7FC0
E4E0
C460
0E00
0E00
0400
ENDCHAR
STARTCHAR periodcentered
ENCODING 8729
SWIDTH 250 0
DWIDTH 8 0
BBX 4 4 2 7
BITMAP
60
F0
F0
60
ENDCHAR
STARTCHAR radical
ENCODING 8730
SWIDTH 549 0
DWIDTH 18 0
BBX 17 27 0 0
BITMAP
000080
000080
000080
000080
000180
000100
000100
000300
000200
080200
380200
EC0600
0C0400
060400
060400
030400
030C00
018C00
018800
00C800
00C800
006800
007800
003800
003000
001000
001000
ENDCHAR
STARTCHAR proportional
ENCODING 8733
SWIDTH 713 0
DWIDTH 23 0
BBX 19 10 1 4
BITMAP
1C03C0
3F0FE0
639C00
C1F800
C0F000
C0F000
C1F800
639C00
7F0FE0
1C03C0
ENDCHAR
STARTCHAR infinity
ENCODING 8734
SWIDTH 713 0
DWIDTH 23 0
BBX 21 10 1 4
BITMAP
1C03C0
7F0FE0
639E30
C1F818
C0F018
C0F018
C0F818
639C30
7F0FF0
1C03C0
ENDCHAR
STARTCHAR angle
ENCODING 8736
SWIDTH 768 0
DWIDTH 25 0
BBX 22 22 1 0
BITMAP
00000C
00001C
000038
000070
0000E0
0001C0
000380
000700
000E00
001C00
003800
007000
006000
00C000
018000
030000
070000
0E0000
1C0000
380000
7FFFF8
FFFFF8
ENDCHAR
STARTCHAR logicaland
ENCODING 8743
SWIDTH 603 0
DWIDTH 20 0
BBX 16 15 2 0
BITMAP
0180
0180
03C0
03C0
0660
0E70
0C30
1C38
1818
300C
300C
6006
E007
C003
8001
ENDCHAR
STARTCHAR logicalor
ENCODING 8744
SWIDTH 603 0
DWIDTH 20 0
BBX 16 15 2 0
BITMAP
8001
C003
E007
6006
300C
300C
1818
1C38
0C30
0660
0660
03C0
03C0
0180
0180
ENDCHAR
STARTCHAR intersection
ENCODING 8745
SWIDTH 768 0
DWIDTH 25 0
BBX 22 17 1 0
BITMAP
00FC00
03FF00
0F03C0
1C00E0
380070
300030
600018
600018
C0000C
C0000C
C0000C
C0000C
C0000C
C0000C
C0000C
C0000C
C0000C
ENDCHAR
STARTCHAR union
ENCODING 8746
SWIDTH 768 0
DWIDTH 25 0
BBX 22 17 1 0
BITMAP
C0000C
C0000C
C0000C
C0000C
C0000C
C0000C
C0000C
C0000C
C0000C
600018
600018
300030
380070
1C00E0
0F03C0
03FF00
00FC00
ENDCHAR
STARTCHAR integral
ENCODING 8747
SWIDTH 274 0
DWIDTH 9 0
BBX 9 33 0 -6
BITMAP
0300
0780
0780
0C00
0C00
0C00
0C00
0C00
0C00
0C00
0C00
0C00
0C00
0C00
0C00
0C00
0C00
0C00
0C00
0C00
0C00
0C00
0C00
0C00
0C00
0C00
0C00
0C00
0C00
0C00
F800
F800
7000
ENDCHAR
STARTCHAR therefore
ENCODING 8756
SWIDTH 863 0
DWIDTH 28 0
BBX 17 16 5 0
BITMAP
01E000
01E000
01E000
01E000
000000
000000
000000
000000
000000
000000
000000
000000
F00780
F00780
F00780
F00780
ENDCHAR
STARTCHAR uni2235
ENCODING 8757
SWIDTH 863 0
DWIDTH 28 0
BBX 17 16 5 0
BITMAP
F00780
F00780
F00780
F00780
000000
000000
000000
000000
000000
000000
000000
000000
01E000
01E000
01E000
01E000
ENDCHAR
STARTCHAR uni2236
ENCODING 8758
SWIDTH 278 0
DWIDTH 9 0
BBX 4 15 2 0
BITMAP
60
F0
F0
60
00
00
00
00
00
00
00
60
F0
F0
60
ENDCHAR
STARTCHAR similar
ENCODING 8764
SWIDTH 549 0
DWIDTH 18 0
BBX 15 4 1 7
BITMAP
1800
7F86
E3FE
C038
ENDCHAR
STARTCHAR uni2241
ENCODING 8769
SWIDTH 549 0
DWIDTH 18 0
BBX 15 26 1 -4
BITMAP
0018
0018
0030
0030
0070
0060
0060
0060
00C0
00C0
00C0
19C0
7F86
E3FE
C3B8
0300
0300
0300
0600
0600
0600
0E00
0C00
0C00
1800
1800
ENDCHAR
STARTCHAR congruent
ENCODING 8773
SWIDTH 549 0
DWIDTH 18 0
BBX 17 16 0 0
BITMAP
1E0100
3FC380
60FF00
401C00
000000
000000
000000
000000
FFFF80
FFFF80
000000
000000
000000
000000
FFFF80
FFFF80
ENDCHAR
STARTCHAR uni2247
ENCODING 8775
SWIDTH 549 0
DWIDTH 18 0
BBX 17 26 0 -5
BITMAP
000C00
000C00
001800
001800
003800
1E3100
3FF380
60FF00
407C00
006000
006000
00E000
00C000
FFFF80
FFFF80
018000
018000
018000
030000
FFFF80
FFFF80
070000
060000
060000
0C0000
0C0000
ENDCHAR
STARTCHAR approxequal
ENCODING 8776
SWIDTH 549 0
DWIDTH 18 0
BBX 16 9 1 4
BITMAP
1C00
7F87
E1FE
4038
0000
1C00
7F87
E1FE
C038
ENDCHAR
STARTCHAR uni2249
ENCODING 8777
SWIDTH 549 0
DWIDTH 18 0
BBX 16 26 1 -4
BITMAP
0018
0018
0030
0030
0070
0060
0060
0060
00C0
1CC0
7FC7
E1FE
41B8
0180
1F80
7F87
E3FE
C338
0600
0600
0600
0E00
0C00
0C00
1800
1800
ENDCHAR
STARTCHAR uni2259
ENCODING 8793
SWIDTH 564 0
DWIDTH 19 0
BBX 16 16 1 4
BITMAP
0180
03C0
07E0
0E70
1818
1008
0000
FFFF
FFFF
0000
0000
0000
0000
0000
FFFF
FFFF
ENDCHAR
STARTCHAR uni225A
ENCODING 8794
SWIDTH 564 0
DWIDTH 19 0
BBX 16 16 1 4
BITMAP
1008
1818
0E70
07E0
03C0
0180
0000
FFFF
FFFF
0000
0000
0000
0000
0000
FFFF
FFFF
ENDCHAR
STARTCHAR notequal
ENCODING 8800
SWIDTH 549 0
DWIDTH 18 0
BBX 17 19 1 -1
BITMAP
000C00
001800
001800
003000
003000
FFFF80
FFFF80
00C000
00C000
018000
018000
030000
FFFF80
FFFF80
060000
0C0000
0C0000
180000
180000
ENDCHAR
STARTCHAR equivalence
ENCODING 8801
SWIDTH 549 0
DWIDTH 18 0
BBX 17 12 0 3
BITMAP
FFFF80
FFFF80
000000
000000
000000
FFFF80
FFFF80
000000
000000
000000
FFFF80
FFFF80
ENDCHAR
STARTCHAR uni2262
ENCODING 8802
SWIDTH 549 0
DWIDTH 18 0
BBX 17 26 0 -4
BITMAP
000C00
000C00
001800
001800
003800
003000
003000
FFFF80
FFFF80
006000
006000
00E000
FFFF80
FFFF80
01C000
018000
018000
FFFF80
FFFF80
030000
030000
070000
060000
060000
0C0000
0C0000
ENDCHAR
STARTCHAR lessequal
ENCODING 8804
SWIDTH 549 0
DWIDTH 18 0
BBX 16 21 1 0
BITMAP
0007
001F
007C
01F0
07C0
1E00
7800
E000
E000
7800
1E00
0780
01E0
0078
001E
0007
0001
0000
0000
FFFF
FFFF
ENDCHAR
STARTCHAR greaterequal
ENCODING 8805
SWIDTH 549 0
DWIDTH 18 0
BBX 16 21 1 0
BITMAP
E000
F800
3E00
0F80
01E0
0078
001E
0007
0007
001E
0078
01E0
0780
1E00
7800
E000
8000
0000
0000
FFFF
FFFF
ENDCHAR
STARTCHAR uni226E
ENCODING 8814
SWIDTH 564 0
DWIDTH 19 0
BBX 16 26 1 -4
BITMAP
0018
0018
0030
0030
0071
0067
007F
007C
01F0
07C0
1FC0
7DC0
F180
F180
7F80
1F00
07C0
03F0
067C
061F
0607
0E01
0C00
0C00
1800
1800
ENDCHAR
STARTCHAR uni226F
ENCODING 8815
SWIDTH 564 0
DWIDTH 19 0
BBX 16 26 2 -4
BITMAP
0018
0018
0030
0030
8070
E060
F860
3E60
0FC0
03E0
00F8
01FE
018F
018F
03BE
03F8
03E0
0F80
3E00
FE00
E600
8E00
0C00
0C00
1800
1800
ENDCHAR
STARTCHAR uni2270
ENCODING 8816
SWIDTH 549 0
DWIDTH 18 0
BBX 16 26 1 -2
BITMAP
0018
0018
0030
0037
007F
007C
01F0
07E0
1EC0
78C0
E0C0
E1C0
7980
1F80
0780
03E0
0378
031E
0607
0601
0600
0E00
FFFF
FFFF
1800
1800
ENDCHAR
ENDFONT
